<?xml version="1.0" encoding="UTF-8" standalone="no"?>
<svg
   xmlns:dc="http://purl.org/dc/elements/1.1/"
   xmlns:cc="http://creativecommons.org/ns#"
   xmlns:rdf="http://www.w3.org/1999/02/22-rdf-syntax-ns#"
   xmlns:svg="http://www.w3.org/2000/svg"
   xmlns="http://www.w3.org/2000/svg"
   xmlns:sodipodi="http://sodipodi.sourceforge.net/DTD/sodipodi-0.dtd"
   xmlns:inkscape="http://www.inkscape.org/namespaces/inkscape"
   sodipodi:docname="account.svg"
   inkscape:version="1.0beta2 (2b71d25, 2019-12-03)"
   id="svg8"
   version="1.1"
   viewBox="0 0 150 66.736992"
   height="66.736992mm"
   width="150mm">
  <defs
     id="defs2">
    <style
       id="style855">.cls-1{fill:#768eb5;opacity:0.45;}.cls-2{fill:#dedede;}.cls-3{fill:#ae242f;}.cls-4{fill:#6696e2;}.cls-5{fill:#4e494b;}.cls-6{fill:#e5bda7;}.cls-7{fill:#dba686;}.cls-8{fill:#946c4a;}.cls-9{fill:#141313;}.cls-10{fill:#b68b72;}.cls-11{fill:#2c323d;}.cls-12{fill:#dba585;}.cls-13{fill:#393d3f;}.cls-14{fill:#807f7d;}.cls-15{fill:#323436;}.cls-16{fill:#d7c9c2;}.cls-17{fill:#4c5155;}.cls-18{fill:#997761;}.cls-19{fill:#404347;}.cls-20{fill:#ada29e;}.cls-21{fill:#53575c;}.cls-22{fill:#eee0d7;}.cls-23,.cls-26{fill:#4c55c6;}.cls-24{fill:#a79d97;}.cls-25{fill:#6c7279;}.cls-26{font-size:30px;font-family:Andor-PersonalUse, Andor;}.cls-27{letter-spacing:-0.05em;}.cls-28{letter-spacing:-0.02em;}.cls-29{letter-spacing:-0.02em;}</style>
  </defs>
  <sodipodi:namedview
     inkscape:window-maximized="0"
     inkscape:window-y="23"
     inkscape:window-x="0"
     inkscape:window-height="755"
     inkscape:window-width="1280"
     showgrid="false"
     inkscape:document-rotation="0"
     inkscape:current-layer="layer1"
     inkscape:document-units="mm"
     inkscape:cy="523.26001"
     inkscape:cx="352.036"
     inkscape:zoom="0.35"
     inkscape:pageshadow="2"
     inkscape:pageopacity="0.0"
     borderopacity="1.0"
     bordercolor="#666666"
     pagecolor="#ffffff"
     id="base" />
  <metadata
     id="metadata5">
    <rdf:RDF>
      <cc:Work
         rdf:about="">
        <dc:format>image/svg+xml</dc:format>
        <dc:type
           rdf:resource="http://purl.org/dc/dcmitype/StillImage" />
        <dc:title></dc:title>
      </cc:Work>
    </rdf:RDF>
  </metadata>
  <g
     transform="translate(-12.690476,-9.7207887)"
     id="layer1"
     inkscape:groupmode="layer"
     inkscape:label="Capa 1">
    <g
       id="Character"
       transform="matrix(0.41052866,0,0,0.41052866,-0.42392969,-7.1669048)">
      <path
         id="path861"
         d="m 60.2,203.22 c 0,0 -46.41,-43.8 -20.27,-103 C 52.46,71.82 85.85,65.15 96,71 c 13.34,7.66 31,-13 69.3,-27.26 28.7,-10.74 93.83,11.07 72.64,78.08 -11,34.78 23.65,32 29.07,63 a 16.08,16.08 0 0 1 -15.84,18.88 z"
         class="cls-1"
         inkscape:connector-curvature="0" />
      <rect
         id="rect863"
         height="127.89"
         width="110"
         y="70.489998"
         x="113.93"
         class="cls-2" />
      <path
         id="path865"
         d="m 200,92.27 v 1.67 h 9.81 v 9.2 h 1.66 V 92.27 Z m -66.6,10.87 h 1.67 v -9.2 h 9.81 v -1.67 h -11.47 z m 76.41,47.49 v 9.21 H 200 v 1.67 h 11.47 v -10.88 z m -74.74,0 h -1.67 v 10.88 h 11.48 v -1.67 h -9.81 z"
         class="cls-3"
         inkscape:connector-curvature="0" />
      <path
         id="path867"
         d="m 210.4,191.16 a 7.8,7.8 0 1 1 7.81,-7.8 7.81,7.81 0 0 1 -7.81,7.8 z m 0,-14.09 a 6.29,6.29 0 1 0 6.3,6.29 6.3,6.3 0 0 0 -6.3,-6.29 z"
         class="cls-4"
         inkscape:connector-curvature="0" />
      <polygon
         id="polygon869"
         points="206.36,182.88 207.43,181.82 209.91,184.29 213.38,180.82 214.45,181.89 209.91,186.43 "
         class="cls-4" />
      <path
         id="path871"
         d="M 200.74,157.76 H 192 c -0.57,-4.16 -1.27,-8.92 -1.27,-8.92 0,0 -0.35,3.93 -0.78,8.92 h -34.74 a 61,61 0 0 0 -0.84,-7.92 c -0.2,-0.1 -1.44,3.88 -2.47,7.92 h -9.42 c 2.43,-10.43 6.94,-27.17 9.55,-28.18 3.72,-1.42 18.88,-6.1 18.88,-6.1 h 8.65 c 0,0 15.38,4.39 16.81,9.16 a 170.17,170.17 0 0 1 4.37,25.12 z"
         class="cls-5"
         inkscape:connector-curvature="0" />
      <path
         id="path873"
         d="m 175.63,95.42 c 0,0 8.08,1.27 6.85,13.91 -1.23,12.64 -8.36,11.6 -8.83,11.59 -0.47,-0.01 -7.16,0.23 -7.68,-15.2 0.03,0 -0.23,-11.41 9.66,-10.3 z"
         class="cls-6"
         inkscape:connector-curvature="0" />
      <path
         id="path875"
         d="m 179.4,117.2 c 0,0 -0.22,5.2 0.29,6.32 0.51,1.12 -6.67,4.74 -11,0.71 0,0 1,-5.65 0.76,-7.65 -0.24,-2 9.95,0.62 9.95,0.62 z"
         class="cls-6"
         inkscape:connector-curvature="0" />
      <path
         id="path877"
         d="m 182.61,105.76 c 0,0 0.88,-1 1.21,0 0.33,1 -1.38,5.23 -1.27,5.42 0,0 -0.16,0.37 -0.37,0.17 -0.21,-0.2 0.43,-5.59 0.43,-5.59 z"
         class="cls-7"
         inkscape:connector-curvature="0" />
      <path
         id="path879"
         d="m 166.06,105.6 c 0,0 -0.87,-1 -1.21,0 -0.34,1 1.27,5.25 1.16,5.44 0,0 0.15,0.38 0.37,0.18 0.22,-0.2 -0.32,-5.62 -0.32,-5.62 z"
         class="cls-7"
         inkscape:connector-curvature="0" />
      <path
         id="path881"
         d="m 182.6,107.7 -1.15,1.54 a 30.21,30.21 0 0 0 -0.16,-3.92 c -0.18,-0.53 -0.47,-2.15 -0.62,-2.53 -0.15,-0.38 -6.94,-2.29 -12.93,0.55 0,0 0.27,2.44 -0.31,2.65 -0.58,0.21 -0.29,4 -0.29,4 l -0.95,-1.07 c 0,0 -1.46,-9.72 -1.1,-10.74 0.36,-1.02 1.51,-7.1 13.8,-3.49 0,0 3.83,-0.81 4.6,1.84 0.77,2.65 -0.89,11.17 -0.89,11.17 z"
         class="cls-8"
         inkscape:connector-curvature="0" />
      <path
         id="path883"
         d="m 179.69,123.52 c 0,0 1.82,0.39 -5.81,7.7 0,0 -5.41,-6 -5.23,-7 0.18,-1 11.04,-0.7 11.04,-0.7 z"
         class="cls-6"
         inkscape:connector-curvature="0" />
      <polygon
         id="polygon885"
         points="175.96,134.78 182.14,124.3 179.46,122.43 173.88,131.22 "
         class="cls-9" />
      <polygon
         id="polygon887"
         points="168.83,123.18 165.97,125.02 171.1,134.78 173.88,131.22 "
         class="cls-9" />
      <path
         id="path889"
         d="m 172.32,153.49 c 0.06,1.18 0.09,2.63 0.09,4.27 h -0.29 c 0,-1.63 0,-3.08 -0.09,-4.26 -0.47,-8.92 1.69,-19.77 1.71,-22.31 l 0.28,0.06 c -0.02,2.54 -2.17,13.36 -1.7,22.24 z"
         class="cls-9"
         inkscape:connector-curvature="0" />
      <path
         id="path891"
         d="m 170.16,119.43 a 5.38,5.38 0 0 0 4.63,1.49 7.85,7.85 0 0 0 3.92,-1.78 5,5 0 0 1 -4.21,2.93 4.48,4.48 0 0 1 -4.34,-2.64 z"
         class="cls-10"
         inkscape:connector-curvature="0" />
      <rect
         id="rect893"
         height="2.22"
         width="31.889999"
         y="178.64"
         x="126.56"
         class="cls-11" />
      <path
         id="path895"
         d="m 109.59,137.25 c 0,0 1.32,0 1.79,-0.53 a 6,6 0 0 1 1.57,-1.09 c 0.35,-0.18 1.34,-1.13 1.46,-0.67 0.12,0.46 -1.57,1.66 -1.89,2 -0.32,0.34 1.41,0.46 1.66,0.77 0.25,0.31 -0.63,3.59 -1.78,3.33 -1.15,-0.26 -2.1,-1.41 -2.31,-1.41 a 6.49,6.49 0 0 1 -0.86,-0.15 z"
         class="cls-12"
         inkscape:connector-curvature="0" />
      <path
         id="path897"
         d="m 113.94,137.58 a 21.09,21.09 0 0 1 3.58,1.35 c 0.14,0.29 0,0.51 -0.28,0.43 l -3.37,-0.9 c 0,0 3.76,2 3.93,2.26 0.17,0.26 -0.07,0.55 -0.25,0.53 -0.18,-0.02 -4,-1.8 -4,-1.8 a 38.62,38.62 0 0 1 3.59,2.15 c 0.08,0.2 -0.16,0.57 -0.43,0.45 L 113,140.37 c 0,0 2.44,1.6 2.4,1.86 -0.04,0.26 -0.15,0.54 -0.76,0.1 -0.61,-0.44 -2.19,-1.28 -2.19,-1.28 z"
         class="cls-12"
         inkscape:connector-curvature="0" />
      <path
         id="path899"
         d="m 102.35,195.29 a 5.22,5.22 0 0 0 2.65,2 c 1.55,0.36 3.07,0.92 3.09,1.9 0.02,0.98 -4.48,1.56 -6.25,0.58 -2.65,-1.47 -2.92,-1 -3.21,-1.77 -0.29,-0.77 0.35,-2.7 0.33,-2.93 -0.02,-0.23 3.39,0.22 3.39,0.22 z"
         class="cls-13"
         inkscape:connector-curvature="0" />
      <path
         id="path901"
         d="m 102.18,194.48 a 7.27,7.27 0 0 1 0.17,0.81 c 0,0 -3.49,0.43 -3.39,-0.21 0.1,-0.64 0.21,-1.08 0.21,-1.08 z"
         class="cls-14"
         inkscape:connector-curvature="0" />
      <path
         id="path903"
         d="m 80.63,195.18 a 4.89,4.89 0 0 0 2.13,2.12 c 1.44,0.58 2.59,1.24 2.57,2.19 -0.02,0.95 -3.52,1.92 -6.06,0.09 -1.6,-1.16 -2.11,-1.16 -2.37,-1.89 -0.26,-0.73 0.45,-2.61 0.44,-2.84 -0.01,-0.23 3.29,0.33 3.29,0.33 z"
         class="cls-13"
         inkscape:connector-curvature="0" />
      <path
         id="path905"
         d="m 80.67,194.36 a 7.63,7.63 0 0 1 0,0.82 c 0,0 -3.37,0.29 -3.29,-0.33 a 5.41,5.41 0 0 1 0.32,-1.1 z"
         class="cls-14"
         inkscape:connector-curvature="0" />
      <path
         id="path907"
         d="m 92.93,146.11 c 0,0 4.39,16.82 6.06,20.71 1.55,3.6 2.06,8.64 2.27,11.17 0.27,3.19 1.87,15.58 2,16.51 0.13,0.93 -5.16,0.52 -5.16,0.52 0,0 -3.69,-21.44 -5.22,-24.56 -1,-2.09 -7,-17.06 -7.64,-16.2 -0.64,0.86 -1.52,15.86 -2,18.35 -0.48,2.49 -2,22.16 -2,22.16 0,0 -3.45,0.51 -4.37,-0.27 0,0 -0.42,-16.79 -0.1,-21.46 0.12,-1.78 -2.09,-21.33 0.74,-29.2 1.49,-4.16 15.42,2.27 15.42,2.27 z"
         class="cls-15"
         inkscape:connector-curvature="0" />
      <path
         id="path909"
         d="m 68.47,134.05 a 10,10 0 0 0 0.94,2.06 c 0.85,-1.69 1.52,-3.08 1.73,-3.6 0.72,-1.68 4.4,-5.55 4.4,-5.55 v 0 0.09 a 45.25,45.25 0 0 1 1.46,7.72 c 0,2.51 0.71,7.14 0.71,7.14 v 0 l 0.77,0.11 1.7,0.24 h 0.2 l 0.5,0.07 4.51,0.63 1.6,0.23 h 0.22 l 0.91,0.13 2.53,0.35 0.64,0.09 v 0 l 0.48,0.07 0.67,0.09 v 0 a 4.44,4.44 0 0 0 0.55,-2.8 c -0.06,-1.24 -0.21,-3.56 -0.15,-5.72 v -0.14 0 a 14.88,14.88 0 0 1 0.36,-3.16 12.11,12.11 0 0 0 0.31,-1.69 v -0.08 a 2.58,2.58 0 0 0 0,-0.29 14.21,14.21 0 0 0 0,-2.7 v 0 c 0,0.1 0.38,1.31 0.81,2.8 0.73,2.52 1.75,5.85 2.18,6 0.64,0.23 10.89,3.26 13.1,3.58 0.26,0 0.41,0 0.42,0 v -0.1 c 0.27,-0.89 0.64,-2.4 0.7,-2.64 v 0 l -0.4,-0.11 -11.15,-3.35 -5.1,-14.7 c -0.11,-0.08 -1.36,-0.69 -2.28,-1.13 -0.92,-0.44 -2,-1.09 -3.07,-1.65 -0.52,-0.28 -1,-0.54 -1.44,-0.74 h -0.06 v 0 l -1.17,-0.53 v 0 h -0.31 c -1,-0.09 -4,-0.38 -5,-0.44 h -0.31 a 13.58,13.58 0 0 0 -1.58,0.54 v 0 h -0.1 -0.11 l -0.22,0.08 -0.45,0.18 -0.17,0.07 a 32.12,32.12 0 0 0 -3.8,1.8 24.45,24.45 0 0 0 -2.3,4.11 c -1.38,4.42 -3.13,11.19 -3.18,12.86 z"
         class="cls-16"
         inkscape:connector-curvature="0" />
      <path
         id="path911"
         d="m 92.49,144 a 4.22,4.22 0 0 1 0.44,2.13 c 0,0 -14,-1.63 -15.44,-2.27 0,0 -0.06,-1.9 0.26,-1.93 0.32,-0.03 14.74,2.07 14.74,2.07 z"
         class="cls-17"
         inkscape:connector-curvature="0" />
      <path
         id="path913"
         d="m 80.59,113.8 c 0,2.19 4.28,3.39 4.28,3.39 0,0 1.77,-2.23 1.35,-2.44 -0.17,-0.08 -0.23,-0.42 -0.25,-0.79 a 7.74,7.74 0 0 1 0,-1 c 0,-0.16 0,-0.26 0,-0.26 0,0 -0.6,-0.64 -1.37,-1.4 -1.35,-1.33 -3.2,-3 -3.21,-2.36 a 0.69,0.69 0 0 0 0,0.13 c 0.39,1.54 -0.8,4.73 -0.8,4.73 z"
         class="cls-12"
         inkscape:connector-curvature="0" />
      <path
         id="path915"
         d="m 80.94,142.25 c 0,0 -0.31,1.92 -0.33,2.42 l -0.65,-0.13 c 0,0 0.18,-2 0.28,-2.37 z"
         class="cls-13"
         inkscape:connector-curvature="0" />
      <path
         id="path917"
         d="m 91.32,143.76 c 0,0 0.25,1.75 0.25,2.4 l -0.68,-0.08 c 0,0 -0.14,-2.18 -0.22,-2.41 z"
         class="cls-13"
         inkscape:connector-curvature="0" />
      <path
         id="path919"
         d="m 82.22,110.59 v 0 c 0,0 0.19,0.28 0.49,0.67 A 8.94,8.94 0 0 0 86,114 a 7.74,7.74 0 0 1 0,-1 3,3 0 0 0 0.42,0 13.57,13.57 0 0 0 -0.92,-1.35 l -0.85,-0.26 z"
         class="cls-18"
         inkscape:connector-curvature="0" />
      <path
         id="path921"
         d="m 81.4,109 c 0.37,0.8 0.72,1.38 0.82,1.61 v 0 a 2.9,2.9 0 0 0 0.49,0.67 4.93,4.93 0 0 0 3.29,1.72 3,3 0 0 0 0.42,0 2,2 0 0 0 1.46,-1 11.46,11.46 0 0 0 0.73,-9.42 c 0,0 -7.23,-2 -8.37,0.13 -0.8,1.44 0.3,4.4 1.16,6.29 z"
         class="cls-12"
         inkscape:connector-curvature="0" />
      <path
         id="path923"
         d="m 88.6,102.49 c 0,0 0.67,0 0.84,-1.31 0.17,-1.31 -0.17,-1.61 -0.17,-1.61 A 29.78,29.78 0 0 0 85.21,98.16 C 84.14,98 81.5,97.84 80.88,98.55 c 0,0 -1.5,-0.35 -1.91,2.14 -0.65,4 2.21,7.8 2.21,7.8 0,0 0,-2.58 0.55,-2.93 0.55,-0.35 1.06,0.48 1.06,0.48 l 1.17,0.2 c 0,0 -1.77,-3.82 0.35,-4 2.12,-0.18 3.07,0.47 4.29,0.25 z"
         class="cls-11"
         inkscape:connector-curvature="0" />
      <path
         id="path925"
         d="m 82.76,105 c -0.11,-1.13 -2.17,-1.57 -2,-0.38 0.17,1.19 1.15,2.34 1.62,2.3 0.47,-0.04 0.46,-1.05 0.38,-1.92 z"
         class="cls-12"
         inkscape:connector-curvature="0" />
      <path
         id="path927"
         d="m 69.41,136.11 c 0.9,1.72 2.31,4.23 3.71,6.67 l -0.54,1 a 20.28,20.28 0 0 0 -1,2.36 c -0.32,0.9 -0.76,3.18 0.08,3.61 l 4.47,2.46 0.09,-0.25 c 0.15,-0.4 0.47,-1.26 0.91,-2.37 0,0 0.06,-0.14 0.13,-0.3 0.07,-0.16 0.21,-0.5 0.36,-0.85 0.07,-0.15 0.13,-0.31 0.21,-0.48 l 0.24,-0.57 0.36,-0.83 0.54,-1.26 v -0.1 c 0.14,-0.31 0.29,-0.63 0.44,-0.94 l 0.72,-1.45 0.08,-0.14 c 0,-0.09 0.09,-0.17 0.13,-0.25 a 1.09,1.09 0 0 0 0.08,-0.15 v 0 -0.06 c 1.29,-2.35 2.74,-4.32 3.2,-7.21 0,-0.28 0.09,-0.55 0.13,-0.83 0.07,-0.46 0.13,-0.91 0.19,-1.35 l 0.06,-0.5 c 0.23,-1.93 0.37,-3.64 0.48,-4.84 0.35,-3.72 -1.93,-7.76 -3.68,-10.25 A 29.19,29.19 0 0 0 79,114.82 v 0 h -0.1 -0.11 l -0.22,0.08 -0.45,0.18 -0.17,0.07 c -1.69,0.66 -5.26,1.64 -5.71,2 a 17.75,17.75 0 0 0 -1.51,4 64.56,64.56 0 0 0 -2.26,12.85 v 0.08 a 10,10 0 0 0 0.94,2.03 z m 6.79,-0.83 a 7.68,7.68 0 0 1 -0.69,2.8 v 0.07 c -0.29,-0.61 -0.56,-1.19 -0.8,-1.73 v 0 a 14.4,14.4 0 0 1 -1.15,-3.1 c -0.16,-2.95 2,-6.35 2,-6.35 v 0 0.09 a 72.4,72.4 0 0 1 0.64,8.22 z"
         class="cls-19"
         inkscape:connector-curvature="0" />
      <rect
         id="rect929"
         transform="rotate(-23.99,76.021633,144.02436)"
         rx="1.4299999"
         height="11.42"
         width="16.780001"
         y="138.3"
         x="67.599998"
         class="cls-20" />
      <path
         id="path931"
         d="m 87.42,115.34 a 59,59 0 0 1 1.37,7 v 0 c 0,0.16 0,0.33 0.08,0.51 a 0.13,0.13 0 0 0 0,0.06 c 0,0.11 0,0.23 0.05,0.35 v 0 0.24 q 0,0.29 0.09,0.6 c 0.34,2.41 0.83,6.52 1.29,10.67 v 0 c 0.37,3.27 1.2,6.62 1.47,9.13 v 0 a 16.71,16.71 0 0 0 0.35,1.88 l 0.06,0.26 c 0.74,3.16 2.2,7.63 2.2,7.63 l 0.42,-0.39 1.25,-1.16 a 1,1 0 0 0 0.28,-1.05 c -0.69,-2.24 -3,-10.17 -3.48,-15.74 v 0 c 0.22,-2 0.76,-4.59 0.68,-5 v 0 c 0.25,0.7 0.53,1.45 0.81,2.18 v 0 c 0.74,2 1.5,3.79 1.82,3.9 0.71,0.26 13.4,4 13.49,3.48 v -0.16 a 1.62,1.62 0 0 1 0,-0.19 c 0.15,-0.71 0.44,-1.74 0.64,-2.43 l 0.08,-0.28 c 0.08,-0.29 0.14,-0.47 0.14,-0.47 L 99.9,132.89 94.48,118.73 c -0.1,-0.09 -1.49,-0.83 -2.4,-1.27 l -3.23,-1.46 -1.4,-0.65 z"
         class="cls-19"
         inkscape:connector-curvature="0" />
      <path
         id="path933"
         d="m 80.16,120.25 2.06,1.16 -0.88,0.9 2.34,12.69 c 0.48,-3 0.7,-5.79 0.86,-7.52 0.54,-5.76 -5.2,-12.25 -5.56,-12.65 l -0.88,0.34 z"
         class="cls-21"
         inkscape:connector-curvature="0" />
      <path
         id="path935"
         d="m 87.39,115.28 a 67.12,67.12 0 0 1 1.67,8.8 c 0.34,2.42 0.83,6.53 1.29,10.68 l 0.48,-11.87 -1,-1.07 0.87,-1.09 -1.85,-4.73 -1.4,-0.65 z"
         class="cls-21"
         inkscape:connector-curvature="0" />
      <path
         id="path937"
         d="m 78.86,114.85 1.73,-1 c 0,0 0,0.94 4.28,3.39 l -1.2,3.38 z"
         class="cls-22"
         inkscape:connector-curvature="0" />
      <path
         id="path939"
         d="m 86,114.27 a 8.08,8.08 0 0 1 -1.13,2.92 l 2.35,3.06 0.17,-5 z"
         class="cls-22"
         inkscape:connector-curvature="0" />
      <path
         id="path941"
         d="m 84.86,117.19 a 8.13,8.13 0 0 0 -0.29,2.33 2.22,2.22 0 0 0 1.72,-0.1 8,8 0 0 0 -1.43,-2.23 z"
         class="cls-23"
         inkscape:connector-curvature="0" />
      <path
         id="path943"
         d="m 87.22,143.44 a 35.16,35.16 0 0 0 0,-5.3 H 87 a 35.54,35.54 0 0 1 0,5.24 z"
         class="cls-24"
         inkscape:connector-curvature="0" />
      <path
         id="path945"
         d="m 85.43,142.85 c 0,0 2.06,0.24 2.74,0.41 l -0.09,2.3 -2.69,-0.28 z"
         class="cls-25"
         inkscape:connector-curvature="0" />
      <path
         id="path947"
         d="m 85.88,119.26 a 32.4,32.4 0 0 1 1.92,12.26 55.79,55.79 0 0 1 -1,9.15 l -1.41,1.77 -0.63,-2.18 a 53.23,53.23 0 0 0 0.67,-16.89 c -0.22,-1.5 -0.55,-4.36 -0.55,-4.36 z"
         class="cls-23"
         inkscape:connector-curvature="0" />
      <path
         id="path949"
         d="m 79,146.58 c 0,0 0.49,1 1,1.15 a 4.08,4.08 0 0 1 1.21,1 l -3.46,1.82 a 9.44,9.44 0 0 1 -1,-2.95 C 76.73,146.41 79,146.58 79,146.58 Z"
         class="cls-12"
         inkscape:connector-curvature="0" />
      <path
         id="path951"
         d="m 79.33,146.67 0.23,0.46 a 15.79,15.79 0 0 1 -2.79,1.71 l -0.21,-0.61 z"
         class="cls-16"
         inkscape:connector-curvature="0" />
      <path
         id="path953"
         d="m 79.56,146.69 a 17,17 0 0 1 -3,2 l -6.21,-10.9 4,-2.17 c 0,0 5.1,10.25 5.21,11.07 z"
         class="cls-19"
         inkscape:connector-curvature="0" />
      <path
         id="path955"
         d="m 93.5,127.41 c 0.08,1.55 0.07,2.93 0.07,2.93 v 0 0 c 0.25,0.7 0.53,1.45 0.81,2.18 q 0.09,-1.27 0.06,-2.37 a 14.5,14.5 0 0 0 -1.44,-6.6 15,15 0 0 1 0.5,3.86 z"
         class="cls-15"
         inkscape:connector-curvature="0" />
      <text
         id="text965"
         transform="translate(274.94,146.41)"
         class="cls-26">Settings</text>
    </g>
  </g>
</svg>
