<?xml version="1.0" encoding="UTF-8" standalone="no"?>
<svg
   xmlns:dc="http://purl.org/dc/elements/1.1/"
   xmlns:cc="http://creativecommons.org/ns#"
   xmlns:rdf="http://www.w3.org/1999/02/22-rdf-syntax-ns#"
   xmlns:svg="http://www.w3.org/2000/svg"
   xmlns="http://www.w3.org/2000/svg"
   xmlns:sodipodi="http://sodipodi.sourceforge.net/DTD/sodipodi-0.dtd"
   xmlns:inkscape="http://www.inkscape.org/namespaces/inkscape"
   viewBox="0 0 423.4 264.06"
   version="1.1"
   id="svg968"
   sodipodi:docname="account.svg"
   inkscape:version="1.0beta2 (2b71d25, 2019-12-03)">
  <metadata
     id="metadata972">
    <rdf:RDF>
      <cc:Work
         rdf:about="">
        <dc:format>image/svg+xml</dc:format>
        <dc:type
           rdf:resource="http://purl.org/dc/dcmitype/StillImage" />
        <dc:title>FORM</dc:title>
      </cc:Work>
    </rdf:RDF>
  </metadata>
  <sodipodi:namedview
     inkscape:snap-global="false"
     pagecolor="#ffffff"
     bordercolor="#666666"
     inkscape:document-rotation="0"
     borderopacity="1"
     objecttolerance="10"
     gridtolerance="10"
     guidetolerance="10"
     inkscape:pageopacity="0"
     inkscape:pageshadow="2"
     inkscape:window-width="1280"
     inkscape:window-height="755"
     id="namedview970"
     showgrid="false"
     inkscape:zoom="2.0721679"
     inkscape:cx="249.3583"
     inkscape:cy="141.02773"
     inkscape:window-x="0"
     inkscape:window-y="23"
     inkscape:window-maximized="0"
     inkscape:current-layer="Character" />
  <defs
     id="defs857">
    <style
       id="style855">.cls-1{fill:#768eb5;opacity:0.45;}.cls-2{fill:#dedede;}.cls-3{fill:#ae242f;}.cls-4{fill:#6696e2;}.cls-5{fill:#4e494b;}.cls-6{fill:#e5bda7;}.cls-7{fill:#dba686;}.cls-8{fill:#946c4a;}.cls-9{fill:#141313;}.cls-10{fill:#b68b72;}.cls-11{fill:#2c323d;}.cls-12{fill:#dba585;}.cls-13{fill:#393d3f;}.cls-14{fill:#807f7d;}.cls-15{fill:#323436;}.cls-16{fill:#d7c9c2;}.cls-17{fill:#4c5155;}.cls-18{fill:#997761;}.cls-19{fill:#404347;}.cls-20{fill:#ada29e;}.cls-21{fill:#53575c;}.cls-22{fill:#eee0d7;}.cls-23,.cls-26{fill:#4c55c6;}.cls-24{fill:#a79d97;}.cls-25{fill:#6c7279;}.cls-26{font-size:30px;font-family:Andor-PersonalUse, Andor;}.cls-27{letter-spacing:-0.05em;}.cls-28{letter-spacing:-0.02em;}.cls-29{letter-spacing:-0.02em;}</style>
  </defs>
  <title
     id="title859">FORM</title>
  <g
     id="Character">
    <path
       class="cls-1"
       d="M60.2,203.22s-46.41-43.8-20.27-103C52.46,71.82,85.85,65.15,96,71c13.34,7.66,31-13,69.3-27.26C194,33,259.13,54.81,237.94,121.82c-11,34.78,23.65,32,29.07,63a16.08,16.08,0,0,1-15.84,18.88Z"
       id="path861" />
    <rect
       class="cls-2"
       x="113.93"
       y="70.49"
       width="110"
       height="127.89"
       id="rect863" />
    <path
       class="cls-3"
       d="M200,92.27v1.67h9.81v9.2h1.66V92.27Zm-66.6,10.87h1.67v-9.2h9.81V92.27H133.41Zm76.41,47.49v9.21H200v1.67h11.47V150.63Zm-74.74,0h-1.67v10.88h11.48v-1.67h-9.81Z"
       id="path865" />
    <path
       class="cls-4"
       d="M210.4,191.16a7.8,7.8,0,1,1,7.81-7.8A7.81,7.81,0,0,1,210.4,191.16Zm0-14.09a6.29,6.29,0,1,0,6.3,6.29A6.3,6.3,0,0,0,210.4,177.07Z"
       id="path867" />
    <polygon
       class="cls-4"
       points="209.91 186.43 206.36 182.88 207.43 181.82 209.91 184.29 213.38 180.82 214.45 181.89 209.91 186.43"
       id="polygon869" />
    <path
       class="cls-5"
       d="M200.74,157.76H192c-.57-4.16-1.27-8.92-1.27-8.92s-.35,3.93-.78,8.92H155.21a61,61,0,0,0-.84-7.92c-.2-.1-1.44,3.88-2.47,7.92h-9.42c2.43-10.43,6.94-27.17,9.55-28.18,3.72-1.42,18.88-6.1,18.88-6.1h8.65s15.38,4.39,16.81,9.16A170.17,170.17,0,0,1,200.74,157.76Z"
       id="path871" />
    <path
       class="cls-6"
       d="M175.63,95.42s8.08,1.27,6.85,13.91-8.36,11.6-8.83,11.59-7.16.23-7.68-15.2C166,105.72,165.74,94.31,175.63,95.42Z"
       id="path873" />
    <path
       class="cls-6"
       d="M179.4,117.2s-.22,5.2.29,6.32-6.67,4.74-11,.71c0,0,1-5.65.76-7.65S179.4,117.2,179.4,117.2Z"
       id="path875" />
    <path
       class="cls-7"
       d="M182.61,105.76s.88-1,1.21,0-1.38,5.23-1.27,5.42c0,0-.16.37-.37.17S182.61,105.76,182.61,105.76Z"
       id="path877" />
    <path
       class="cls-7"
       d="M166.06,105.6s-.87-1-1.21,0,1.27,5.25,1.16,5.44c0,0,.15.38.37.18S166.06,105.6,166.06,105.6Z"
       id="path879" />
    <path
       class="cls-8"
       d="M182.6,107.7l-1.15,1.54a30.21,30.21,0,0,0-.16-3.92c-.18-.53-.47-2.15-.62-2.53s-6.94-2.29-12.93.55c0,0,.27,2.44-.31,2.65s-.29,4-.29,4l-.95-1.07s-1.46-9.72-1.1-10.74,1.51-7.1,13.8-3.49c0,0,3.83-.81,4.6,1.84S182.6,107.7,182.6,107.7Z"
       id="path881" />
    <path
       class="cls-6"
       d="M179.69,123.52s1.82.39-5.81,7.7c0,0-5.41-6-5.23-7S179.69,123.52,179.69,123.52Z"
       id="path883" />
    <polygon
       class="cls-9"
       points="173.88 131.22 175.96 134.78 182.14 124.3 179.46 122.43 173.88 131.22"
       id="polygon885" />
    <polygon
       class="cls-9"
       points="173.88 131.22 168.83 123.18 165.97 125.02 171.1 134.78 173.88 131.22"
       id="polygon887" />
    <path
       class="cls-9"
       d="M172.32,153.49c.06,1.18.09,2.63.09,4.27h-.29c0-1.63,0-3.08-.09-4.26-.47-8.92,1.69-19.77,1.71-22.31l.28.06C174,133.79,171.85,144.61,172.32,153.49Z"
       id="path889" />
    <path
       class="cls-10"
       d="M170.16,119.43a5.38,5.38,0,0,0,4.63,1.49,7.85,7.85,0,0,0,3.92-1.78,5,5,0,0,1-4.21,2.93A4.48,4.48,0,0,1,170.16,119.43Z"
       id="path891" />
    <rect
       class="cls-11"
       x="126.56"
       y="178.64"
       width="31.89"
       height="2.22"
       id="rect893" />
    <path
       class="cls-12"
       d="M109.59,137.25s1.32,0,1.79-.53a6,6,0,0,1,1.57-1.09c.35-.18,1.34-1.13,1.46-.67s-1.57,1.66-1.89,2,1.41.46,1.66.77-.63,3.59-1.78,3.33-2.1-1.41-2.31-1.41a6.49,6.49,0,0,1-.86-.15Z"
       id="path895" />
    <path
       class="cls-12"
       d="M113.94,137.58a21.09,21.09,0,0,1,3.58,1.35c.14.29,0,.51-.28.43l-3.37-.9s3.76,2,3.93,2.26-.07.55-.25.53-4-1.8-4-1.8a38.62,38.62,0,0,1,3.59,2.15c.08.2-.16.57-.43.45L113,140.37s2.44,1.6,2.4,1.86-.15.54-.76.1-2.19-1.28-2.19-1.28Z"
       id="path897" />
    <path
       class="cls-13"
       d="M102.35,195.29a5.22,5.22,0,0,0,2.65,2c1.55.36,3.07.92,3.09,1.9s-4.48,1.56-6.25.58c-2.65-1.47-2.92-1-3.21-1.77s.35-2.7.33-2.93S102.35,195.29,102.35,195.29Z"
       id="path899" />
    <path
       class="cls-14"
       d="M102.18,194.48a7.27,7.27,0,0,1,.17.81s-3.49.43-3.39-.21.21-1.08.21-1.08Z"
       id="path901" />
    <path
       class="cls-13"
       d="M80.63,195.18a4.89,4.89,0,0,0,2.13,2.12c1.44.58,2.59,1.24,2.57,2.19s-3.52,1.92-6.06.09c-1.6-1.16-2.11-1.16-2.37-1.89s.45-2.61.44-2.84S80.63,195.18,80.63,195.18Z"
       id="path903" />
    <path
       class="cls-14"
       d="M80.67,194.36a7.63,7.63,0,0,1,0,.82s-3.37.29-3.29-.33a5.41,5.41,0,0,1,.32-1.1Z"
       id="path905" />
    <path
       class="cls-15"
       d="M92.93,146.11s4.39,16.82,6.06,20.71c1.55,3.6,2.06,8.64,2.27,11.17.27,3.19,1.87,15.58,2,16.51s-5.16.52-5.16.52-3.69-21.44-5.22-24.56c-1-2.09-7-17.06-7.64-16.2s-1.52,15.86-2,18.35-2,22.16-2,22.16-3.45.51-4.37-.27c0,0-.42-16.79-.1-21.46.12-1.78-2.09-21.33.74-29.2C79,139.68,92.93,146.11,92.93,146.11Z"
       id="path907" />
    <path
       class="cls-16"
       d="M68.47,134.05a10,10,0,0,0,.94,2.06c.85-1.69,1.52-3.08,1.73-3.6.72-1.68,4.4-5.55,4.4-5.55h0v.09A45.25,45.25,0,0,1,77,134.77c0,2.51.71,7.14.71,7.14h0l.77.11,1.7.24.2,0,.5.07,4.51.63,1.6.23.22,0,.91.13,2.53.35.64.09h0l.48.07.67.09h0a4.44,4.44,0,0,0,.55-2.8c-.06-1.24-.21-3.56-.15-5.72v-.14h0a14.88,14.88,0,0,1,.36-3.16,12.11,12.11,0,0,0,.31-1.69v-.08a2.58,2.58,0,0,0,0-.29,14.21,14.21,0,0,0,0-2.7h0c0,.1.38,1.31.81,2.8.73,2.52,1.75,5.85,2.18,6,.64.23,10.89,3.26,13.1,3.58.26,0,.41,0,.42,0l0-.1c.27-.89.64-2.4.7-2.64v0l-.4-.11-11.15-3.35-5.1-14.7c-.11-.08-1.36-.69-2.28-1.13s-2-1.09-3.07-1.65c-.52-.28-1-.54-1.44-.74l-.06,0h0l-1.17-.53h0l-.31,0c-1-.09-4-.38-5-.44h-.31a13.58,13.58,0,0,0-1.58.54h0l-.1,0-.11,0-.22.08-.45.18-.17.07A32.12,32.12,0,0,0,74,117a24.45,24.45,0,0,0-2.3,4.11c-1.38,4.42-3.13,11.19-3.18,12.86Z"
       id="path909" />
    <path
       class="cls-17"
       d="M92.49,144a4.22,4.22,0,0,1,.44,2.13s-14-1.63-15.44-2.27c0,0-.06-1.9.26-1.93S92.49,144,92.49,144Z"
       id="path911" />
    <path
       class="cls-12"
       d="M80.59,113.8c0,2.19,4.28,3.39,4.28,3.39s1.77-2.23,1.35-2.44c-.17-.08-.23-.42-.25-.79a7.74,7.74,0,0,1,0-1c0-.16,0-.26,0-.26s-.6-.64-1.37-1.4c-1.35-1.33-3.2-3-3.21-2.36a.69.69,0,0,0,0,.13C81.78,110.61,80.59,113.8,80.59,113.8Z"
       id="path913" />
    <path
       class="cls-13"
       d="M80.94,142.25s-.31,1.92-.33,2.42l-.65-.13s.18-2,.28-2.37Z"
       id="path915" />
    <path
       class="cls-13"
       d="M91.32,143.76s.25,1.75.25,2.4l-.68-.08s-.14-2.18-.22-2.41Z"
       id="path917" />
    <path
       class="cls-18"
       d="M82.22,110.59h0s.19.28.49.67A8.94,8.94,0,0,0,86,114a7.74,7.74,0,0,1,0-1,3,3,0,0,0,.42,0,13.57,13.57,0,0,0-.92-1.35l-.85-.26Z"
       id="path919" />
    <path
       class="cls-12"
       d="M81.4,109c.37.8.72,1.38.82,1.61h0a2.9,2.9,0,0,0,.49.67A4.93,4.93,0,0,0,86,113a3,3,0,0,0,.42,0,2,2,0,0,0,1.46-1,11.46,11.46,0,0,0,.73-9.42s-7.23-2-8.37.13C79.44,104.15,80.54,107.11,81.4,109Z"
       id="path921" />
    <path
       class="cls-11"
       d="M88.6,102.49s.67,0,.84-1.31-.17-1.61-.17-1.61a29.78,29.78,0,0,0-4.06-1.41c-1.07-.16-3.71-.32-4.33.39,0,0-1.5-.35-1.91,2.14-.65,4,2.21,7.8,2.21,7.8s0-2.58.55-2.93,1.06.48,1.06.48l1.17.2s-1.77-3.82.35-4S87.38,102.71,88.6,102.49Z"
       id="path923" />
    <path
       class="cls-12"
       d="M82.76,105c-.11-1.13-2.17-1.57-2-.38s1.15,2.34,1.62,2.3S82.84,105.87,82.76,105Z"
       id="path925" />
    <path
       class="cls-19"
       d="M69.41,136.11c.9,1.72,2.31,4.23,3.71,6.67l-.54,1a20.28,20.28,0,0,0-1,2.36c-.32.9-.76,3.18.08,3.61l4.47,2.46.09-.25c.15-.4.47-1.26.91-2.37,0,0,.06-.14.13-.3s.21-.5.36-.85c.07-.15.13-.31.21-.48l.24-.57.36-.83.54-1.26,0-.1c.14-.31.29-.63.44-.94l.72-1.45.08-.14c0-.09.09-.17.13-.25a1.09,1.09,0,0,0,.08-.15l0,0,0-.06c1.29-2.35,2.74-4.32,3.2-7.21,0-.28.09-.55.13-.83.07-.46.13-.91.19-1.35l.06-.5c.23-1.93.37-3.64.48-4.84.35-3.72-1.93-7.76-3.68-10.25A29.19,29.19,0,0,0,79,114.82h0l-.1,0-.11,0-.22.08-.45.18-.17.07c-1.69.66-5.26,1.64-5.71,2a17.75,17.75,0,0,0-1.51,4A64.56,64.56,0,0,0,68.47,134v.08A10,10,0,0,0,69.41,136.11Zm6.79-.83a7.68,7.68,0,0,1-.69,2.8l0,.07c-.29-.61-.56-1.19-.8-1.73h0a14.4,14.4,0,0,1-1.15-3.1c-.16-2.95,2-6.35,2-6.35h0v.09A72.4,72.4,0,0,1,76.2,135.28Z"
       id="path927" />
    <rect
       class="cls-20"
       x="67.6"
       y="138.3"
       width="16.78"
       height="11.42"
       rx="1.43"
       transform="translate(-51.99 43.35) rotate(-23.99)"
       id="rect929" />
    <path
       class="cls-19"
       d="M87.42,115.34a59,59,0,0,1,1.37,7h0c0,.16,0,.33.08.51a.13.13,0,0,0,0,.06c0,.11,0,.23.05.35v0l0,.24q0,.29.09.6c.34,2.41.83,6.52,1.29,10.67h0c.37,3.27,1.2,6.62,1.47,9.13h0a16.71,16.71,0,0,0,.35,1.88l.06.26c.74,3.16,2.2,7.63,2.2,7.63l.42-.39,1.25-1.16a1,1,0,0,0,.28-1.05c-.69-2.24-3-10.17-3.48-15.74h0c.22-2,.76-4.59.68-5v0c.25.7.53,1.45.81,2.18h0c.74,2,1.5,3.79,1.82,3.9.71.26,13.4,4,13.49,3.48l0-.16a1.62,1.62,0,0,1,0-.19c.15-.71.44-1.74.64-2.43l.08-.28c.08-.29.14-.47.14-.47L99.9,132.89l-5.42-14.16c-.1-.09-1.49-.83-2.4-1.27L88.85,116l-1.4-.65Z"
       id="path931" />
    <path
       class="cls-21"
       d="M80.16,120.25l2.06,1.16-.88.9L83.68,135c.48-3,.7-5.79.86-7.52.54-5.76-5.2-12.25-5.56-12.65l-.88.34Z"
       id="path933" />
    <path
       class="cls-21"
       d="M87.39,115.28a67.12,67.12,0,0,1,1.67,8.8c.34,2.42.83,6.53,1.29,10.68l.48-11.87-1-1.07.87-1.09L88.85,116l-1.4-.65Z"
       id="path935" />
    <path
       class="cls-22"
       d="M78.86,114.85l1.73-1s0,.94,4.28,3.39l-1.2,3.38Z"
       id="path937" />
    <path
       class="cls-22"
       d="M86,114.27a8.08,8.08,0,0,1-1.13,2.92l2.35,3.06.17-5Z"
       id="path939" />
    <path
       class="cls-23"
       d="M84.86,117.19a8.13,8.13,0,0,0-.29,2.33,2.22,2.22,0,0,0,1.72-.1A8,8,0,0,0,84.86,117.19Z"
       id="path941" />
    <path
       class="cls-24"
       d="M87.22,143.44a35.16,35.16,0,0,0,0-5.3l-.22,0a35.54,35.54,0,0,1,0,5.24Z"
       id="path943" />
    <path
       class="cls-25"
       d="M85.43,142.85s2.06.24,2.74.41l-.09,2.3-2.69-.28Z"
       id="path945" />
    <path
       class="cls-23"
       d="M85.88,119.26a32.4,32.4,0,0,1,1.92,12.26,55.79,55.79,0,0,1-1,9.15l-1.41,1.77-.63-2.18a53.23,53.23,0,0,0,.67-16.89c-.22-1.5-.55-4.36-.55-4.36Z"
       id="path947" />
    <path
       class="cls-12"
       d="M79,146.58s.49,1,1,1.15a4.08,4.08,0,0,1,1.21,1l-3.46,1.82a9.44,9.44,0,0,1-1-2.95C76.73,146.41,79,146.58,79,146.58Z"
       id="path949" />
    <path
       class="cls-16"
       d="M79.33,146.67l.23.46a15.79,15.79,0,0,1-2.79,1.71l-.21-.61Z"
       id="path951" />
    <path
       class="cls-19"
       d="M79.56,146.69a17,17,0,0,1-3,2l-6.21-10.9,4-2.17S79.45,145.87,79.56,146.69Z"
       id="path953" />
    <path
       class="cls-15"
       d="M93.5,127.41c.08,1.55.07,2.93.07,2.93h0v0c.25.7.53,1.45.81,2.18q.09-1.27.06-2.37A14.5,14.5,0,0,0,93,123.55,15,15,0,0,1,93.5,127.41Z"
       id="path955" />
    <text
       class="cls-26"
       transform="translate(274.94,146.41)"
       id="text965">Settings</text>
  </g>
</svg>
