<?xml version="1.0" encoding="UTF-8" standalone="no"?>
<svg
   xmlns:dc="http://purl.org/dc/elements/1.1/"
   xmlns:cc="http://creativecommons.org/ns#"
   xmlns:rdf="http://www.w3.org/1999/02/22-rdf-syntax-ns#"
   xmlns:svg="http://www.w3.org/2000/svg"
   xmlns="http://www.w3.org/2000/svg"
   xmlns:sodipodi="http://sodipodi.sourceforge.net/DTD/sodipodi-0.dtd"
   xmlns:inkscape="http://www.inkscape.org/namespaces/inkscape"
   inkscape:version="1.0beta2 (2b71d25, 2019-12-03)"
   sodipodi:docname="assessment-form.svg"
   id="svg720"
   version="1.1"
   viewBox="0 0 412.67 265.59">
  <metadata
     id="metadata724">
    <rdf:RDF>
      <cc:Work
         rdf:about="">
        <dc:format>image/svg+xml</dc:format>
        <dc:type
           rdf:resource="http://purl.org/dc/dcmitype/StillImage" />
        <dc:title>FORM</dc:title>
      </cc:Work>
    </rdf:RDF>
  </metadata>
  <sodipodi:namedview
     inkscape:current-layer="Character"
     inkscape:window-maximized="1"
     inkscape:window-y="23"
     inkscape:window-x="0"
     inkscape:cy="132.795"
     inkscape:cx="206.33501"
     inkscape:zoom="1.024135"
     showgrid="false"
     id="namedview722"
     inkscape:window-height="755"
     inkscape:window-width="1280"
     inkscape:pageshadow="2"
     inkscape:pageopacity="0"
     guidetolerance="10"
     gridtolerance="10"
     objecttolerance="10"
     borderopacity="1"
     inkscape:document-rotation="0"
     bordercolor="#666666"
     pagecolor="#ffffff" />
  <defs
     id="defs617">
    <style
       id="style615">.cls-1{isolation:isolate;}.cls-2{fill:#c5eace;}.cls-3{font-size:29.84px;fill:#549e67;font-family:Andor-PersonalUse, Andor;}.cls-4{letter-spacing:-0.02em;}.cls-5{letter-spacing:-0.04em;}.cls-6{fill:#69a378;}.cls-7{fill:#eeeded;}.cls-8{fill:#d6e1eb;opacity:0.42;mix-blend-mode:multiply;}.cls-9{fill:#d0d1d2;}.cls-10{fill:#ffff6c;}.cls-11{fill:#81c194;}</style>
  </defs>
  <title
     id="title619">FORM</title>
  <g
     id="g718"
     class="cls-1">
    <g
       id="Character">
      <path
         id="path621"
         d="M51.74,186.29S17,151.71,36.54,105c9.4-22.43,34.42-27.69,42-23.1,10,6,23.27-10.3,51.94-21.52C152,51.91,200.83,69.11,184.94,122,176,151.7,207.1,146.7,207.26,178.26a8.36,8.36,0,0,1-8.36,8.4Z"
         class="cls-2" />
      <text
         id="text631"
         transform="translate(213.29,136.46)"
         class="cls-3"><tspan
           id="tspan623"
           class="cls-4">A</tspan><tspan
           dy="0 0"
           id="tspan625"
           y="0"
           x="20.65">ssessment</tspan><tspan
           id="tspan627"
           y="35.810001"
           x="0"
           class="cls-5">F</tspan><tspan
           id="tspan629"
           y="35.810001"
           x="16.290001">orm</tspan></text>
      <path
         id="path633"
         d="M98.85,110.79l-23.37.28a3.47,3.47,0,0,0-3.4,4l6.36,46.09a3.48,3.48,0,0,0,3.48,3l72.1-.85a3.47,3.47,0,0,0,3.41-3.08l4.4-39.84a2.31,2.31,0,0,0-2.33-2.58l-54.94.64-2-5.45A4.26,4.26,0,0,0,98.85,110.79Z"
         class="cls-6" />
      <path
         id="path635"
         d="M98.86,111.91l-23.37.27a3.48,3.48,0,0,0-3.4,3.95l5.07,46.11,81.58-1,3.11-39.83a2.32,2.32,0,0,0-2.34-2.58l-54.94.64-2-5.45A4.24,4.24,0,0,0,98.86,111.91Z"
         class="cls-6" />
      <polygon
         id="polygon637"
         points="73.04 124.76 77.16 162.24 158.74 161.28 161.67 123.72 73.04 124.76"
         class="cls-6" />
      <rect
         id="rect639"
         transform="translate(-20.44 20.73) rotate(-10.86)"
         height="53.33"
         width="42.52"
         y="91.25"
         x="77.59"
         class="cls-7" />
      <polygon
         id="polygon641"
         points="114.71 87.72 114.07 87.85 107.45 139.84 118.68 141.26 124.75 140.1 114.71 87.72"
         class="cls-8" />
      <rect
         id="rect643"
         transform="translate(-16.53 19.59) rotate(-10.86)"
         height="2.33"
         width="27.16"
         y="95.6"
         x="81.21"
         class="cls-9" />
      <rect
         id="rect645"
         transform="translate(-22.24 21.26) rotate(-10.86)"
         height="2.33"
         width="27.16"
         y="126.47"
         x="87.14"
         class="cls-9" />
      <rect
         id="rect647"
         transform="translate(-23.09 21.51) rotate(-10.86)"
         height="2.33"
         width="27.16"
         y="131.08"
         x="88.02"
         class="cls-9" />
      <rect
         id="rect649"
         transform="translate(-23.95 21.76) rotate(-10.86)"
         height="2.33"
         width="27.16"
         y="135.69"
         x="88.9"
         class="cls-9" />
      <rect
         id="rect651"
         transform="matrix(0.98, -0.19, 0.19, 0.98, -17.06, 19.75)"
         height="1.17"
         width="13.57"
         y="99.06"
         x="88.56"
         class="cls-9" />
      <rect
         id="rect653"
         transform="translate(-18.6 18.49) rotate(-10.86)"
         height="1.17"
         width="15.02"
         y="106.51"
         x="80.48"
         class="cls-9" />
      <rect
         id="rect655"
         transform="translate(-19.23 18.68) rotate(-10.86)"
         height="1.17"
         width="15.02"
         y="109.91"
         x="81.13"
         class="cls-9" />
      <rect
         id="rect657"
         transform="translate(-19.86 18.86) rotate(-10.86)"
         height="1.17"
         width="15.02"
         y="113.3"
         x="81.79"
         class="cls-9" />
      <rect
         id="rect659"
         transform="translate(-20.48 19.04) rotate(-10.86)"
         height="1.17"
         width="15.02"
         y="116.7"
         x="82.44"
         class="cls-9" />
      <rect
         id="rect661"
         transform="matrix(0.98, -0.19, 0.19, 0.98, -21.11, 19.23)"
         height="1.17"
         width="15.02"
         y="120.1"
         x="83.09"
         class="cls-9" />
      <rect
         id="rect663"
         transform="translate(-21.74 19.41) rotate(-10.86)"
         height="1.17"
         width="15.02"
         y="123.5"
         x="83.74"
         class="cls-9" />
      <rect
         id="rect665"
         transform="translate(-17.64 21.79) rotate(-10.86)"
         height="1.17"
         width="15.02"
         y="103.09"
         x="98.29"
         class="cls-9" />
      <rect
         id="rect667"
         transform="translate(-18.26 21.97) rotate(-10.86)"
         height="1.17"
         width="15.02"
         y="106.49"
         x="98.94"
         class="cls-9" />
      <rect
         id="rect669"
         transform="translate(-18.89 22.15) rotate(-10.86)"
         height="1.17"
         width="15.02"
         y="109.89"
         x="99.59"
         class="cls-9" />
      <rect
         id="rect671"
         transform="translate(-19.52 22.34) rotate(-10.86)"
         height="1.17"
         width="15.02"
         y="113.29"
         x="100.24"
         class="cls-9" />
      <rect
         id="rect673"
         transform="translate(-20.15 22.52) rotate(-10.86)"
         height="1.17"
         width="15.02"
         y="116.69"
         x="100.9"
         class="cls-9" />
      <rect
         id="rect675"
         transform="translate(-20.78 22.71) rotate(-10.86)"
         height="1.17"
         width="15.02"
         y="120.08"
         x="101.55"
         class="cls-9" />
      <rect
         id="rect677"
         transform="translate(15.76 -15.98) rotate(7.25)"
         height="53.33"
         width="42.52"
         y="89.68"
         x="112.73"
         class="cls-7" />
      <rect
         id="rect679"
         transform="translate(13.08 -16.5) rotate(7.25)"
         height="2.33"
         width="27.16"
         y="93.81"
         x="123.13"
         class="cls-9" />
      <rect
         id="rect681"
         transform="translate(16.99 -15.75) rotate(7.25)"
         height="2.33"
         width="27.16"
         y="124.99"
         x="119.16"
         class="cls-9" />
      <rect
         id="rect683"
         transform="matrix(0.99, 0.13, -0.13, 0.99, 17.57, -15.63)"
         height="2.33"
         width="27.16"
         y="129.65"
         x="118.57"
         class="cls-9" />
      <rect
         id="rect685"
         transform="translate(18.15 -15.52) rotate(7.25)"
         height="2.33"
         width="27.16"
         y="134.3"
         x="117.98"
         class="cls-9" />
      <rect
         id="rect687"
         transform="translate(13.45 -16.43) rotate(7.25)"
         height="1.17"
         width="13.57"
         y="97.3"
         x="129.55"
         class="cls-9" />
      <rect
         id="rect689"
         transform="translate(13.98 -15.21) rotate(7.25)"
         height="1.17"
         width="15.02"
         y="102.09"
         x="119.53"
         class="cls-9" />
      <rect
         id="rect691"
         transform="translate(14.41 -15.13) rotate(7.25)"
         height="1.17"
         width="15.02"
         y="105.52"
         x="119.09"
         class="cls-9" />
      <rect
         id="rect693"
         transform="translate(14.84 -15.05) rotate(7.25)"
         height="1.17"
         width="15.02"
         y="108.96"
         x="118.65"
         class="cls-9" />
      <rect
         id="rect695"
         transform="translate(15.27 -14.97) rotate(7.25)"
         height="1.17"
         width="15.02"
         y="112.39"
         x="118.22"
         class="cls-9" />
      <rect
         id="rect697"
         transform="translate(15.7 -14.88) rotate(7.25)"
         height="1.17"
         width="15.02"
         y="115.82"
         x="117.78"
         class="cls-9" />
      <rect
         id="rect699"
         transform="translate(16.13 -14.8) rotate(7.25)"
         height="1.17"
         width="15.02"
         y="119.26"
         x="117.34"
         class="cls-9" />
      <rect
         id="rect701"
         transform="translate(14.41 -17.47) rotate(7.25)"
         height="1.17"
         width="15.02"
         y="104.38"
         x="137.51"
         class="cls-9" />
      <rect
         id="rect703"
         transform="translate(14.84 -17.38) rotate(7.25)"
         height="1.17"
         width="15.02"
         y="107.81"
         x="137.08"
         class="cls-9" />
      <rect
         id="rect705"
         transform="translate(15.27 -17.3) rotate(7.25)"
         height="1.17"
         width="15.02"
         y="111.25"
         x="136.64"
         class="cls-9" />
      <rect
         id="rect707"
         transform="translate(15.7 -17.22) rotate(7.25)"
         height="1.17"
         width="15.02"
         y="114.68"
         x="136.2"
         class="cls-9" />
      <rect
         id="rect709"
         transform="translate(16.13 -17.14) rotate(7.25)"
         height="1.17"
         width="15.02"
         y="118.11"
         x="135.77"
         class="cls-9" />
      <rect
         id="rect711"
         transform="matrix(0.99, 0.13, -0.13, 0.99, 16.56, -17.05)"
         height="1.17"
         width="15.02"
         y="121.55"
         x="135.33"
         class="cls-9" />
      <path
         id="path713"
         d="M157.49,184.4l-78.7.92a3.78,3.78,0,0,1-3.8-3.27L68,131.74a3.79,3.79,0,0,1,3.71-4.32l91.42-1.07a3.8,3.8,0,0,1,3.81,4.23L161.21,181A3.78,3.78,0,0,1,157.49,184.4Z"
         class="cls-10" />
      <path
         id="path715"
         d="M157.5,185.51l-78.7.93a3.79,3.79,0,0,1-3.8-3.28l-7-50.31a3.79,3.79,0,0,1,3.71-4.31l91.42-1.07a3.79,3.79,0,0,1,3.81,4.22l-5.76,50.46A3.8,3.8,0,0,1,157.5,185.51Z"
         class="cls-11" />
    </g>
  </g>
</svg>
