<?xml version="1.0" encoding="UTF-8" standalone="no"?>
<svg
   xmlns:dc="http://purl.org/dc/elements/1.1/"
   xmlns:cc="http://creativecommons.org/ns#"
   xmlns:rdf="http://www.w3.org/1999/02/22-rdf-syntax-ns#"
   xmlns:svg="http://www.w3.org/2000/svg"
   xmlns="http://www.w3.org/2000/svg"
   xmlns:sodipodi="http://sodipodi.sourceforge.net/DTD/sodipodi-0.dtd"
   xmlns:inkscape="http://www.inkscape.org/namespaces/inkscape"
   sodipodi:docname="assessment-form.svg"
   inkscape:version="1.0beta2 (2b71d25, 2019-12-03)"
   id="svg303"
   version="1.1"
   viewBox="0 0 150 53.440617"
   height="53.440617mm"
   width="150mm">
  <defs
     id="defs297">
    <style
       id="style615">.cls-1{isolation:isolate;}.cls-2{fill:#c5eace;}.cls-3{font-size:29.84px;fill:#549e67;font-family:Andor-PersonalUse, Andor;}.cls-4{letter-spacing:-0.02em;}.cls-5{letter-spacing:-0.04em;}.cls-6{fill:#69a378;}.cls-7{fill:#eeeded;}.cls-8{fill:#d6e1eb;opacity:0.42;mix-blend-mode:multiply;}.cls-9{fill:#d0d1d2;}.cls-10{fill:#ffff6c;}.cls-11{fill:#81c194;}</style>
  </defs>
  <sodipodi:namedview
     inkscape:window-maximized="0"
     inkscape:window-y="23"
     inkscape:window-x="0"
     inkscape:window-height="755"
     inkscape:window-width="1280"
     showgrid="false"
     inkscape:document-rotation="0"
     inkscape:current-layer="layer1"
     inkscape:document-units="mm"
     inkscape:cy="555.59511"
     inkscape:cx="280.10613"
     inkscape:zoom="0.35"
     inkscape:pageshadow="2"
     inkscape:pageopacity="0.0"
     borderopacity="1.0"
     bordercolor="#666666"
     pagecolor="#ffffff"
     id="base" />
  <metadata
     id="metadata300">
    <rdf:RDF>
      <cc:Work
         rdf:about="">
        <dc:format>image/svg+xml</dc:format>
        <dc:type
           rdf:resource="http://purl.org/dc/dcmitype/StillImage" />
        <dc:title></dc:title>
      </cc:Work>
    </rdf:RDF>
  </metadata>
  <g
     transform="translate(-31.721919,-1.1654617)"
     id="layer1"
     inkscape:groupmode="layer"
     inkscape:label="Capa 1">
    <g
       transform="matrix(0.41642113,0,0,0.41642113,18.98895,-23.123091)"
       style="isolation:isolate"
       id="Character">
      <path
         inkscape:connector-curvature="0"
         class="cls-2"
         d="m 51.74,186.29 c 0,0 -34.74,-34.58 -15.2,-81.29 9.4,-22.43 34.42,-27.69 42,-23.1 10,6 23.27,-10.3 51.94,-21.52 21.52,-8.47 70.35,8.73 54.46,61.62 -8.94,29.7 22.16,24.7 22.32,56.26 a 8.36,8.36 0 0 1 -8.36,8.4 z"
         id="path621" />
      <text
         class="cls-3"
         transform="translate(213.29,136.46)"
         id="text631"><tspan
           class="cls-4"
           id="tspan623">A</tspan><tspan
           x="20.65"
           y="0"
           id="tspan625"
           dy="0 0">ssessment</tspan><tspan
           class="cls-5"
           x="0"
           y="35.810001"
           id="tspan627">F</tspan><tspan
           x="16.290001"
           y="35.810001"
           id="tspan629">orm</tspan></text>
      <path
         inkscape:connector-curvature="0"
         class="cls-6"
         d="m 98.85,110.79 -23.37,0.28 a 3.47,3.47 0 0 0 -3.4,4 l 6.36,46.09 a 3.48,3.48 0 0 0 3.48,3 l 72.1,-0.85 a 3.47,3.47 0 0 0 3.41,-3.08 l 4.4,-39.84 a 2.31,2.31 0 0 0 -2.33,-2.58 l -54.94,0.64 -2,-5.45 a 4.26,4.26 0 0 0 -3.71,-2.21 z"
         id="path633" />
      <path
         inkscape:connector-curvature="0"
         class="cls-6"
         d="m 98.86,111.91 -23.37,0.27 a 3.48,3.48 0 0 0 -3.4,3.95 l 5.07,46.11 81.58,-1 3.11,-39.83 a 2.32,2.32 0 0 0 -2.34,-2.58 l -54.94,0.64 -2,-5.45 a 4.24,4.24 0 0 0 -3.71,-2.11 z"
         id="path635" />
      <polygon
         class="cls-6"
         points="77.16,162.24 158.74,161.28 161.67,123.72 73.04,124.76 "
         id="polygon637" />
      <rect
         class="cls-7"
         x="77.589996"
         y="91.25"
         width="42.52"
         height="53.330002"
         transform="rotate(-10.86,98.820832,117.88042)"
         id="rect639" />
      <polygon
         class="cls-8"
         points="124.75,140.1 114.71,87.72 114.07,87.85 107.45,139.84 118.68,141.26 "
         id="polygon641" />
      <rect
         class="cls-9"
         x="81.209999"
         y="95.599998"
         width="27.16"
         height="2.3299999"
         transform="rotate(-10.86,94.779375,96.743623)"
         id="rect643" />
      <rect
         class="cls-9"
         x="87.139999"
         y="126.47"
         width="27.16"
         height="2.3299999"
         transform="rotate(-10.86,100.70866,127.61351)"
         id="rect645" />
      <rect
         class="cls-9"
         x="88.019997"
         y="131.08"
         width="27.16"
         height="2.3299999"
         transform="rotate(-10.86,101.59867,132.20955)"
         id="rect647" />
      <rect
         class="cls-9"
         x="88.900002"
         y="135.69"
         width="27.16"
         height="2.3299999"
         transform="rotate(-10.86,102.48368,136.85819)"
         id="rect649" />
      <rect
         class="cls-9"
         x="88.559998"
         y="99.059998"
         width="13.57"
         height="1.17"
         transform="matrix(0.98,-0.19,0.19,0.98,-17.06,19.75)"
         id="rect651" />
      <rect
         class="cls-9"
         x="80.480003"
         y="106.51"
         width="15.02"
         height="1.17"
         transform="rotate(-10.86,87.95832,107.08193)"
         id="rect653" />
      <rect
         class="cls-9"
         x="81.129997"
         y="109.91"
         width="15.02"
         height="1.17"
         transform="rotate(-10.86,88.64273,110.49076)"
         id="rect655" />
      <rect
         class="cls-9"
         x="81.790001"
         y="113.3"
         width="15.02"
         height="1.17"
         transform="rotate(-10.86,89.274539,113.89459)"
         id="rect657" />
      <rect
         class="cls-9"
         x="82.440002"
         y="116.7"
         width="15.02"
         height="1.17"
         transform="rotate(-10.86,89.911348,117.24582)"
         id="rect659" />
      <rect
         class="cls-9"
         x="83.089996"
         y="120.1"
         width="15.02"
         height="1.17"
         transform="matrix(0.98,-0.19,0.19,0.98,-21.11,19.23)"
         id="rect661" />
      <rect
         class="cls-9"
         x="83.739998"
         y="123.5"
         width="15.02"
         height="1.17"
         transform="rotate(-10.86,91.227566,124.05848)"
         id="rect663" />
      <rect
         class="cls-9"
         x="98.290001"
         y="103.09"
         width="15.02"
         height="1.17"
         transform="rotate(-10.86,105.79648,103.68228)"
         id="rect665" />
      <rect
         class="cls-9"
         x="98.940002"
         y="106.49"
         width="15.02"
         height="1.17"
         transform="rotate(-10.86,106.43329,107.03351)"
         id="rect667" />
      <rect
         class="cls-9"
         x="99.589996"
         y="109.89"
         width="15.02"
         height="1.17"
         transform="rotate(-10.86,107.0651,110.43734)"
         id="rect669" />
      <rect
         class="cls-9"
         x="100.24"
         y="113.29"
         width="15.02"
         height="1.17"
         transform="rotate(-10.86,107.74951,113.84617)"
         id="rect671" />
      <rect
         class="cls-9"
         x="100.9"
         y="116.69"
         width="15.02"
         height="1.17"
         transform="rotate(-10.86,108.38132,117.25)"
         id="rect673" />
      <rect
         class="cls-9"
         x="101.55"
         y="120.08"
         width="15.02"
         height="1.17"
         transform="rotate(-10.86,109.06573,120.65883)"
         id="rect675" />
      <rect
         class="cls-7"
         x="112.73"
         y="89.68"
         width="42.52"
         height="53.330002"
         transform="rotate(7.25,133.99925,116.39294)"
         id="rect677" />
      <rect
         class="cls-9"
         x="123.13"
         y="93.809998"
         width="27.16"
         height="2.3299999"
         transform="rotate(7.25,136.76326,94.981528)"
         id="rect679" />
      <rect
         class="cls-9"
         x="119.16"
         y="124.99"
         width="27.16"
         height="2.3299999"
         transform="rotate(7.25,132.79902,126.21549)"
         id="rect681" />
      <rect
         class="cls-9"
         x="118.57"
         y="129.64999"
         width="27.16"
         height="2.3299999"
         transform="matrix(0.99,0.13,-0.13,0.99,17.57,-15.63)"
         id="rect683" />
      <rect
         class="cls-9"
         x="117.98"
         y="134.3"
         width="27.16"
         height="2.3299999"
         transform="rotate(7.25,131.56379,135.48558)"
         id="rect685" />
      <rect
         class="cls-9"
         x="129.55"
         y="97.300003"
         width="13.57"
         height="1.17"
         transform="rotate(7.25,136.3958,97.936686)"
         id="rect687" />
      <rect
         class="cls-9"
         x="119.53"
         y="102.09"
         width="15.02"
         height="1.17"
         transform="rotate(7.25,127.03217,102.72961)"
         id="rect689" />
      <rect
         class="cls-9"
         x="119.09"
         y="105.52"
         width="15.02"
         height="1.17"
         transform="rotate(7.25,126.61578,106.16331)"
         id="rect691" />
      <rect
         class="cls-9"
         x="118.65"
         y="108.96"
         width="15.02"
         height="1.17"
         transform="rotate(7.25,126.1994,109.59701)"
         id="rect693" />
      <rect
         class="cls-9"
         x="118.22"
         y="112.39"
         width="15.02"
         height="1.17"
         transform="rotate(7.25,125.78301,113.03071)"
         id="rect695" />
      <rect
         class="cls-9"
         x="117.78"
         y="115.82"
         width="15.02"
         height="1.17"
         transform="rotate(7.25,125.2877,116.4694)"
         id="rect697" />
      <rect
         class="cls-9"
         x="117.34"
         y="119.26"
         width="15.02"
         height="1.17"
         transform="rotate(7.25,124.87132,119.9031)"
         id="rect699" />
      <rect
         class="cls-9"
         x="137.50999"
         y="104.38"
         width="15.02"
         height="1.17"
         transform="rotate(7.25,145.08381,104.99331)"
         id="rect701" />
      <rect
         class="cls-9"
         x="137.08"
         y="107.81"
         width="15.02"
         height="1.17"
         transform="rotate(7.25,144.5885,108.43201)"
         id="rect703" />
      <rect
         class="cls-9"
         x="136.64"
         y="111.25"
         width="15.02"
         height="1.17"
         transform="rotate(7.25,144.17211,111.86571)"
         id="rect705" />
      <rect
         class="cls-9"
         x="136.2"
         y="114.68"
         width="15.02"
         height="1.17"
         transform="rotate(7.25,143.75573,115.2994)"
         id="rect707" />
      <rect
         class="cls-9"
         x="135.77"
         y="118.11"
         width="15.02"
         height="1.17"
         transform="rotate(7.25,143.33934,118.7331)"
         id="rect709" />
      <rect
         class="cls-9"
         x="135.33"
         y="121.55"
         width="15.02"
         height="1.17"
         transform="matrix(0.99,0.13,-0.13,0.99,16.56,-17.05)"
         id="rect711" />
      <path
         inkscape:connector-curvature="0"
         class="cls-10"
         d="m 157.49,184.4 -78.7,0.92 a 3.78,3.78 0 0 1 -3.8,-3.27 L 68,131.74 a 3.79,3.79 0 0 1 3.71,-4.32 l 91.42,-1.07 a 3.8,3.8 0 0 1 3.81,4.23 L 161.21,181 a 3.78,3.78 0 0 1 -3.72,3.4 z"
         id="path713" />
      <path
         inkscape:connector-curvature="0"
         class="cls-11"
         d="m 157.5,185.51 -78.7,0.93 A 3.79,3.79 0 0 1 75,183.16 l -7,-50.31 a 3.79,3.79 0 0 1 3.71,-4.31 l 91.42,-1.07 a 3.79,3.79 0 0 1 3.81,4.22 l -5.76,50.46 a 3.8,3.8 0 0 1 -3.68,3.36 z"
         id="path715" />
    </g>
  </g>
</svg>
