<?xml version="1.0" encoding="UTF-8" standalone="no"?>
<svg
   xmlns:dc="http://purl.org/dc/elements/1.1/"
   xmlns:cc="http://creativecommons.org/ns#"
   xmlns:rdf="http://www.w3.org/1999/02/22-rdf-syntax-ns#"
   xmlns:svg="http://www.w3.org/2000/svg"
   xmlns="http://www.w3.org/2000/svg"
   xmlns:xlink="http://www.w3.org/1999/xlink"
   xmlns:sodipodi="http://sodipodi.sourceforge.net/DTD/sodipodi-0.dtd"
   xmlns:inkscape="http://www.inkscape.org/namespaces/inkscape"
   inkscape:version="1.0beta2 (2b71d25, 2019-12-03)"
   sodipodi:docname="consultant.svg"
   id="svg1329"
   version="1.1"
   viewBox="0 0 447.91 270.19">
  <metadata
     id="metadata1333">
    <rdf:RDF>
      <cc:Work
         rdf:about="">
        <dc:format>image/svg+xml</dc:format>
        <dc:type
           rdf:resource="http://purl.org/dc/dcmitype/StillImage" />
        <dc:title>FORM</dc:title>
      </cc:Work>
    </rdf:RDF>
  </metadata>
  <sodipodi:namedview
     inkscape:current-layer="svg1329"
     inkscape:window-maximized="1"
     inkscape:window-y="23"
     inkscape:window-x="0"
     inkscape:cy="135.095"
     inkscape:cx="223.955"
     inkscape:zoom="2.0245013"
     showgrid="false"
     id="namedview1331"
     inkscape:window-height="755"
     inkscape:window-width="1280"
     inkscape:pageshadow="2"
     inkscape:pageopacity="0"
     guidetolerance="10"
     gridtolerance="10"
     objecttolerance="10"
     borderopacity="1"
     inkscape:document-rotation="0"
     bordercolor="#666666"
     pagecolor="#ffffff" />
  <defs
     id="defs1138">
    <style
       id="style1127">.cls-1{fill:none;}.cls-2{fill:#768eb5;opacity:0.45;}.cls-3{fill:url(#linear-gradient);}.cls-4{fill:#d8d6e1;}.cls-5{fill:#23232c;}.cls-6{fill:#dba686;}.cls-7{fill:#b21c27;}.cls-8{fill:#c1bfc9;}.cls-9{fill:#dca787;}.cls-10{fill:#dba585;}.cls-11{fill:#1f2531;}.cls-12{fill:#997761;}.cls-13{fill:#293260;}.cls-14{fill:#7e7bc9;}.cls-15{fill:#242c6e;}.cls-16{clip-path:url(#clip-path);}.cls-17{fill:#a5c9fc;}.cls-18{fill:#a4c8fc;}.cls-19{fill:#a3c7fc;}.cls-20{fill:#a2c7fc;}.cls-21{fill:#a1c6fc;}.cls-22{fill:#a0c5fc;}.cls-23{fill:#9fc4fc;}.cls-24{fill:#9ec3fc;}.cls-25{fill:#9dc2fc;}.cls-26{fill:#9cc1fc;}.cls-27{fill:#9bc0fc;}.cls-28{fill:#9ac0fc;}.cls-29{fill:#99bffc;}.cls-30{fill:#98befc;}.cls-31{fill:#97bdfc;}.cls-32{fill:#96bcfc;}.cls-33{fill:#95bbfc;}.cls-34{fill:#94bafc;}.cls-35{fill:#93b9fc;}.cls-36{fill:#92b9fc;}.cls-37{fill:#91b8fc;}.cls-38{fill:#90b7fc;}.cls-39{fill:#8fb6fc;}.cls-40{fill:#8eb5fb;}.cls-41{fill:#8db4fb;}.cls-42{fill:#8cb3fb;}.cls-43{fill:#8bb1fb;}.cls-44{fill:#8ab1fb;}.cls-45{fill:#89b0fb;}.cls-46{fill:#88affb;}.cls-47{fill:#87aefb;}.cls-48{fill:#86adfb;}.cls-49{fill:#85adfb;}.cls-50{fill:#84acfb;}.cls-51{fill:#83abfb;}.cls-52{fill:#82aafb;}.cls-53{fill:#81a9fb;}.cls-54{fill:#80a8fb;}.cls-55{fill:#80a7fb;}.cls-56{fill:#7fa6fb;}.cls-57{fill:#7ea5fb;}.cls-58{fill:#7da4fb;}.cls-59{fill:#7ca3fb;}.cls-60{fill:#7ba3fb;}.cls-61{fill:#7aa2fb;}.cls-62{fill:#79a1fb;}.cls-63{fill:#78a0fb;}.cls-64{fill:#77a0fb;}.cls-65{fill:#769ffb;}.cls-66{fill:#759efb;}.cls-67{fill:#749dfb;}.cls-68{fill:#739cfb;}.cls-69{fill:#729bfb;}.cls-70{fill:#719afb;}.cls-71{fill:#7099fb;}.cls-72{fill:#6f99fb;}.cls-73{fill:#6e98fb;}.cls-74{fill:#6d97fb;}.cls-75{fill:url(#linear-gradient-2);}.cls-76{font-size:30px;fill:#18385e;font-family:Andor-PersonalUse, Andor;}.cls-77{letter-spacing:-0.02em;}</style>
    <linearGradient
       gradientUnits="userSpaceOnUse"
       gradientTransform="matrix(0.99, -0.1, 0.1, 0.99, 212.29, -745.88)"
       y2="851.31"
       x2="-208.65"
       y1="851.31"
       x1="-262.43"
       id="linear-gradient">
      <stop
         id="stop1129"
         stop-color="#a5c9fc"
         offset="0" />
      <stop
         id="stop1131"
         stop-color="#6d97fb"
         offset="1" />
    </linearGradient>
    <clipPath
       id="clip-path">
      <rect
         id="rect1134"
         height="2.04"
         width="155.32"
         y="186.34"
         x="38.59"
         class="cls-1" />
    </clipPath>
    <linearGradient
       xlink:href="#linear-gradient"
       gradientTransform="matrix(1, 0, 0, 1, 0, 0)"
       y2="165.58"
       x2="134.15"
       y1="165.58"
       x1="128.07"
       id="linear-gradient-2" />
  </defs>
  <title
     id="title1140">FORM</title>
  <g
     id="Character">
    <path
       id="path1142"
       d="M41.86,186.33s-33.12-34-14.47-80c9-22,32.79-27.23,40-22.72,9.53,5.95,22.16-10.12,49.47-21.16,20.53-8.3,67,8.62,51.87,60.65-9.18,31.57,26.15,23.26,20.67,63.6Z"
       class="cls-2" />
    <path
       id="path1144"
       d="M85.93,134.91a23,23,0,0,0,1.9-6.14l4.33-1.3-.46-4.89-.45-4.89-4.5-.48a22.76,22.76,0,0,0-3-5.68l2.14-4-3.78-3.14-3.78-3.14-3.52,2.84a23.33,23.33,0,0,0-6.14-1.89l-1.3-4.33-4.89.45-4.9.46-.47,4.5a22.76,22.76,0,0,0-5.68,3l-4-2.15-3.14,3.79-3.14,3.78L44,115.24a23.26,23.26,0,0,0-1.89,6.13l-4.33,1.3.45,4.9.46,4.89,4.5.48a23.24,23.24,0,0,0,3,5.68l-2.14,4,3.79,3.14,3.78,3.14L55.14,146a22.92,22.92,0,0,0,6.13,1.9l1.3,4.33,4.9-.46,4.89-.45.48-4.5a22.94,22.94,0,0,0,5.68-3l4,2.14,3.14-3.78,3.14-3.78Zm-28.65-.56a12.05,12.05,0,1,1,17-1.58A12.05,12.05,0,0,1,57.28,134.35Z"
       class="cls-3" />
    <path
       id="path1146"
       d="M114.67,139.61q.54-7.32.75-13.69c-1.17-.62-2.59-1.35-3.72-1.89-3.5-1.66-8.38-3.91-11.51-5.34-1.83-.85-3.63-1.46-3.63-1.46S84.05,116,83,116.09a32.52,32.52,0,0,0-3.93,1.35c-4.44,1.68-13,5.11-14.35,6.09-2,1.43-9.15,36.46-9.34,38.84s9.72,5.48,18.89,7.9c0,3.55-.07,8.53-.15,13.07,0,.77,0,1.54-.05,2.28h40.14c0-.78-.1-1.55-.14-2.28,0-.1,0-.19,0-.29-.15-3.07-.75-8.58-.6-14A48.57,48.57,0,0,1,114,161C114,150.25,114.67,139.61,114.67,139.61Zm-50.9,20.6c.07-4.56,6.14-13.05,6.14-13.05s.28-.12.28-.11a3.11,3.11,0,0,0,.32,0l.95-.89c.22.81,2.23,12.27,2.72,18.94C68.48,163.94,63.74,162.38,63.77,160.21Z"
       class="cls-4" />
    <path
       id="path1148"
       d="M115.41,183.34c-.26-1.9-.51-3.8-.74-5.66v0c-.08-.62-.15-1.23-.22-1.84,0,0,0-.06,0-.09-.29-2.56-.54-5-.71-7.27a23.52,23.52,0,0,1,.22-5c.7-11.5,1-23.63,1-23.63.36-5,.58-9.6.72-13.93,0,0-15.72-7.42-17.14-7.85,0,0,3,7,5.22,22.64.85,6,2.45,16.12,3.6,26.44h0c.63,5.57,1.8,11.25,2.69,16.27q.21,1.16.39,2.28h5.25C115.62,184.86,115.52,184.1,115.41,183.34Z"
       class="cls-5" />
    <path
       id="path1150"
       d="M89.25,164.86c.62-5.81,1.18-11.62.91-14.79C88,124.5,81.86,117.73,81,116.74l-4.07,1.55C72.71,119.94,64.16,123,63,123.8c-2,1.43-9.87,38.16-10.11,40.53-.16,1.61,10.12,5,20.6,8-.09,2.87.18,6.93-.78,11.16a10.46,10.46,0,0,0-.45,2.22l14.62,0,.27-2.28c.28-2.29.57-4.63.86-7.11,4.38,1.13,7.36,1.86,7.36,1.86s4.12-7,5.32-9.78C100.9,167.83,95.6,166.56,89.25,164.86Zm-18.9-8.8c-.14-5.23-.11-8.88-.11-8.88.51,1.79,1.23,6.92,1.86,12C70,158.12,70.38,157.12,70.35,156.06Z"
       class="cls-5" />
    <path
       id="path1152"
       d="M82.38,116.49s1.59-3,1.15-11.54c-.12-2.37,12.42,5.61,12.42,5.61s0,.81-.07,1.91c0,.46,0,1,0,1.48v.43c0,.23,0,.46,0,.69s0,.57,0,.84,0,.6.07.86a7.77,7.77,0,0,0,.46,1.68C97,119.78,87.07,119.85,82.38,116.49Z"
       class="cls-6" />
    <path
       id="path1154"
       d="M92.9,121.92,95.21,125a2.81,2.81,0,0,1-3.76.48Z"
       class="cls-7" />
    <path
       id="path1156"
       d="M94.59,125.16a115.58,115.58,0,0,1,6.66,47L98.58,177l-3-4.13s-.49-34.9-2.89-47.77Z"
       class="cls-7" />
    <path
       id="path1158"
       d="M95.37,119l-2.47,2.89s-4-.77-5.14-2.84S95.37,119,95.37,119Z"
       class="cls-6" />
    <path
       id="path1160"
       d="M95.94,116.49s-.29,2.21-3,5.43l3,4,1.63-8.39Z"
       class="cls-8" />
    <path
       id="path1162"
       d="M83.13,113.84s5.75,6.5,9.77,8.08L91,126.54l-9.17-10.11Z"
       class="cls-8" />
    <path
       id="path1164"
       d="M142.19,172.63s-7.62-7.4-12.62-8.63c-2.32-.57-5.36-3.76-8.26-7.51-1-1.24-1.89-2.53-2.78-3.82h0c-3.55-5.13-6.33-10-6.33-10s-10.49-12.3-2.07-17.78c0,0,3.61-.08,5.59,1s6.37,10.17,7.11,11.78,8.71,16.5,9.24,16.84a22.69,22.69,0,0,0,4.62,3.28c3.9,2.1,10,8.25,10,8.25Z"
       class="cls-5" />
    <path
       id="path1166"
       d="M105.59,181.18a4.9,4.9,0,0,1-1.52-.28s-.8-.52-1.39-.84a3.51,3.51,0,0,0-.46-.24,8.79,8.79,0,0,1-2.56-1.22c-1-.76-4.28-3.82-4.28-3.82l2.12-3.25,1-3.22s7.62.76,8.64,1.37a2.68,2.68,0,0,1,.28.18,11.53,11.53,0,0,1,1.55,1.74c.15.14,1.47,1.56,1.4,2.13a1.91,1.91,0,0,1-1,1.56,4.5,4.5,0,0,1-1.08,2.25,2.82,2.82,0,0,1-1.45,2S106.45,181,105.59,181.18Z"
       class="cls-9" />
    <path
       id="path1168"
       d="M93.45,82.92S107.23,79.6,104.33,97s-6.21,18.86-14.6,15.38-7.81-14.63-8.31-20.09S89.05,83.18,93.45,82.92Z"
       class="cls-10" />
    <path
       id="path1170"
       d="M86.22,95c-.21-1.53-3.25-2-3.46.26s1.47,6.31,2.62,5.9S86.5,97.11,86.22,95Z"
       class="cls-10" />
    <path
       id="path1172"
       d="M82.23,101.25s.27-5.49,2.27-5.69,2.34,2,2.34,2l2,.35s-.71-4.79,1.27-5.66,13,2.46,14.58,1,.68-11.16-2.24-12.45-11-4.17-16.79-.11c0,0-4.58-.45-5.21,3.25S80.94,98.52,82.23,101.25Z"
       class="cls-11" />
    <path
       id="path1174"
       d="M101.07,168.31l-5.69,9.78s-15.06-3.88-18.58-4.87l8-9.57S96.69,166.36,101.07,168.31Z"
       class="cls-5" />
    <path
       id="path1176"
       d="M95.9,115.91h0a13.15,13.15,0,0,1-10.25-6.44A15.23,15.23,0,0,0,95.86,114v.43c0,.23,0,.46,0,.69S95.89,115.64,95.9,115.91Z"
       class="cls-12" />
    <path
       id="path1178"
       d="M111.76,160.28c8.57,8.82,19.88,19.92,19.88,19.92l4.42-8.4S126,160,119.2,152.16A14.3,14.3,0,0,0,111.76,160.28Z"
       class="cls-10" />
    <path
       id="path1180"
       d="M106.47,172.13a25.9,25.9,0,0,1,2.91,1.61c.6.5,3,2.33,3.63,2.76s-.89,1.65-5.25-.24S106.47,172.13,106.47,172.13Z"
       class="cls-10" />
    <polygon
       id="polygon1182"
       points="106.67 146.9 102.66 184.26 155.55 184.26 159.56 146.9 106.67 146.9"
       class="cls-13" />
    <path
       id="path1184"
       d="M158.57,182.54H105.26l4.06-37.77h53.31Zm-52.85-.41H158.2l4-36.95H109.69Z"
       class="cls-14" />
    <rect
       id="rect1186"
       transform="translate(205.73 365.17) rotate(180)"
       height="3.36"
       width="8.83"
       y="180.9"
       x="98.45"
       class="cls-15" />
    <g
       id="g1318"
       clip-path="url(#clip-path)"
       class="cls-16">
      <rect
         id="rect1188"
         height="2.04"
         width="2.39"
         y="186.34"
         x="38.59"
         class="cls-17" />
      <rect
         id="rect1190"
         height="2.04"
         width="2.39"
         y="186.34"
         x="40.98"
         class="cls-18" />
      <rect
         id="rect1192"
         height="2.04"
         width="2.39"
         y="186.34"
         x="43.37"
         class="cls-19" />
      <rect
         id="rect1194"
         height="2.04"
         width="2.39"
         y="186.34"
         x="45.76"
         class="cls-20" />
      <rect
         id="rect1196"
         height="2.04"
         width="2.39"
         y="186.34"
         x="48.15"
         class="cls-21" />
      <rect
         id="rect1198"
         height="2.04"
         width="2.39"
         y="186.34"
         x="50.54"
         class="cls-22" />
      <rect
         id="rect1200"
         height="2.04"
         width="2.39"
         y="186.34"
         x="52.93"
         class="cls-23" />
      <rect
         id="rect1202"
         height="2.04"
         width="2.39"
         y="186.34"
         x="55.32"
         class="cls-23" />
      <rect
         id="rect1204"
         height="2.04"
         width="2.39"
         y="186.34"
         x="57.71"
         class="cls-24" />
      <rect
         id="rect1206"
         height="2.04"
         width="2.39"
         y="186.34"
         x="60.1"
         class="cls-25" />
      <rect
         id="rect1208"
         height="2.04"
         width="2.39"
         y="186.34"
         x="62.49"
         class="cls-26" />
      <rect
         id="rect1210"
         height="2.04"
         width="2.39"
         y="186.34"
         x="64.88"
         class="cls-27" />
      <rect
         id="rect1212"
         height="2.04"
         width="2.39"
         y="186.34"
         x="67.27"
         class="cls-28" />
      <rect
         id="rect1214"
         height="2.04"
         width="2.39"
         y="186.34"
         x="69.66"
         class="cls-29" />
      <rect
         id="rect1216"
         height="2.04"
         width="2.39"
         y="186.34"
         x="72.05"
         class="cls-30" />
      <rect
         id="rect1218"
         height="2.04"
         width="2.39"
         y="186.34"
         x="74.44"
         class="cls-31" />
      <rect
         id="rect1220"
         height="2.04"
         width="2.39"
         y="186.34"
         x="76.82"
         class="cls-31" />
      <rect
         id="rect1222"
         height="2.04"
         width="2.39"
         y="186.34"
         x="79.21"
         class="cls-32" />
      <rect
         id="rect1224"
         height="2.04"
         width="2.39"
         y="186.34"
         x="81.6"
         class="cls-33" />
      <rect
         id="rect1226"
         height="2.04"
         width="2.39"
         y="186.34"
         x="83.99"
         class="cls-34" />
      <rect
         id="rect1228"
         height="2.04"
         width="2.39"
         y="186.34"
         x="86.38"
         class="cls-35" />
      <rect
         id="rect1230"
         height="2.04"
         width="2.39"
         y="186.34"
         x="88.77"
         class="cls-36" />
      <rect
         id="rect1232"
         height="2.04"
         width="2.39"
         y="186.34"
         x="91.16"
         class="cls-37" />
      <rect
         id="rect1234"
         height="2.04"
         width="2.39"
         y="186.34"
         x="93.55"
         class="cls-38" />
      <rect
         id="rect1236"
         height="2.04"
         width="2.39"
         y="186.34"
         x="95.94"
         class="cls-39" />
      <rect
         id="rect1238"
         height="2.04"
         width="2.39"
         y="186.34"
         x="98.33"
         class="cls-40" />
      <rect
         id="rect1240"
         height="2.04"
         width="2.39"
         y="186.34"
         x="100.72"
         class="cls-40" />
      <rect
         id="rect1242"
         height="2.04"
         width="2.39"
         y="186.34"
         x="103.11"
         class="cls-41" />
      <rect
         id="rect1244"
         height="2.04"
         width="2.39"
         y="186.34"
         x="105.5"
         class="cls-42" />
      <rect
         id="rect1246"
         height="2.04"
         width="2.39"
         y="186.34"
         x="107.89"
         class="cls-43" />
      <rect
         id="rect1248"
         height="2.04"
         width="2.39"
         y="186.34"
         x="110.28"
         class="cls-44" />
      <rect
         id="rect1250"
         height="2.04"
         width="2.39"
         y="186.34"
         x="112.67"
         class="cls-45" />
      <rect
         id="rect1252"
         height="2.04"
         width="2.39"
         y="186.34"
         x="115.06"
         class="cls-46" />
      <rect
         id="rect1254"
         height="2.04"
         width="2.39"
         y="186.34"
         x="117.45"
         class="cls-47" />
      <rect
         id="rect1256"
         height="2.04"
         width="2.39"
         y="186.34"
         x="119.84"
         class="cls-48" />
      <rect
         id="rect1258"
         height="2.04"
         width="2.39"
         y="186.34"
         x="122.22"
         class="cls-49" />
      <rect
         id="rect1260"
         height="2.04"
         width="2.39"
         y="186.34"
         x="124.61"
         class="cls-50" />
      <rect
         id="rect1262"
         height="2.04"
         width="2.39"
         y="186.34"
         x="127"
         class="cls-51" />
      <rect
         id="rect1264"
         height="2.04"
         width="2.39"
         y="186.34"
         x="129.39"
         class="cls-52" />
      <rect
         id="rect1266"
         height="2.04"
         width="2.39"
         y="186.34"
         x="131.78"
         class="cls-52" />
      <rect
         id="rect1268"
         height="2.04"
         width="2.39"
         y="186.34"
         x="134.17"
         class="cls-53" />
      <rect
         id="rect1270"
         height="2.04"
         width="2.39"
         y="186.34"
         x="136.56"
         class="cls-54" />
      <rect
         id="rect1272"
         height="2.04"
         width="2.39"
         y="186.34"
         x="138.95"
         class="cls-55" />
      <rect
         id="rect1274"
         height="2.04"
         width="2.39"
         y="186.34"
         x="141.34"
         class="cls-56" />
      <rect
         id="rect1276"
         height="2.04"
         width="2.39"
         y="186.34"
         x="143.73"
         class="cls-56" />
      <rect
         id="rect1278"
         height="2.04"
         width="2.39"
         y="186.34"
         x="146.12"
         class="cls-57" />
      <rect
         id="rect1280"
         height="2.04"
         width="2.39"
         y="186.34"
         x="148.51"
         class="cls-58" />
      <rect
         id="rect1282"
         height="2.04"
         width="2.39"
         y="186.34"
         x="150.9"
         class="cls-59" />
      <rect
         id="rect1284"
         height="2.04"
         width="2.39"
         y="186.34"
         x="153.29"
         class="cls-60" />
      <rect
         id="rect1286"
         height="2.04"
         width="2.39"
         y="186.34"
         x="155.68"
         class="cls-61" />
      <rect
         id="rect1288"
         height="2.04"
         width="2.39"
         y="186.34"
         x="158.07"
         class="cls-62" />
      <rect
         id="rect1290"
         height="2.04"
         width="2.39"
         y="186.34"
         x="160.46"
         class="cls-63" />
      <rect
         id="rect1292"
         height="2.04"
         width="2.39"
         y="186.34"
         x="162.85"
         class="cls-64" />
      <rect
         id="rect1294"
         height="2.04"
         width="2.39"
         y="186.34"
         x="165.24"
         class="cls-64" />
      <rect
         id="rect1296"
         height="2.04"
         width="2.39"
         y="186.34"
         x="167.62"
         class="cls-65" />
      <rect
         id="rect1298"
         height="2.04"
         width="2.39"
         y="186.34"
         x="170.01"
         class="cls-66" />
      <rect
         id="rect1300"
         height="2.04"
         width="2.39"
         y="186.34"
         x="172.4"
         class="cls-67" />
      <rect
         id="rect1302"
         height="2.04"
         width="2.39"
         y="186.34"
         x="174.79"
         class="cls-68" />
      <rect
         id="rect1304"
         height="2.04"
         width="2.39"
         y="186.34"
         x="177.18"
         class="cls-68" />
      <rect
         id="rect1306"
         height="2.04"
         width="2.39"
         y="186.34"
         x="179.57"
         class="cls-69" />
      <rect
         id="rect1308"
         height="2.04"
         width="2.39"
         y="186.34"
         x="181.96"
         class="cls-70" />
      <rect
         id="rect1310"
         height="2.04"
         width="2.39"
         y="186.34"
         x="184.35"
         class="cls-71" />
      <rect
         id="rect1312"
         height="2.04"
         width="2.39"
         y="186.34"
         x="186.74"
         class="cls-72" />
      <rect
         id="rect1314"
         height="2.04"
         width="2.39"
         y="186.34"
         x="189.13"
         class="cls-73" />
      <rect
         id="rect1316"
         height="2.04"
         width="2.39"
         y="186.34"
         x="191.52"
         class="cls-74" />
    </g>
    <path
       id="path1320"
       d="M128.17,165c-.42,2.08.55,4,2.17,4.37s3.28-1.09,3.71-3.17-.55-4-2.17-4.36S128.6,162.9,128.17,165Z"
       class="cls-75" />
    <text
       id="text1326"
       transform="translate(193.4,147.43)"
       class="cls-76">My Consultant<tspan
   id="tspan1324"
   y="0"
   x="172.32001" /></text>
  </g>
</svg>
