<svg xmlns="http://www.w3.org/2000/svg" viewBox="0 0 447.91 268.66"><defs><style>.cls-1{fill:#e9e6f4;}.cls-2{font-size:30px;fill:#63366b;font-family:Andor-PersonalUse, Andor;}.cls-3{fill:#6c4a72;}.cls-4{fill:#a7d9f5;}.cls-5{fill:#b29cd7;}.cls-6{fill:#e4d0f9;}.cls-7{fill:#895f8e;}.cls-8{fill:#5a554e;}.cls-9{fill:#404347;}.cls-10{fill:#838389;}.cls-11{fill:#dba585;}.cls-12{fill:#89735d;}.cls-13{fill:#dcd0c8;}.cls-14{fill:#545c8e;}.cls-15{fill:#b68264;}.cls-16{fill:#cc9b7e;}</style></defs><title>FORM</title><g id="Character"><path class="cls-1" d="M50.79,190.78S6.19,146.43,31.31,86.49C43.36,57.73,75.45,51,85.18,56.86,98,64.62,115,43.66,151.8,29.27c27.64-10.82,90.2,11.24,69.83,79.08-11.44,38.08,28.42,31.66,28.62,72.13a10.73,10.73,0,0,1-10.72,10.78Z"/><text class="cls-2" transform="translate(253.93 131.72)">Documents</text><path class="cls-3" d="M151.54,185.7,144,112.43a6.51,6.51,0,0,0-6.47-5.84H126.82l-.84-4.52H111.4l-2.1,4.52H60.19a5.8,5.8,0,0,0-5.77,6.31l6.36,72.86A4.66,4.66,0,0,0,65.42,190h82.23A3.91,3.91,0,0,0,151.54,185.7Z"/><polygon class="cls-4" points="65.66 182.41 57.81 111.41 151.56 106.7 146.4 182.41 65.66 182.41"/><polygon class="cls-5" points="65.66 187.12 62.21 114.55 154.7 111.41 153.13 182.02 65.66 187.12"/><path class="cls-6" d="M66.83,174.55c.19-.5,0-53.72,0-53.72h96.89L150,182Z"/><path class="cls-7" d="M177.23,123.27l-22.93,62a8.55,8.55,0,0,1-8,5.58H65.71a3.51,3.51,0,0,1-3.27-4.74l23.63-62.48a8.55,8.55,0,0,1,8-5.52h79.59A3.81,3.81,0,0,1,177.23,123.27Z"/><path class="cls-8" d="M218.49,190.22l.31-2.91s-4.11,0-4.59.31c0,0,.35,2.45.39,2.82S218.49,190.22,218.49,190.22Z"/><path class="cls-9" d="M211.5,196.32c4.89,0,7.25.29,7.78-.5s-.76-5.86-.76-5.86a10.34,10.34,0,0,1-4,.17,10.59,10.59,0,0,1-2.4,2.12c-1.17.64-3,.89-3.72,1.56C207.94,194.29,206.61,196.36,211.5,196.32Z"/><path class="cls-8" d="M191,190.22l.31-2.91s-4.11,0-4.59.31c0,0,.35,2.45.39,2.82S191,190.22,191,190.22Z"/><path class="cls-9" d="M184,196.32c4.89-.13,7.25.29,7.77-.5S191,190,191,190a9.31,9.31,0,0,1-3.95.17,10.59,10.59,0,0,1-2.4,2.12c-1.17.64-5.51,1.17-6.21,1.83C177.91,194.56,177.08,196.5,184,196.32Z"/><path class="cls-10" d="M212.84,124.4a36.16,36.16,0,0,1,1.78,11.31c-.27,5.24,1.06,11,1.6,16.44.6,6.1,3.08,20.54,3.17,23.8s-.39,13.68-.39,13.68l-4.95.11s-4.16-25.24-5.24-27.81-6.42-20.94-6.6-23S212.84,124.4,212.84,124.4Z"/><path class="cls-10" d="M192,125.48s-2.72,14.35-3.08,17.56-.6,15.51-.78,17.51S187,186.77,186,189.74h6.33s4.86-17.6,4.86-25.92,3.76-18.11,6.19-23.6,8-5.63,9.46-15.82C212.84,124.4,194,122.25,192,125.48Z"/><path class="cls-11" d="M204.89,76.43s-5-1.87-7.3,1.93-2.08,11.41.44,12.35,6.29.45,7.58-1.93,2.46-5.82,2.4-8.12A5,5,0,0,0,204.89,76.43Z"/><path class="cls-11" d="M198.86,90.48a4.08,4.08,0,0,1-.13,2c-.33.65,6.28.66,6.28.66a43.85,43.85,0,0,1,1.56-6.47C207.59,83.66,198.86,90.48,198.86,90.48Z"/><path class="cls-12" d="M206.57,86.62s-.46.75-2.32.46-4.14-2.77-4.92-3-.78-.73-.78-.73l-.49.71-.82,0s.75-2.21-.39-3.12S198,73.77,204,75.86c0,0,4.28.85,4.54,3.45A11.78,11.78,0,0,1,206.57,86.62Z"/><path class="cls-13" d="M198.34,92.35s0-1.23.58-1.35,6.16-.65,6.85-.38v1.43S204.45,92.86,198.34,92.35Z"/><path class="cls-11" d="M198.67,82.36c.11-.44,1.22-1.69,1.65-.35s-.65,3.14-1.25,3S198.41,83.47,198.67,82.36Z"/><path class="cls-14" d="M198.34,92.35s-3.07,1.11-6.63,2.62a7.47,7.47,0,0,0-4.54,6c-.23,2.4-2.79,15.14-3.27,16.22s-6.14,18.39-6.34,18.75,4.62,2.36,4.94,2.2,5.49-15.79,6-17c0,0,3-9.37,3.05-10.77,0,0,.09,4,.24,5.1s-2.64,22.82-2.56,23.42,12.75,1.36,17.82.8a62.66,62.66,0,0,0,9.16-1.72s-4-17.13-3.87-19c.27-4.14,1.65-11.93,1.65-11.93l4.13,7.79-5.29,13.61,1.21,4.14s9.84-14.86,10.16-16.22-.49-3.08-1-4.2-3.93-9.62-4.73-10.82-2.15-6-5.41-7.33a50.49,50.49,0,0,0-7.3-2Z"/><rect class="cls-7" x="170.11" y="124.44" width="23.91" height="16.68" transform="matrix(0.97, 0.25, -0.25, 0.97, 38.68, -41.06)"/><path class="cls-15" d="M175.54,139.52s-.66,1.07-.91,1.38.6.49,1,.18S175.54,139.52,175.54,139.52Z"/><path class="cls-16" d="M180.36,143.17a2.63,2.63,0,0,0,.48-.66s.11-.49.22-.83a1.26,1.26,0,0,1,.09-.26,4.78,4.78,0,0,0,.53-1.41c.1-.66.39-3.63.39-3.63l-1.8-.45-1.44-.3s-3.11,3.1-3.28,3.71a1.22,1.22,0,0,0,0,.17,5.72,5.72,0,0,0,0,1.24c0,.1,0,1.13.25,1.32a1,1,0,0,0,.95.23,2.42,2.42,0,0,0,1.24.47,1.49,1.49,0,0,0,1.3.24S180,143.43,180.36,143.17Z"/><path class="cls-14" d="M187.37,124.43s-4.11,12.45-4.87,13.76a13.43,13.43,0,0,1-4.94-2.2l4.51-13.44Z"/></g></svg>