<?xml version="1.0" encoding="UTF-8" standalone="no"?>
<svg
   xmlns:dc="http://purl.org/dc/elements/1.1/"
   xmlns:cc="http://creativecommons.org/ns#"
   xmlns:rdf="http://www.w3.org/1999/02/22-rdf-syntax-ns#"
   xmlns:svg="http://www.w3.org/2000/svg"
   xmlns="http://www.w3.org/2000/svg"
   xmlns:sodipodi="http://sodipodi.sourceforge.net/DTD/sodipodi-0.dtd"
   xmlns:inkscape="http://www.inkscape.org/namespaces/inkscape"
   sodipodi:docname="documents.svg"
   inkscape:version="1.0beta2 (2b71d25, 2019-12-03)"
   id="svg1234"
   version="1.1"
   viewBox="0 0 150 63.874081"
   height="63.874081mm"
   width="150mm">
  <defs
     id="defs1228">
    <style
       id="style1236">.cls-1{fill:#e9e6f4;}.cls-2{font-size:30px;fill:#63366b;font-family:Andor-PersonalUse, Andor;}.cls-3{fill:#6c4a72;}.cls-4{fill:#a7d9f5;}.cls-5{fill:#b29cd7;}.cls-6{fill:#e4d0f9;}.cls-7{fill:#895f8e;}.cls-8{fill:#5a554e;}.cls-9{fill:#404347;}.cls-10{fill:#838389;}.cls-11{fill:#dba585;}.cls-12{fill:#89735d;}.cls-13{fill:#dcd0c8;}.cls-14{fill:#545c8e;}.cls-15{fill:#b68264;}.cls-16{fill:#cc9b7e;}</style>
  </defs>
  <sodipodi:namedview
     inkscape:window-maximized="0"
     inkscape:window-y="23"
     inkscape:window-x="0"
     inkscape:window-height="755"
     inkscape:window-width="1280"
     showgrid="false"
     inkscape:document-rotation="0"
     inkscape:current-layer="layer1"
     inkscape:document-units="mm"
     inkscape:cy="-260.85548"
     inkscape:cx="310.70844"
     inkscape:zoom="0.35"
     inkscape:pageshadow="2"
     inkscape:pageopacity="0.0"
     borderopacity="1.0"
     bordercolor="#666666"
     pagecolor="#ffffff"
     id="base" />
  <metadata
     id="metadata1231">
    <rdf:RDF>
      <cc:Work
         rdf:about="">
        <dc:format>image/svg+xml</dc:format>
        <dc:type
           rdf:resource="http://purl.org/dc/dcmitype/StillImage" />
        <dc:title></dc:title>
      </cc:Work>
    </rdf:RDF>
  </metadata>
  <g
     transform="translate(-23.625057,-217.18468)"
     id="layer1"
     inkscape:groupmode="layer"
     inkscape:label="Capa 1">
    <g
       transform="matrix(0.37635512,0,0,0.37635512,14.729206,207.15316)"
       id="Character">
      <path
         inkscape:connector-curvature="0"
         class="cls-1"
         d="m 50.79,190.78 c 0,0 -44.6,-44.35 -19.48,-104.29 C 43.36,57.73 75.45,51 85.18,56.86 98,64.62 115,43.66 151.8,29.27 c 27.64,-10.82 90.2,11.24 69.83,79.08 -11.44,38.08 28.42,31.66 28.62,72.13 a 10.73,10.73 0 0 1 -10.72,10.78 z"
         id="path1242" />
      <text
         class="cls-2"
         transform="translate(253.93,131.72)"
         id="text1244">Documents</text>
      <path
         inkscape:connector-curvature="0"
         class="cls-3"
         d="M 151.54,185.7 144,112.43 a 6.51,6.51 0 0 0 -6.47,-5.84 h -10.71 l -0.84,-4.52 H 111.4 l -2.1,4.52 H 60.19 a 5.8,5.8 0 0 0 -5.77,6.31 l 6.36,72.86 a 4.66,4.66 0 0 0 4.64,4.24 h 82.23 a 3.91,3.91 0 0 0 3.89,-4.3 z"
         id="path1246" />
      <polygon
         class="cls-4"
         points="57.81,111.41 151.56,106.7 146.4,182.41 65.66,182.41 "
         id="polygon1248" />
      <polygon
         class="cls-5"
         points="62.21,114.55 154.7,111.41 153.13,182.02 65.66,187.12 "
         id="polygon1250" />
      <path
         inkscape:connector-curvature="0"
         class="cls-6"
         d="m 66.83,174.55 c 0.19,-0.5 0,-53.72 0,-53.72 h 96.89 L 150,182 Z"
         id="path1252" />
      <path
         inkscape:connector-curvature="0"
         class="cls-7"
         d="m 177.23,123.27 -22.93,62 a 8.55,8.55 0 0 1 -8,5.58 H 65.71 a 3.51,3.51 0 0 1 -3.27,-4.74 l 23.63,-62.48 a 8.55,8.55 0 0 1 8,-5.52 h 79.59 a 3.81,3.81 0 0 1 3.57,5.16 z"
         id="path1254" />
      <path
         inkscape:connector-curvature="0"
         class="cls-8"
         d="m 218.49,190.22 0.31,-2.91 c 0,0 -4.11,0 -4.59,0.31 0,0 0.35,2.45 0.39,2.82 0.04,0.37 3.89,-0.22 3.89,-0.22 z"
         id="path1256" />
      <path
         inkscape:connector-curvature="0"
         class="cls-9"
         d="m 211.5,196.32 c 4.89,0 7.25,0.29 7.78,-0.5 0.53,-0.79 -0.76,-5.86 -0.76,-5.86 a 10.34,10.34 0 0 1 -4,0.17 10.59,10.59 0 0 1 -2.4,2.12 c -1.17,0.64 -3,0.89 -3.72,1.56 -0.46,0.48 -1.79,2.55 3.1,2.51 z"
         id="path1258" />
      <path
         inkscape:connector-curvature="0"
         class="cls-8"
         d="m 191,190.22 0.31,-2.91 c 0,0 -4.11,0 -4.59,0.31 0,0 0.35,2.45 0.39,2.82 0.04,0.37 3.89,-0.22 3.89,-0.22 z"
         id="path1260" />
      <path
         inkscape:connector-curvature="0"
         class="cls-9"
         d="m 184,196.32 c 4.89,-0.13 7.25,0.29 7.77,-0.5 C 192.29,195.03 191,190 191,190 a 9.31,9.31 0 0 1 -3.95,0.17 10.59,10.59 0 0 1 -2.4,2.12 c -1.17,0.64 -5.51,1.17 -6.21,1.83 -0.53,0.44 -1.36,2.38 5.56,2.2 z"
         id="path1262" />
      <path
         inkscape:connector-curvature="0"
         class="cls-10"
         d="m 212.84,124.4 a 36.16,36.16 0 0 1 1.78,11.31 c -0.27,5.24 1.06,11 1.6,16.44 0.6,6.1 3.08,20.54 3.17,23.8 0.09,3.26 -0.39,13.68 -0.39,13.68 l -4.95,0.11 c 0,0 -4.16,-25.24 -5.24,-27.81 -1.08,-2.57 -6.42,-20.94 -6.6,-23 -0.18,-2.06 10.63,-14.53 10.63,-14.53 z"
         id="path1264" />
      <path
         inkscape:connector-curvature="0"
         class="cls-10"
         d="m 192,125.48 c 0,0 -2.72,14.35 -3.08,17.56 -0.36,3.21 -0.6,15.51 -0.78,17.51 -0.18,2 -1.14,26.22 -2.14,29.19 h 6.33 c 0,0 4.86,-17.6 4.86,-25.92 0,-8.32 3.76,-18.11 6.19,-23.6 2.43,-5.49 8,-5.63 9.46,-15.82 0,0 -18.84,-2.15 -20.84,1.08 z"
         id="path1266" />
      <path
         inkscape:connector-curvature="0"
         class="cls-11"
         d="m 204.89,76.43 c 0,0 -5,-1.87 -7.3,1.93 -2.3,3.8 -2.08,11.41 0.44,12.35 2.52,0.94 6.29,0.45 7.58,-1.93 1.29,-2.38 2.46,-5.82 2.4,-8.12 a 5,5 0 0 0 -3.12,-4.23 z"
         id="path1268" />
      <path
         inkscape:connector-curvature="0"
         class="cls-11"
         d="m 198.86,90.48 a 4.08,4.08 0 0 1 -0.13,2 c -0.33,0.65 6.28,0.66 6.28,0.66 a 43.85,43.85 0 0 1 1.56,-6.47 c 1.02,-3.01 -7.71,3.81 -7.71,3.81 z"
         id="path1270" />
      <path
         inkscape:connector-curvature="0"
         class="cls-12"
         d="m 206.57,86.62 c 0,0 -0.46,0.75 -2.32,0.46 -1.86,-0.29 -4.14,-2.77 -4.92,-3 -0.78,-0.23 -0.78,-0.73 -0.78,-0.73 l -0.49,0.71 h -0.82 c 0,0 0.75,-2.21 -0.39,-3.12 -1.14,-0.91 1.15,-7.17 7.15,-5.08 0,0 4.28,0.85 4.54,3.45 a 11.78,11.78 0 0 1 -1.97,7.31 z"
         id="path1272" />
      <path
         inkscape:connector-curvature="0"
         class="cls-13"
         d="m 198.34,92.35 c 0,0 0,-1.23 0.58,-1.35 0.58,-0.12 6.16,-0.65 6.85,-0.38 v 1.43 c 0,0 -1.32,0.81 -7.43,0.3 z"
         id="path1274" />
      <path
         inkscape:connector-curvature="0"
         class="cls-11"
         d="m 198.67,82.36 c 0.11,-0.44 1.22,-1.69 1.65,-0.35 0.43,1.34 -0.65,3.14 -1.25,3 -0.6,-0.14 -0.66,-1.54 -0.4,-2.65 z"
         id="path1276" />
      <path
         inkscape:connector-curvature="0"
         class="cls-14"
         d="m 198.34,92.35 c 0,0 -3.07,1.11 -6.63,2.62 a 7.47,7.47 0 0 0 -4.54,6 c -0.23,2.4 -2.79,15.14 -3.27,16.22 -0.48,1.08 -6.14,18.39 -6.34,18.75 -0.2,0.36 4.62,2.36 4.94,2.2 0.32,-0.16 5.49,-15.79 6,-17 0,0 3,-9.37 3.05,-10.77 0,0 0.09,4 0.24,5.1 0.15,1.1 -2.64,22.82 -2.56,23.42 0.08,0.6 12.75,1.36 17.82,0.8 a 62.66,62.66 0 0 0 9.16,-1.72 c 0,0 -4,-17.13 -3.87,-19 0.27,-4.14 1.65,-11.93 1.65,-11.93 l 4.13,7.79 -5.29,13.61 1.21,4.14 c 0,0 9.84,-14.86 10.16,-16.22 0.32,-1.36 -0.49,-3.08 -1,-4.2 -0.51,-1.12 -3.93,-9.62 -4.73,-10.82 -0.8,-1.2 -2.15,-6 -5.41,-7.33 a 50.49,50.49 0 0 0 -7.3,-2 z"
         id="path1278" />
      <rect
         class="cls-7"
         x="170.11"
         y="124.44"
         width="23.91"
         height="16.68"
         transform="matrix(0.97,0.25,-0.25,0.97,38.68,-41.06)"
         id="rect1280" />
      <path
         inkscape:connector-curvature="0"
         class="cls-15"
         d="m 175.54,139.52 c 0,0 -0.66,1.07 -0.91,1.38 -0.25,0.31 0.6,0.49 1,0.18 0.4,-0.31 -0.09,-1.56 -0.09,-1.56 z"
         id="path1282" />
      <path
         inkscape:connector-curvature="0"
         class="cls-16"
         d="m 180.36,143.17 a 2.63,2.63 0 0 0 0.48,-0.66 c 0,0 0.11,-0.49 0.22,-0.83 a 1.26,1.26 0 0 1 0.09,-0.26 4.78,4.78 0 0 0 0.53,-1.41 c 0.1,-0.66 0.39,-3.63 0.39,-3.63 l -1.8,-0.45 -1.44,-0.3 c 0,0 -3.11,3.1 -3.28,3.71 a 1.22,1.22 0 0 0 0,0.17 5.72,5.72 0 0 0 0,1.24 c 0,0.1 0,1.13 0.25,1.32 a 1,1 0 0 0 0.95,0.23 2.42,2.42 0 0 0 1.24,0.47 1.49,1.49 0 0 0 1.3,0.24 c 0,0 0.71,0.42 1.07,0.16 z"
         id="path1284" />
      <path
         inkscape:connector-curvature="0"
         class="cls-14"
         d="m 187.37,124.43 c 0,0 -4.11,12.45 -4.87,13.76 a 13.43,13.43 0 0 1 -4.94,-2.2 l 4.51,-13.44 z"
         id="path1286" />
    </g>
  </g>
</svg>
