<?xml version="1.0" encoding="UTF-8" standalone="no"?>
<svg
   xmlns:dc="http://purl.org/dc/elements/1.1/"
   xmlns:cc="http://creativecommons.org/ns#"
   xmlns:rdf="http://www.w3.org/1999/02/22-rdf-syntax-ns#"
   xmlns:svg="http://www.w3.org/2000/svg"
   xmlns="http://www.w3.org/2000/svg"
   xmlns:sodipodi="http://sodipodi.sourceforge.net/DTD/sodipodi-0.dtd"
   xmlns:inkscape="http://www.inkscape.org/namespaces/inkscape"
   sodipodi:docname="family.svg"
   inkscape:version="1.0beta2 (2b71d25, 2019-12-03)"
   id="svg1905"
   version="1.1"
   viewBox="0 0 150 69.368317"
   height="69.368317mm"
   width="150mm">
  <defs
     id="defs1899">
    <style
       id="style10">.cls-1{fill:#ffaf66;opacity:0.72;}.cls-2{opacity:0.58;}.cls-3{fill:#f4e3bf;}.cls-4{fill:#413939;}.cls-5{fill:#b5b5b5;}.cls-6{fill:#252121;}.cls-7{fill:#b3d09f;}.cls-8{fill:#d2925e;}.cls-9{fill:#19212e;}.cls-10{fill:#384987;}.cls-11{fill:#2e3b61;}.cls-12{fill:#ebaf7f;}.cls-13{fill:#436361;}.cls-14{fill:#344a48;}.cls-15{fill:#3f281e;}.cls-16{fill:#3e2321;}.cls-17{fill:#d79662;}.cls-18{fill:#c479ef;}.cls-19{fill:#b16fd8;}.cls-20{fill:#ebf1f8;}.cls-21{fill:#934640;}.cls-22{fill:#fff;}.cls-23{font-size:30px;fill:#e88846;font-family:Andor-PersonalUse, Andor;}.cls-24{letter-spacing:-0.04em;}.cls-25{letter-spacing:0.05em;}</style>
  </defs>
  <sodipodi:namedview
     inkscape:window-maximized="0"
     inkscape:window-y="23"
     inkscape:window-x="0"
     inkscape:window-height="755"
     inkscape:window-width="1280"
     showgrid="false"
     inkscape:document-rotation="0"
     inkscape:current-layer="layer1"
     inkscape:document-units="mm"
     inkscape:cy="324.89837"
     inkscape:cx="280.79821"
     inkscape:zoom="0.35"
     inkscape:pageshadow="2"
     inkscape:pageopacity="0.0"
     borderopacity="1.0"
     bordercolor="#666666"
     pagecolor="#ffffff"
     id="base" />
  <metadata
     id="metadata1902">
    <rdf:RDF>
      <cc:Work
         rdf:about="">
        <dc:format>image/svg+xml</dc:format>
        <dc:type
           rdf:resource="http://purl.org/dc/dcmitype/StillImage" />
        <dc:title></dc:title>
      </cc:Work>
    </rdf:RDF>
  </metadata>
  <g
     transform="translate(-27.759046,-222.46588)"
     id="layer1"
     inkscape:groupmode="layer"
     inkscape:label="Capa 1">
    <g
       transform="matrix(0.51190174,0,0,0.51190174,-0.22761036,192.87335)"
       id="Character">
      <path
         inkscape:connector-curvature="0"
         id="path16"
         d="m 83.9,192.89 a 11,11 0 0 1 -8.17,-3.64 c -9.3,-10.37 -32.62,-42 -14.12,-82.2 10.91,-23.66 40,-29.22 48.76,-24.38 11.6,6.39 27,-10.86 60.28,-22.71 25,-8.9 81.63,9.25 63.19,65.09 -10,30.33 23.47,26.35 25.78,56.27 a 11.08,11.08 0 0 1 -11,12 z"
         class="cls-1" />
      <g
         id="g34"
         class="cls-2">
        <rect
           id="rect18"
           height="66.580002"
           width="65.43"
           y="126.5"
           x="95.739998"
           class="cls-3" />
        <rect
           id="rect20"
           height="66.580002"
           width="50.830002"
           y="126.5"
           x="161.17"
           class="cls-3" />
        <polygon
           id="polygon22"
           points="156.37,130.99 91.23,130.99 125.19,98.22 177.81,98.1 "
           class="cls-4" />
        <polygon
           id="polygon24"
           points="158.94,130.99 93.8,130.99 127.76,98.22 180.38,98.1 "
           class="cls-3" />
        <path
           inkscape:connector-curvature="0"
           id="path26"
           d="M 128.35,114.55 H 127 c -4.65,0 -8.42,2.8 -8.42,6.27 v 15.93 h 17.93 v -16.14 c -0.02,-3.35 -3.67,-6.06 -8.16,-6.06 z"
           class="cls-5" />
        <path
           inkscape:connector-curvature="0"
           id="path28"
           d="m 126.3,148.32 h -1.36 c -4.65,0 -8.42,5.63 -8.42,12.57 v 32 h 17.93 v -32.41 c 0,-6.72 -3.65,-12.16 -8.15,-12.16 z"
           class="cls-5" />
        <polygon
           id="polygon30"
           points="219.09,132.82 159.96,132.82 125.02,98.1 144.69,98.1 183.12,98.11 "
           class="cls-4" />
        <polygon
           id="polygon32"
           points="208.25,132.82 144.69,98.1 183.12,98.11 219.09,132.82 "
           class="cls-6" />
      </g>
      <path
         inkscape:connector-curvature="0"
         id="path36"
         d="m 235.12,192.92 c -7.32,-4.18 -16.19,-8 -23.48,-4.66 -7.29,3.34 -10.09,7.89 -18.09,-2.54 a 12.26,12.26 0 0 0 -2,-2.15 c 1.42,-0.5 3.31,-1.36 2.47,-2.23 -0.84,-0.87 -2.33,0.64 -3.18,1.73 a 5,5 0 0 0 -0.62,-0.3 c 1.93,-2.66 5.35,-7.69 3.76,-7.86 -1.59,-0.17 -3.47,4.88 -4.39,7.67 a 2.59,2.59 0 0 0 -0.47,-0.05 c -0.09,-1.45 -0.39,-4 -1.49,-4.18 -1.1,-0.18 0.2,2.67 1,4.2 -4.31,0.56 -7.23,10 -16.27,4 a 4.25,4.25 0 0 0 -4.18,-0.29 c -0.85,-3.62 -3.38,-13.47 -5.47,-12.45 -2.09,1.02 3.09,9.55 5,12.64 a 7.69,7.69 0 0 0 -0.69,0.39 c -1.19,-1.69 -3.42,-4.41 -4.69,-3.22 -1.27,1.19 1.87,2.85 3.9,3.76 a 22.18,22.18 0 0 0 -4.72,5.5 z"
         class="cls-7" />
      <path
         inkscape:connector-curvature="0"
         id="path38"
         d="m 166.24,100.81 c 0,0 3.9,1.84 4.79,1.61 0.89,-0.23 4.26,-0.83 4.73,-0.62 0,0 0.54,0.86 0.13,1.42 a 12,12 0 0 1 -4.87,2.14 c -1.18,0.06 -5.67,-0.76 -6.63,-1.5 z"
         class="cls-8" />
      <path
         inkscape:connector-curvature="0"
         id="path40"
         d="m 175.64,101.82 c 0,0 1.51,-0.62 2,0.07 a 3.1,3.1 0 0 1 0.71,1.77 c -0.06,0.35 -1.08,0.51 -1.48,0.23 a 10.75,10.75 0 0 0 -1.42,-0.66 z"
         class="cls-8" />
      <path
         inkscape:connector-curvature="0"
         id="path42"
         d="m 182.83,189.41 a 6.4,6.4 0 0 0 -0.85,2.9 0.63,0.63 0 0 0 0.63,0.63 h 5.18 a 0.77,0.77 0 0 0 0.75,-0.95 6.39,6.39 0 0 0 -1.79,-3.25 c -1.65,-1.39 -3.92,0.67 -3.92,0.67 z"
         class="cls-9" />
      <path
         inkscape:connector-curvature="0"
         id="path44"
         d="m 174.64,188 c 0,0 -0.3,4.8 -1.23,4.87 h -10.63 a 2,2 0 0 1 1.82,-1.75 c 1.71,-0.3 4.57,-1.5 5.61,-3.76 1.04,-2.26 4.43,0.64 4.43,0.64 z"
         class="cls-9" />
      <path
         inkscape:connector-curvature="0"
         id="path46"
         d="m 177.12,158.37 a 21.27,21.27 0 0 0 0,5.78 c 1.22,4.46 -2.2,24.63 -2.2,24.63 -2.53,1.2 -6.11,0 -6.11,0 0.22,-2.79 -1.11,-27.8 -2.35,-43 -0.51,-6.4 -0.9,-10.88 -0.9,-10.88 l 15.11,-1.76 c 0,0 -2.84,15.97 -3.55,25.23 z"
         class="cls-10" />
      <path
         inkscape:connector-curvature="0"
         id="path48"
         d="m 180.71,133.07 c 0,0 -2.88,16 -3.59,25.3 L 166.5,145.71 c -0.51,-6.4 -0.9,-10.88 -0.9,-10.88 z"
         class="cls-11" />
      <path
         inkscape:connector-curvature="0"
         id="path50"
         d="m 173.3,136.49 c 0,0 7.65,44.55 9,53.18 a 9.66,9.66 0 0 0 5.79,-0.44 c 0,0 0.38,-20.71 -0.62,-26.94 -1,-6.23 0.53,-25.52 -1.09,-27.31 -1.62,-1.79 -13.08,1.51 -13.08,1.51 z"
         class="cls-10" />
      <path
         inkscape:connector-curvature="0"
         id="path52"
         d="m 174.09,98.5 a 25.7,25.7 0 0 0 -0.33,5.14 c 0.26,1.18 4.19,1.82 5.83,0.85 1.64,-0.97 1.15,-1.34 1.15,-1.34 a 40.19,40.19 0 0 0 -0.48,-4.86 C 180,98 174.09,98.5 174.09,98.5 Z"
         class="cls-12" />
      <path
         inkscape:connector-curvature="0"
         id="path54"
         d="m 186.75,122.66 a 42.35,42.35 0 0 0 -0.11,-11.53 c -1.43,-8.27 -5.94,-8.54 -5.94,-8.49 0,1.11 -2.39,2.14 -4.32,2 a 2.78,2.78 0 0 1 -2.68,-2 c 0,0 0,0 -0.09,0 a 27.56,27.56 0 0 0 -4.17,0.36 6.13,6.13 0 0 0 -3.18,1.22 c -0.31,0.32 -1.41,1.21 -2.81,2.43 -3.58,3.1 -9.18,8.28 -8.93,11.37 0,0 6.92,5.08 11.3,1.89 -0.24,8.28 -1.74,17 -1.37,17 0,0 2.45,2.12 9.87,2.12 a 47.22,47.22 0 0 0 9,-0.75 13.64,13.64 0 0 0 3.88,-1.2 c 0.66,0.02 -0.63,-12.7 -0.45,-14.42 z"
         class="cls-13" />
      <path
         inkscape:connector-curvature="0"
         id="path56"
         d="m 187.24,137.11 a 13.64,13.64 0 0 1 -3.88,1.2 c -3.84,-1.7 -11.46,-6.1 -11.75,-13.47 -0.4,-9.82 11.58,-15.66 11.58,-15.66 0,0 1.61,0.89 3.45,1.95 a 42.35,42.35 0 0 1 0.11,11.53 c -0.18,1.72 1.11,14.44 0.49,14.45 z"
         class="cls-14" />
      <path
         inkscape:connector-curvature="0"
         id="path58"
         d="m 174,98.94 c 0,0 1.52,2.15 3.13,2.17 1.61,0.02 3.29,-2.11 3.29,-2.11 z"
         class="cls-8" />
      <path
         inkscape:connector-curvature="0"
         id="path60"
         d="m 173.88,98.84 a 10.06,10.06 0 0 0 2.12,1.09 2.62,2.62 0 0 0 1.83,0 26,26 0 0 0 2.57,-1 c 0.81,-0.49 0.76,-1.48 0.8,-2.86 a 20.72,20.72 0 0 0 0,-3.85 c -0.21,-1.13 -0.93,-1.77 -2.92,-1.94 -3.67,-0.32 -5.2,0.6 -5.26,1.83 0,0.33 0,0.64 0,0.94 -0.14,3.88 0.16,5.24 0.86,5.79 z"
         class="cls-12" />
      <path
         inkscape:connector-curvature="0"
         id="path62"
         d="m 173.05,92.61 a 1.54,1.54 0 0 1 1.73,-0.54 c 1.12,0.35 1.24,1.31 3.17,1.16 1.93,-0.15 2.39,-1.07 2.74,-0.61 a 13,13 0 0 1 0.54,3.15 c 0,0 3.88,-8.84 -4,-8.84 0,0 -8.09,-0.49 -4.2,8.5 z"
         class="cls-15" />
      <path
         inkscape:connector-curvature="0"
         id="path64"
         d="M 158.77,101 Z"
         class="cls-12" />
      <path
         inkscape:connector-curvature="0"
         id="path66"
         d="m 176.86,128.17 a 4.44,4.44 0 0 1 -2.54,0.81 c 0,0 -1.53,-1.69 -2.82,-3.33 a 11.32,11.32 0 0 1 -1.73,-2.63 c -0.38,-1.37 -7.6,-1.76 -8.48,-2.72 -0.88,-0.96 3.58,-3.38 3.58,-3.38 0,0 7.33,1.12 8.43,2.56 a 20,20 0 0 1 1.72,3.65 c 0.98,2.41 1.84,5.04 1.84,5.04 z"
         class="cls-8" />
      <path
         inkscape:connector-curvature="0"
         id="path68"
         d="m 166.6,108.08 c 0,0 1.39,-2.7 2.08,-2.62 0.69,0.08 -1.58,5.58 -1.79,8.26 -0.21,2.68 -0.29,-5.64 -0.29,-5.64 z"
         class="cls-14" />
      <path
         inkscape:connector-curvature="0"
         id="path70"
         d="m 171,126.64 a 44.4,44.4 0 0 1 -2.37,4.73 v 0 0 c -0.24,0 -2.25,-0.05 -2.45,-0.86 0,0 -0.06,-2.79 0,-5 a 11.86,11.86 0 0 1 0.28,-2.34 c 0,0 -10.91,-0.07 -10.72,-3.16 0.19,-3.09 5.89,-4.71 9.17,-3.11 a 24.55,24.55 0 0 1 6.64,3.66 c 1.08,1.05 0.39,3.67 -0.55,6.08 z"
         class="cls-12" />
      <path
         inkscape:connector-curvature="0"
         id="path72"
         d="m 156,115.71 a 6.62,6.62 0 0 0 -1.11,4.12 c 0.34,2 4.49,3.06 7.39,3.19 0,0 8.29,-1.9 7,-5.21 C 169,117.06 156,115.71 156,115.71 Z"
         class="cls-10" />
      <path
         inkscape:connector-curvature="0"
         id="path74"
         d="m 159,89.47 c 0,0 -1.32,-2.7 -4.5,-1 -3.18,1.7 -0.09,7.86 -1.76,9.42 -1.67,1.56 0.61,2.57 0.27,3.68 -0.34,1.11 0.63,2.38 2.85,2.23 2.22,-0.15 4.58,0 5.58,-2 a 11.78,11.78 0 0 0 0.39,-6.83 C 161.48,94.33 159,89.47 159,89.47 Z"
         class="cls-16" />
      <path
         inkscape:connector-curvature="0"
         id="path76"
         d="M 164.19,104.25 158.78,101 a 5.34,5.34 0 0 0 0.55,-1.35 6.27,6.27 0 0 0 0.3,-1.27 c 0,0 0,-0.07 0,-0.11 a 3.62,3.62 0 0 0 0,-0.78 l 1.19,0.43 2.19,0.79 a 2.65,2.65 0 0 0 0.17,1.22 1,1 0 0 0 0.83,0.65 z"
         class="cls-12" />
      <path
         inkscape:connector-curvature="0"
         id="path78"
         d="m 163.21,99.92 a 4.11,4.11 0 0 1 -3.58,-1.55 0.34,0.34 0 0 0 0,-0.08 h 0.07 l 1.2,-0.35 2.19,0.79 a 2.65,2.65 0 0 0 0.12,1.19 z"
         class="cls-17" />
      <path
         inkscape:connector-curvature="0"
         id="path80"
         d="m 163.32,99.16 c 0,0 -4.71,0.51 -4.81,-2.67 -0.1,-3.18 -0.79,-4.64 2.47,-4.92 3.26,-0.28 4,0.89 4.21,2 0.6,3.33 -0.55,5.43 -1.87,5.59 z"
         class="cls-12" />
      <path
         inkscape:connector-curvature="0"
         id="path82"
         d="m 161.23,93.12 c -1.67,-0.42 -1,2.53 -1.45,2.33 -0.45,-0.2 -1.28,-0.22 -1.15,0.34 a 10.1,10.1 0 0 0 0.41,1.13 c 0.09,0.36 0,1.06 -0.39,0.92 -0.39,-0.14 -4,-4.26 -1.45,-7.46 2.55,-3.2 10.13,-1.23 7.74,2.12 -0.42,0.59 -2.52,0.92 -3.71,0.62 z"
         class="cls-16" />
      <path
         inkscape:connector-curvature="0"
         id="path84"
         d="m 167.27,116.91 a 8.13,8.13 0 0 1 -3.64,0.72 25.1,25.1 0 0 1 -6.36,-1.34 c -1.11,-0.4 -1.86,-0.82 -1.77,-1.18 0.13,-0.51 1.07,-4.46 1.95,-8.11 0.8,-3.34 1.53,-6.43 1.53,-6.43 0,0 2.21,1.57 3.49,1 1.28,-0.57 1.12,-1.18 1.12,-1.18 a 15.32,15.32 0 0 1 1.93,-0.14 27.15,27.15 0 0 1 3,0.92 2.78,2.78 0 0 1 -0.5,2.19 2.88,2.88 0 0 1 -1.32,1.32 27.16,27.16 0 0 1 0.57,12.23 z"
         class="cls-18" />
      <path
         inkscape:connector-curvature="0"
         id="path86"
         d="m 160.19,111.59 a 3.57,3.57 0 0 1 1.89,0.09 c 0.53,0.35 0.69,0.9 0.31,1.12 a 2.47,2.47 0 0 1 -2.42,-0.08 z"
         class="cls-12" />
      <path
         inkscape:connector-curvature="0"
         id="path88"
         d="m 157.27,116.29 c -1.11,-0.4 -1.86,-0.82 -1.77,-1.18 0.13,-0.51 1.07,-4.46 1.95,-8.11 l 0.42,-0.75 c 0,0 1.66,7.57 -0.6,10.04 z"
         class="cls-19" />
      <path
         inkscape:connector-curvature="0"
         id="path90"
         d="m 159,101 c 0,0 -4.19,0.88 -5.84,7.39 a 2,2 0 0 0 0.45,1.81 c 0.76,0.84 2.43,2.07 6.32,2.52 0.43,0 0.48,-1 0.48,-1 a 29.25,29.25 0 0 1 -3.75,-2.64 0.6,0.6 0 0 1 0,-0.75 18.54,18.54 0 0 0 1.21,-2.06 c 0.31,-0.76 2.34,-4.94 1.13,-5.27 z"
         class="cls-12" />
      <path
         inkscape:connector-curvature="0"
         id="path92"
         d="m 159,100.57 a 6.73,6.73 0 0 0 -4.47,2.85 4.86,4.86 0 0 0 3.86,3.12 c 0,0 1.96,-4.43 0.61,-5.97 z"
         class="cls-18" />
      <path
         inkscape:connector-curvature="0"
         id="path94"
         d="m 171,126.64 a 44.4,44.4 0 0 1 -2.37,4.73 v 0 c -0.24,0 -2.25,-0.05 -2.45,-0.86 0,0 -0.06,-2.79 0,-5 0.28,0.32 1.52,1.24 4.82,1.13 z"
         class="cls-20" />
      <path
         inkscape:connector-curvature="0"
         id="path96"
         d="m 176.86,128.17 a 4.44,4.44 0 0 1 -2.54,0.81 c 0,0 -1.53,-1.69 -2.82,-3.33 a 14.06,14.06 0 0 0 3.52,-2.52 c 0.98,2.41 1.84,5.04 1.84,5.04 z"
         class="cls-20" />
      <path
         inkscape:connector-curvature="0"
         id="path98"
         d="m 171.66,134.41 a 0.46,0.46 0 0 1 -0.55,0.37 21.73,21.73 0 0 1 -2.14,-0.52 c -0.64,-0.23 -1.87,-1 -2.51,-1.19 l -1.1,-0.44 a 0.38,0.38 0 0 1 -0.22,-0.46 7.41,7.41 0 0 1 0.65,-1.61 0.67,0.67 0 0 1 0.26,-0.24 2.48,2.48 0 0 0 1.56,0.56 3.25,3.25 0 0 0 1.41,-0.29 c 0,0.09 0.92,1.85 1.54,2.08 a 1.53,1.53 0 0 1 1.1,1.74 z"
         class="cls-21" />
      <path
         inkscape:connector-curvature="0"
         id="path100"
         d="m 180.81,128.19 a 0.46,0.46 0 0 1 -0.2,0.63 c -0.55,0.27 -1.55,0.76 -2,0.91 -0.64,0.22 -2.06,0.41 -2.71,0.62 -0.22,0.08 -0.77,0.24 -1.12,0.34 a 0.37,0.37 0 0 1 -0.46,-0.22 7.79,7.79 0 0 1 -0.5,-1.67 0.61,0.61 0 0 1 0.07,-0.35 2.48,2.48 0 0 0 1.57,-0.53 3.42,3.42 0 0 0 0.92,-1.1 c 0.09,0 1.87,0.89 2.49,0.68 a 1.53,1.53 0 0 1 1.94,0.69 z"
         class="cls-21" />
      <path
         inkscape:connector-curvature="0"
         id="path102"
         d="m 172,124.66 a 4.67,4.67 0 0 1 -1.5,2.66 c 0,0 -4.8,-0.66 -9.28,-1.79 -3.28,-0.84 -6.39,-1.92 -7.28,-3.19 -2.1,-3 1.1,-6.61 1.1,-6.61 0,0 6.16,3 12.84,6.63 1.36,0.74 2.75,1.52 4.12,2.3 z"
         class="cls-13" />
      <path
         inkscape:connector-curvature="0"
         id="path104"
         d="m 164.76,127.32 a 4,4 0 0 0 -2,0.65 c -0.54,0.54 -1.35,2.11 -0.77,2.74 0.58,0.63 3.36,-0.75 3.43,-1 a 15.36,15.36 0 0 0 -0.66,-2.39 z"
         class="cls-12" />
      <path
         inkscape:connector-curvature="0"
         id="path106"
         d="m 172,124.66 a 4.67,4.67 0 0 1 -1.5,2.66 c 0,0 -4.8,-0.66 -9.28,-1.79 a 16.07,16.07 0 0 1 6.66,-3.17 c 1.36,0.74 2.75,1.52 4.12,2.3 z"
         class="cls-14" />
      <path
         inkscape:connector-curvature="0"
         id="path108"
         d="m 188.29,105 c -1,-2.28 -7.28,-2.37 -7.28,-2.37 a 107,107 0 0 0 -4.83,17.52 1.27,1.27 0 0 0 -0.39,0 56.5,56.5 0 0 0 -11.22,6.63 3.87,3.87 0 0 0 0.56,3.5 c 0,0 11.56,-2.55 14.79,-4.44 v 0 l 0.1,-0.06 0.14,-0.1 c 10.5,-6.78 9.5,-17.38 8.13,-20.68 z"
         class="cls-13" />
      <path
         inkscape:connector-curvature="0"
         id="path110"
         d="m 208,127.78 c -0.94,-1.56 -1.53,-8.56 -2.21,-10.44 -0.43,-1.18 -1.58,-2.6 -1.46,-2.69 a 16.62,16.62 0 0 0 -4.55,-1.07 v 0 l -0.38,-0.08 a 0.92,0.92 0 0 1 -0.82,-0.72 0.13,0.13 0 0 0 0,-0.06 11.89,11.89 0 0 1 -0.05,-1.44 v 0 c 0,-0.72 0.06,-1.25 0.06,-1.25 v 0 l -4.3,-0.69 c -0.06,1.34 -0.14,2.34 -0.22,3.09 a 1.19,1.19 0 0 1 -1.1,1 h -0.26 a 17.61,17.61 0 0 0 -3.84,0.22 1.4,1.4 0 0 0 -0.27,0.11 c 0.07,0.07 -10.21,10.37 -9.95,11.57 0.26,1.2 4.78,8 6.42,9.21 h 1.63 c 0,0 -3.63,-8.27 -3.67,-8.94 -0.07,-1 9.12,-6.48 9.12,-7.48 0,-0.37 2.56,-0.48 4.24,-0.47 a 25.56,25.56 0 0 0 5.12,-0.91 c 0,0 1.44,10.95 3.27,14.2 1.44,2.56 7.8,9.12 7.8,9.12 l 1.34,-1.19 c 0,0 -3.67,-7.29 -5.92,-11.09 z"
         class="cls-12" />
      <path
         inkscape:connector-curvature="0"
         id="path112"
         d="m 194.94,169.93 a 110.46,110.46 0 0 1 -0.17,17.66 h -2.63 a 62.19,62.19 0 0 1 -4.33,-19.5 c -0.12,-1.34 -1.94,-6.71 -3.56,-11.88 -1.37,-4.31 -2.59,-8.48 -2.6,-10 0,-3.58 3.55,-9.33 3.55,-9.33 a 63.17,63.17 0 0 1 8.29,3.93 6.23,6.23 0 0 1 2.14,1.84 c 0.73,1.43 1.28,11.7 -0.68,18 -1.17,3.78 -0.57,5.72 -0.57,5.72 a 32.29,32.29 0 0 1 0.56,3.56 z"
         class="cls-4" />
      <path
         inkscape:connector-curvature="0"
         id="path114"
         d="m 195,160.58 c -1.17,3.78 -0.57,5.72 -0.57,5.72 a 32.29,32.29 0 0 1 0.56,3.63 L 184.3,156.21 c -1.37,-4.31 -2.59,-8.48 -2.6,-10 0,-3.58 3.55,-9.33 3.55,-9.33 a 63.17,63.17 0 0 1 8.29,3.93 6.23,6.23 0 0 1 2.14,1.84 c 0.68,1.35 1.23,11.66 -0.68,17.93 z"
         class="cls-6" />
      <path
         inkscape:connector-curvature="0"
         id="path116"
         d="m 192.14,187.59 a 9.53,9.53 0 0 1 -0.37,2.08 5.52,5.52 0 0 1 -2.21,1.94 c -1.06,0.4 -4.1,0.19 -4.34,1.3 h 10.7 a 7.62,7.62 0 0 0 -0.26,-2.75 c -0.42,-1.08 -0.89,-2.57 -0.89,-2.57 z"
         class="cls-10" />
      <path
         inkscape:connector-curvature="0"
         id="path118"
         d="m 210,187.21 a 21.12,21.12 0 0 1 1.49,2.28 c 0.3,0.65 2.24,3.39 2,3.42 -0.24,0.03 -5.43,0 -5.43,0 a 6.29,6.29 0 0 1 -0.47,-2.18 c 0.06,-0.89 -0.7,-2.57 -0.56,-3.52 0.14,-0.95 2.97,0 2.97,0 z"
         class="cls-10" />
      <path
         inkscape:connector-curvature="0"
         id="path120"
         d="m 210,187.21 h -3 c 0,0 -11.54,-16.69 -11.93,-20.93 -0.5,-5.3 -4.21,-26.24 -4.21,-26.24 l 11.84,-3.68 c 0,0 1,2.66 1.9,5.34 0.38,1.17 0.73,2.34 0.94,3.3 0.48,2.12 -0.86,10.12 -1.77,15.81 a 52.54,52.54 0 0 0 -0.77,5.74 c 0.13,2.13 4,2.45 7,20.66 z"
         class="cls-4" />
      <path
         inkscape:connector-curvature="0"
         id="path122"
         d="m 194.17,110.49 c 0,0.1 0,0.21 0,0.31 -0.01,-0.1 -0.01,-0.21 0,-0.31 z"
         class="cls-10" />
      <path
         inkscape:connector-curvature="0"
         id="path124"
         d="m 194.19,110.05 c 0,0.11 0,0.22 0,0.33 -0.01,-0.11 0,-0.22 0,-0.33 z"
         class="cls-10" />
      <path
         inkscape:connector-curvature="0"
         id="path126"
         d="m 194.23,109.33 c 0,0.08 0,0.16 0,0.24 a 1.93,1.93 0 0 1 0,-0.24 z"
         class="cls-10" />
      <path
         inkscape:connector-curvature="0"
         id="path128"
         d="m 204.41,139.15 c 0.39,1.15 -5.18,1.83 -11.36,1.75 a 19.88,19.88 0 0 1 -4.71,-0.58 c -2.83,-0.73 -4.39,-2.06 -3.14,-3.48 0.35,-0.4 4.27,-6 4.27,-6 0.23,-0.51 0,-2.15 -1.22,-6.06 a 4.26,4.26 0 0 1 0.38,-3.23 v 0 a 0.61,0.61 0 0 0 0,-0.54 12.9,12.9 0 0 0 -2,-2.53 21.2,21.2 0 0 0 -1.63,-1.48 19.55,19.55 0 0 1 3.58,-3.14 c 1.32,1.38 4.18,3.87 7.78,3.89 3.11,0 6.12,-1.72 8,-3 a 1.31,1.31 0 0 1 0.33,0.26 8.76,8.76 0 0 1 1.47,3.77 c 0,0 -3.69,2 -3.63,2.71 a 17.36,17.36 0 0 1 0.28,3 v 0 a 4.65,4.65 0 0 1 -0.19,0.79 c -0.63,2 -2,5 -1.65,6.07 0.03,0.18 2.89,6.13 3.44,7.8 z"
         class="cls-10" />
      <path
         inkscape:connector-curvature="0"
         id="path130"
         d="m 188.82,113.7 h 0.19 -0.2 z"
         class="cls-12" />
      <path
         inkscape:connector-curvature="0"
         id="path132"
         d="m 198.74,113.2 a 1,1 0 0 0 0.33,0.22 1,1 0 0 1 -0.33,-0.22 z"
         class="cls-12" />
      <path
         inkscape:connector-curvature="0"
         id="path134"
         d="m 199.07,113.42 h 0.14 z"
         class="cls-12" />
      <path
         inkscape:connector-curvature="0"
         id="path136"
         d="m 213.86,138.92 a 12.67,12.67 0 0 1 2.57,0.9 c 0.31,0.32 1.2,2.77 0.89,2.8 a 3.28,3.28 0 0 1 -2.48,-0.76 c -1,-1.07 -2.44,-1.25 -2.37,-2 0.07,-0.75 1.39,-0.94 1.39,-0.94 z"
         class="cls-12" />
      <path
         inkscape:connector-curvature="0"
         id="path138"
         d="m 185,134.59 a 13.66,13.66 0 0 0 -1.64,2.45 c 0,0.37 0.33,1.94 0.73,2 0.4,0.06 0.53,-1.29 0.84,-1.53 0.31,-0.24 1.41,-0.7 1.57,-1.12 a 8.61,8.61 0 0 0 0.13,-1.77 z"
         class="cls-12" />
      <path
         inkscape:connector-curvature="0"
         id="path140"
         d="m 194,112.28 c 2,-0.26 4.51,-2.26 4.51,-2.26 a 4.85,4.85 0 0 0 -3.67,-0.59 4.16,4.16 0 0 0 -0.65,0.24 z"
         class="cls-8" />
      <path
         inkscape:connector-curvature="0"
         id="path142"
         d="m 193.29,110.31 c 0,0 5,1.68 6,-1.47 1,-3.15 2.32,-5 -0.85,-6.25 -3.17,-1.25 -4.17,-0.2 -4.76,0.77 -0.59,0.97 -1.68,6.44 -0.39,6.95 z"
         class="cls-12" />
      <path
         inkscape:connector-curvature="0"
         id="path144"
         d="m 195.09,108.93 c 0,0 -0.18,0.36 -1.13,0.07 0,0 -0.8,-0.25 -0.67,-0.67 a 2.67,2.67 0 0 1 1.8,0.6 z"
         class="cls-22" />
      <path
         inkscape:connector-curvature="0"
         id="path146"
         d="m 206.78,102.92 c -0.56,-0.72 1.29,-2.21 -2.47,-4 -2.85,-1.36 -3.73,0.7 -4,1.78 -1.7,-1 -4.46,-3.75 -6.23,-1.94 a 2.7,2.7 0 0 0 0.18,4.09 c 0.8,0.58 1.19,0.42 2.36,0.68 1.17,0.26 0.43,1.61 0.52,2.06 a 1.47,1.47 0 0 0 2,0.92 c 1.08,-0.47 1,1.31 -0.07,1.68 -0.29,0.11 -0.6,1.75 -0.17,1.82 0.43,0.07 1.65,0.07 1.78,-1 0.07,-0.62 0.87,-1 1.71,-1.59 a 2.66,2.66 0 0 0 1.85,0.77 c 0.67,-0.1 0.68,-0.63 2.1,-1.58 1.42,-0.95 1,-2.96 0.44,-3.69 z"
         class="cls-16" />
      <path
         inkscape:connector-curvature="0"
         id="path148"
         d="m 188.34,140.32 c -2.83,-0.73 -4.39,-2.06 -3.14,-3.48 0.35,-0.4 4.27,-6 4.27,-6 0,0 1.05,6.33 -1.13,9.48 z"
         class="cls-11" />
      <text
         id="text158"
         transform="translate(249.86,145.17)"
         class="cls-23">Family<tspan
   id="tspan152"
   y="0"
   x="16.59" /></text>
    </g>
  </g>
</svg>
