<?xml version="1.0" encoding="UTF-8" standalone="no"?>
<svg
   xmlns:dc="http://purl.org/dc/elements/1.1/"
   xmlns:cc="http://creativecommons.org/ns#"
   xmlns:rdf="http://www.w3.org/1999/02/22-rdf-syntax-ns#"
   xmlns:svg="http://www.w3.org/2000/svg"
   xmlns="http://www.w3.org/2000/svg"
   xmlns:sodipodi="http://sodipodi.sourceforge.net/DTD/sodipodi-0.dtd"
   xmlns:inkscape="http://www.inkscape.org/namespaces/inkscape"
   inkscape:version="1.0beta2 (2b71d25, 2019-12-03)"
   sodipodi:docname="family_1.svg"
   id="svg161"
   version="1.1"
   viewBox="0 0 395.82 268.66">
  <metadata
     id="metadata165">
    <rdf:RDF>
      <cc:Work
         rdf:about="">
        <dc:format>image/svg+xml</dc:format>
        <dc:type
           rdf:resource="http://purl.org/dc/dcmitype/StillImage" />
        <dc:title>FORM</dc:title>
      </cc:Work>
    </rdf:RDF>
  </metadata>
  <sodipodi:namedview
     inkscape:current-layer="Character"
     inkscape:window-maximized="1"
     inkscape:window-y="23"
     inkscape:window-x="0"
     inkscape:cy="134.33"
     inkscape:cx="197.91"
     inkscape:zoom="2.0360306"
     showgrid="false"
     id="namedview163"
     inkscape:window-height="755"
     inkscape:window-width="1280"
     inkscape:pageshadow="2"
     inkscape:pageopacity="0"
     guidetolerance="10"
     gridtolerance="10"
     objecttolerance="10"
     borderopacity="1"
     inkscape:document-rotation="0"
     bordercolor="#666666"
     pagecolor="#ffffff" />
  <defs
     id="defs12">
    <style
       id="style10">.cls-1{fill:#ffaf66;opacity:0.72;}.cls-2{opacity:0.58;}.cls-3{fill:#f4e3bf;}.cls-4{fill:#413939;}.cls-5{fill:#b5b5b5;}.cls-6{fill:#252121;}.cls-7{fill:#b3d09f;}.cls-8{fill:#d2925e;}.cls-9{fill:#19212e;}.cls-10{fill:#384987;}.cls-11{fill:#2e3b61;}.cls-12{fill:#ebaf7f;}.cls-13{fill:#436361;}.cls-14{fill:#344a48;}.cls-15{fill:#3f281e;}.cls-16{fill:#3e2321;}.cls-17{fill:#d79662;}.cls-18{fill:#c479ef;}.cls-19{fill:#b16fd8;}.cls-20{fill:#ebf1f8;}.cls-21{fill:#934640;}.cls-22{fill:#fff;}.cls-23{font-size:30px;fill:#e88846;font-family:Andor-PersonalUse, Andor;}.cls-24{letter-spacing:-0.04em;}.cls-25{letter-spacing:0.05em;}</style>
  </defs>
  <title
     id="title14">FORM</title>
  <g
     id="Character">
    <path
       id="path16"
       d="M83.9,192.89a11,11,0,0,1-8.17-3.64c-9.3-10.37-32.62-42-14.12-82.2,10.91-23.66,40-29.22,48.76-24.38,11.6,6.39,27-10.86,60.28-22.71,25-8.9,81.63,9.25,63.19,65.09-10,30.33,23.47,26.35,25.78,56.27a11.08,11.08,0,0,1-11,12Z"
       class="cls-1" />
    <g
       id="g34"
       class="cls-2">
      <rect
         id="rect18"
         height="66.58"
         width="65.43"
         y="126.5"
         x="95.74"
         class="cls-3" />
      <rect
         id="rect20"
         height="66.58"
         width="50.83"
         y="126.5"
         x="161.17"
         class="cls-3" />
      <polygon
         id="polygon22"
         points="177.81 98.1 156.37 130.99 91.23 130.99 125.19 98.22 177.81 98.1"
         class="cls-4" />
      <polygon
         id="polygon24"
         points="180.38 98.1 158.94 130.99 93.8 130.99 127.76 98.22 180.38 98.1"
         class="cls-3" />
      <path
         id="path26"
         d="M128.35,114.55H127c-4.65,0-8.42,2.8-8.42,6.27v15.93h17.93V120.61C136.49,117.26,132.84,114.55,128.35,114.55Z"
         class="cls-5" />
      <path
         id="path28"
         d="M126.3,148.32h-1.36c-4.65,0-8.42,5.63-8.42,12.57v32h17.93V160.48C134.45,153.76,130.8,148.32,126.3,148.32Z"
         class="cls-5" />
      <polygon
         id="polygon30"
         points="219.09 132.82 159.96 132.82 125.02 98.1 144.69 98.1 183.12 98.11 219.09 132.82"
         class="cls-4" />
      <polygon
         id="polygon32"
         points="219.09 132.82 208.25 132.82 144.69 98.1 183.12 98.11 219.09 132.82"
         class="cls-6" />
    </g>
    <path
       id="path36"
       d="M235.12,192.92c-7.32-4.18-16.19-8-23.48-4.66s-10.09,7.89-18.09-2.54a12.26,12.26,0,0,0-2-2.15c1.42-.5,3.31-1.36,2.47-2.23s-2.33.64-3.18,1.73a5,5,0,0,0-.62-.3c1.93-2.66,5.35-7.69,3.76-7.86s-3.47,4.88-4.39,7.67a2.59,2.59,0,0,0-.47-.05c-.09-1.45-.39-4-1.49-4.18s.2,2.67,1,4.2c-4.31.56-7.23,10-16.27,4a4.25,4.25,0,0,0-4.18-.29c-.85-3.62-3.38-13.47-5.47-12.45s3.09,9.55,5,12.64a7.69,7.69,0,0,0-.69.39c-1.19-1.69-3.42-4.41-4.69-3.22s1.87,2.85,3.9,3.76a22.18,22.18,0,0,0-4.72,5.5Z"
       class="cls-7" />
    <path
       id="path38"
       d="M166.24,100.81s3.9,1.84,4.79,1.61,4.26-.83,4.73-.62c0,0,.54.86.13,1.42a12,12,0,0,1-4.87,2.14c-1.18.06-5.67-.76-6.63-1.5Z"
       class="cls-8" />
    <path
       id="path40"
       d="M175.64,101.82s1.51-.62,2,.07a3.1,3.1,0,0,1,.71,1.77c-.06.35-1.08.51-1.48.23a10.75,10.75,0,0,0-1.42-.66Z"
       class="cls-8" />
    <path
       id="path42"
       d="M182.83,189.41a6.4,6.4,0,0,0-.85,2.9.63.63,0,0,0,.63.63h5.18a.77.77,0,0,0,.75-.95,6.39,6.39,0,0,0-1.79-3.25C185.1,187.35,182.83,189.41,182.83,189.41Z"
       class="cls-9" />
    <path
       id="path44"
       d="M174.64,188s-.3,4.8-1.23,4.87H162.78a2,2,0,0,1,1.82-1.75c1.71-.3,4.57-1.5,5.61-3.76S174.64,188,174.64,188Z"
       class="cls-9" />
    <path
       id="path46"
       d="M177.12,158.37a21.27,21.27,0,0,0,0,5.78c1.22,4.46-2.2,24.63-2.2,24.63-2.53,1.2-6.11,0-6.11,0,.22-2.79-1.11-27.8-2.35-43-.51-6.4-.9-10.88-.9-10.88l15.11-1.76S177.83,149.11,177.12,158.37Z"
       class="cls-10" />
    <path
       id="path48"
       d="M180.71,133.07s-2.88,16-3.59,25.3L166.5,145.71c-.51-6.4-.9-10.88-.9-10.88Z"
       class="cls-11" />
    <path
       id="path50"
       d="M173.3,136.49s7.65,44.55,9,53.18a9.66,9.66,0,0,0,5.79-.44s.38-20.71-.62-26.94.53-25.52-1.09-27.31S173.3,136.49,173.3,136.49Z"
       class="cls-10" />
    <path
       id="path52"
       d="M174.09,98.5a25.7,25.7,0,0,0-.33,5.14c.26,1.18,4.19,1.82,5.83.85s1.15-1.34,1.15-1.34a40.19,40.19,0,0,0-.48-4.86C180,98,174.09,98.5,174.09,98.5Z"
       class="cls-12" />
    <path
       id="path54"
       d="M186.75,122.66a42.35,42.35,0,0,0-.11-11.53c-1.43-8.27-5.94-8.54-5.94-8.49,0,1.11-2.39,2.14-4.32,2a2.78,2.78,0,0,1-2.68-2s0,0-.09,0a27.56,27.56,0,0,0-4.17.36,6.13,6.13,0,0,0-3.18,1.22c-.31.32-1.41,1.21-2.81,2.43-3.58,3.1-9.18,8.28-8.93,11.37,0,0,6.92,5.08,11.3,1.89-.24,8.28-1.74,17-1.37,17,0,0,2.45,2.12,9.87,2.12a47.22,47.22,0,0,0,9-.75,13.64,13.64,0,0,0,3.88-1.2C187.86,137.1,186.57,124.38,186.75,122.66Z"
       class="cls-13" />
    <path
       id="path56"
       d="M187.24,137.11a13.64,13.64,0,0,1-3.88,1.2c-3.84-1.7-11.46-6.1-11.75-13.47-.4-9.82,11.58-15.66,11.58-15.66s1.61.89,3.45,1.95a42.35,42.35,0,0,1,.11,11.53C186.57,124.38,187.86,137.1,187.24,137.11Z"
       class="cls-14" />
    <path
       id="path58"
       d="M174,98.94s1.52,2.15,3.13,2.17S180.42,99,180.42,99Z"
       class="cls-8" />
    <path
       id="path60"
       d="M173.88,98.84A10.06,10.06,0,0,0,176,99.93a2.62,2.62,0,0,0,1.83,0,26,26,0,0,0,2.57-1c.81-.49.76-1.48.8-2.86a20.72,20.72,0,0,0,0-3.85c-.21-1.13-.93-1.77-2.92-1.94-3.67-.32-5.2.6-5.26,1.83,0,.33,0,.64,0,.94C172.88,96.93,173.18,98.29,173.88,98.84Z"
       class="cls-12" />
    <path
       id="path62"
       d="M173.05,92.61a1.54,1.54,0,0,1,1.73-.54c1.12.35,1.24,1.31,3.17,1.16s2.39-1.07,2.74-.61a13,13,0,0,1,.54,3.15s3.88-8.84-4-8.84c0,0-8.09-.49-4.2,8.5Z"
       class="cls-15" />
    <path
       id="path64"
       d="M158.77,101h0Z"
       class="cls-12" />
    <path
       id="path66"
       d="M176.86,128.17a4.44,4.44,0,0,1-2.54.81s-1.53-1.69-2.82-3.33a11.32,11.32,0,0,1-1.73-2.63c-.38-1.37-7.6-1.76-8.48-2.72s3.58-3.38,3.58-3.38,7.33,1.12,8.43,2.56a20,20,0,0,1,1.72,3.65C176,125.54,176.86,128.17,176.86,128.17Z"
       class="cls-8" />
    <path
       id="path68"
       d="M166.6,108.08s1.39-2.7,2.08-2.62-1.58,5.58-1.79,8.26S166.6,108.08,166.6,108.08Z"
       class="cls-14" />
    <path
       id="path70"
       d="M171,126.64a44.4,44.4,0,0,1-2.37,4.73l0,0h0c-.24,0-2.25-.05-2.45-.86,0,0-.06-2.79,0-5a11.86,11.86,0,0,1,.28-2.34s-10.91-.07-10.72-3.16,5.89-4.71,9.17-3.11a24.55,24.55,0,0,1,6.64,3.66C172.63,121.61,171.94,124.23,171,126.64Z"
       class="cls-12" />
    <path
       id="path72"
       d="M156,115.71a6.62,6.62,0,0,0-1.11,4.12c.34,2,4.49,3.06,7.39,3.19,0,0,8.29-1.9,7-5.21C169,117.06,156,115.71,156,115.71Z"
       class="cls-10" />
    <path
       id="path74"
       d="M159,89.47s-1.32-2.7-4.5-1-.09,7.86-1.76,9.42.61,2.57.27,3.68.63,2.38,2.85,2.23,4.58,0,5.58-2a11.78,11.78,0,0,0,.39-6.83C161.48,94.33,159,89.47,159,89.47Z"
       class="cls-16" />
    <path
       id="path76"
       d="M164.19,104.25,158.78,101a5.34,5.34,0,0,0,.55-1.35,6.27,6.27,0,0,0,.3-1.27s0-.07,0-.11a3.62,3.62,0,0,0,0-.78l1.19.43,2.19.79a2.65,2.65,0,0,0,.17,1.22,1,1,0,0,0,.83.65Z"
       class="cls-12" />
    <path
       id="path78"
       d="M163.21,99.92a4.11,4.11,0,0,1-3.58-1.55.34.34,0,0,0,0-.08l.07,0,1.2-.35,2.19.79A2.65,2.65,0,0,0,163.21,99.92Z"
       class="cls-17" />
    <path
       id="path80"
       d="M163.32,99.16s-4.71.51-4.81-2.67-.79-4.64,2.47-4.92,4,.89,4.21,2C165.79,96.9,164.64,99,163.32,99.16Z"
       class="cls-12" />
    <path
       id="path82"
       d="M161.23,93.12c-1.67-.42-1,2.53-1.45,2.33s-1.28-.22-1.15.34a10.1,10.1,0,0,0,.41,1.13c.09.36,0,1.06-.39.92s-4-4.26-1.45-7.46,10.13-1.23,7.74,2.12C164.52,93.09,162.42,93.42,161.23,93.12Z"
       class="cls-16" />
    <path
       id="path84"
       d="M167.27,116.91a8.13,8.13,0,0,1-3.64.72,25.1,25.1,0,0,1-6.36-1.34c-1.11-.4-1.86-.82-1.77-1.18.13-.51,1.07-4.46,1.95-8.11.8-3.34,1.53-6.43,1.53-6.43s2.21,1.57,3.49,1,1.12-1.18,1.12-1.18a15.32,15.32,0,0,1,1.93-.14,27.15,27.15,0,0,1,3,.92,2.78,2.78,0,0,1-.5,2.19,2.88,2.88,0,0,1-1.32,1.32A27.16,27.16,0,0,1,167.27,116.91Z"
       class="cls-18" />
    <path
       id="path86"
       d="M160.19,111.59a3.57,3.57,0,0,1,1.89.09c.53.35.69.9.31,1.12a2.47,2.47,0,0,1-2.42-.08Z"
       class="cls-12" />
    <path
       id="path88"
       d="M157.27,116.29c-1.11-.4-1.86-.82-1.77-1.18.13-.51,1.07-4.46,1.95-8.11l.42-.75S159.53,113.82,157.27,116.29Z"
       class="cls-19" />
    <path
       id="path90"
       d="M159,101s-4.19.88-5.84,7.39a2,2,0,0,0,.45,1.81c.76.84,2.43,2.07,6.32,2.52.43,0,.48-1,.48-1a29.25,29.25,0,0,1-3.75-2.64.6.6,0,0,1,0-.75,18.54,18.54,0,0,0,1.21-2.06C158.18,105.51,160.21,101.33,159,101Z"
       class="cls-12" />
    <path
       id="path92"
       d="M159,100.57a6.73,6.73,0,0,0-4.47,2.85,4.86,4.86,0,0,0,3.86,3.12S160.35,102.11,159,100.57Z"
       class="cls-18" />
    <path
       id="path94"
       d="M171,126.64a44.4,44.4,0,0,1-2.37,4.73l0,0c-.24,0-2.25-.05-2.45-.86,0,0-.06-2.79,0-5C166.46,125.83,167.7,126.75,171,126.64Z"
       class="cls-20" />
    <path
       id="path96"
       d="M176.86,128.17a4.44,4.44,0,0,1-2.54.81s-1.53-1.69-2.82-3.33a14.06,14.06,0,0,0,3.52-2.52C176,125.54,176.86,128.17,176.86,128.17Z"
       class="cls-20" />
    <path
       id="path98"
       d="M171.66,134.41a.46.46,0,0,1-.55.37,21.73,21.73,0,0,1-2.14-.52c-.64-.23-1.87-1-2.51-1.19l-1.1-.44a.38.38,0,0,1-.22-.46,7.41,7.41,0,0,1,.65-1.61.67.67,0,0,1,.26-.24,2.48,2.48,0,0,0,1.56.56,3.25,3.25,0,0,0,1.41-.29c0,.09.92,1.85,1.54,2.08A1.53,1.53,0,0,1,171.66,134.41Z"
       class="cls-21" />
    <path
       id="path100"
       d="M180.81,128.19a.46.46,0,0,1-.2.63c-.55.27-1.55.76-2,.91-.64.22-2.06.41-2.71.62-.22.08-.77.24-1.12.34a.37.37,0,0,1-.46-.22,7.79,7.79,0,0,1-.5-1.67.61.61,0,0,1,.07-.35,2.48,2.48,0,0,0,1.57-.53,3.42,3.42,0,0,0,.92-1.1c.09,0,1.87.89,2.49.68A1.53,1.53,0,0,1,180.81,128.19Z"
       class="cls-21" />
    <path
       id="path102"
       d="M172,124.66a4.67,4.67,0,0,1-1.5,2.66s-4.8-.66-9.28-1.79c-3.28-.84-6.39-1.92-7.28-3.19-2.1-3,1.1-6.61,1.1-6.61s6.16,3,12.84,6.63C169.24,123.1,170.63,123.88,172,124.66Z"
       class="cls-13" />
    <path
       id="path104"
       d="M164.76,127.32a4,4,0,0,0-2,.65c-.54.54-1.35,2.11-.77,2.74s3.36-.75,3.43-1A15.36,15.36,0,0,0,164.76,127.32Z"
       class="cls-12" />
    <path
       id="path106"
       d="M172,124.66a4.67,4.67,0,0,1-1.5,2.66s-4.8-.66-9.28-1.79a16.07,16.07,0,0,1,6.66-3.17C169.24,123.1,170.63,123.88,172,124.66Z"
       class="cls-14" />
    <path
       id="path108"
       d="M188.29,105c-1-2.28-7.28-2.37-7.28-2.37a107,107,0,0,0-4.83,17.52,1.27,1.27,0,0,0-.39,0,56.5,56.5,0,0,0-11.22,6.63,3.87,3.87,0,0,0,.56,3.5s11.56-2.55,14.79-4.44h0l.1-.06.14-.1C190.66,118.9,189.66,108.3,188.29,105Z"
       class="cls-13" />
    <path
       id="path110"
       d="M208,127.78c-.94-1.56-1.53-8.56-2.21-10.44-.43-1.18-1.58-2.6-1.46-2.69a16.62,16.62,0,0,0-4.55-1.07h0l-.38-.08a.92.92,0,0,1-.82-.72.13.13,0,0,0,0-.06,11.89,11.89,0,0,1-.05-1.44v0c0-.72.06-1.25.06-1.25h0l-4.3-.69c-.06,1.34-.14,2.34-.22,3.09a1.19,1.19,0,0,1-1.1,1h-.26a17.61,17.61,0,0,0-3.84.22,1.4,1.4,0,0,0-.27.11c.07.07-10.21,10.37-9.95,11.57s4.78,8,6.42,9.21h1.63s-3.63-8.27-3.67-8.94c-.07-1,9.12-6.48,9.12-7.48,0-.37,2.56-.48,4.24-.47a25.56,25.56,0,0,0,5.12-.91s1.44,10.95,3.27,14.2c1.44,2.56,7.8,9.12,7.8,9.12l1.34-1.19S210.25,131.58,208,127.78Z"
       class="cls-12" />
    <path
       id="path112"
       d="M194.94,169.93a110.46,110.46,0,0,1-.17,17.66h-2.63a62.19,62.19,0,0,1-4.33-19.5c-.12-1.34-1.94-6.71-3.56-11.88-1.37-4.31-2.59-8.48-2.6-10,0-3.58,3.55-9.33,3.55-9.33a63.17,63.17,0,0,1,8.29,3.93,6.23,6.23,0,0,1,2.14,1.84c.73,1.43,1.28,11.7-.68,18-1.17,3.78-.57,5.72-.57,5.72A32.29,32.29,0,0,1,194.94,169.93Z"
       class="cls-4" />
    <path
       id="path114"
       d="M195,160.58c-1.17,3.78-.57,5.72-.57,5.72a32.29,32.29,0,0,1,.56,3.63l-10.69-13.72c-1.37-4.31-2.59-8.48-2.6-10,0-3.58,3.55-9.33,3.55-9.33a63.17,63.17,0,0,1,8.29,3.93,6.23,6.23,0,0,1,2.14,1.84C196.36,144,196.91,154.31,195,160.58Z"
       class="cls-6" />
    <path
       id="path116"
       d="M192.14,187.59a9.53,9.53,0,0,1-.37,2.08,5.52,5.52,0,0,1-2.21,1.94c-1.06.4-4.1.19-4.34,1.3h10.7a7.62,7.62,0,0,0-.26-2.75c-.42-1.08-.89-2.57-.89-2.57Z"
       class="cls-10" />
    <path
       id="path118"
       d="M210,187.21a21.12,21.12,0,0,1,1.49,2.28c.3.65,2.24,3.39,2,3.42s-5.43,0-5.43,0a6.29,6.29,0,0,1-.47-2.18c.06-.89-.7-2.57-.56-3.52S210,187.21,210,187.21Z"
       class="cls-10" />
    <path
       id="path120"
       d="M210,187.21h-3s-11.54-16.69-11.93-20.93c-.5-5.3-4.21-26.24-4.21-26.24l11.84-3.68s1,2.66,1.9,5.34c.38,1.17.73,2.34.94,3.3.48,2.12-.86,10.12-1.77,15.81a52.54,52.54,0,0,0-.77,5.74C203.13,168.68,207,169,210,187.21Z"
       class="cls-4" />
    <path
       id="path122"
       d="M194.17,110.49c0,.1,0,.21,0,.31C194.16,110.7,194.16,110.59,194.17,110.49Z"
       class="cls-10" />
    <path
       id="path124"
       d="M194.19,110.05c0,.11,0,.22,0,.33C194.18,110.27,194.19,110.16,194.19,110.05Z"
       class="cls-10" />
    <path
       id="path126"
       d="M194.23,109.33c0,.08,0,.16,0,.24a1.93,1.93,0,0,1,0-.24Z"
       class="cls-10" />
    <path
       id="path128"
       d="M204.41,139.15c.39,1.15-5.18,1.83-11.36,1.75a19.88,19.88,0,0,1-4.71-.58c-2.83-.73-4.39-2.06-3.14-3.48.35-.4,4.27-6,4.27-6,.23-.51,0-2.15-1.22-6.06a4.26,4.26,0,0,1,.38-3.23h0a.61.61,0,0,0,0-.54,12.9,12.9,0,0,0-2-2.53A21.2,21.2,0,0,0,185,117a19.55,19.55,0,0,1,3.58-3.14c1.32,1.38,4.18,3.87,7.78,3.89,3.11,0,6.12-1.72,8-3a1.31,1.31,0,0,1,.33.26,8.76,8.76,0,0,1,1.47,3.77s-3.69,2-3.63,2.71a17.36,17.36,0,0,1,.28,3h0a4.65,4.65,0,0,1-.19.79c-.63,2-2,5-1.65,6.07C201,131.53,203.86,137.48,204.41,139.15Z"
       class="cls-10" />
    <path
       id="path130"
       d="M188.82,113.7l.19,0-.2,0Z"
       class="cls-12" />
    <path
       id="path132"
       d="M198.74,113.2a1,1,0,0,0,.33.22A1,1,0,0,1,198.74,113.2Z"
       class="cls-12" />
    <path
       id="path134"
       d="M199.07,113.42l.14,0Z"
       class="cls-12" />
    <path
       id="path136"
       d="M213.86,138.92a12.67,12.67,0,0,1,2.57.9c.31.32,1.2,2.77.89,2.8a3.28,3.28,0,0,1-2.48-.76c-1-1.07-2.44-1.25-2.37-2S213.86,138.92,213.86,138.92Z"
       class="cls-12" />
    <path
       id="path138"
       d="M185,134.59a13.66,13.66,0,0,0-1.64,2.45c0,.37.33,1.94.73,2s.53-1.29.84-1.53,1.41-.7,1.57-1.12a8.61,8.61,0,0,0,.13-1.77Z"
       class="cls-12" />
    <path
       id="path140"
       d="M194,112.28c2-.26,4.51-2.26,4.51-2.26a4.85,4.85,0,0,0-3.67-.59,4.16,4.16,0,0,0-.65.24Z"
       class="cls-8" />
    <path
       id="path142"
       d="M193.29,110.31s5,1.68,6-1.47,2.32-5-.85-6.25-4.17-.2-4.76.77S192,109.8,193.29,110.31Z"
       class="cls-12" />
    <path
       id="path144"
       d="M195.09,108.93s-.18.36-1.13.07c0,0-.8-.25-.67-.67A2.67,2.67,0,0,1,195.09,108.93Z"
       class="cls-22" />
    <path
       id="path146"
       d="M206.78,102.92c-.56-.72,1.29-2.21-2.47-4-2.85-1.36-3.73.7-4,1.78-1.7-1-4.46-3.75-6.23-1.94a2.7,2.7,0,0,0,.18,4.09c.8.58,1.19.42,2.36.68s.43,1.61.52,2.06a1.47,1.47,0,0,0,2,.92c1.08-.47,1,1.31-.07,1.68-.29.11-.6,1.75-.17,1.82s1.65.07,1.78-1c.07-.62.87-1,1.71-1.59a2.66,2.66,0,0,0,1.85.77c.67-.1.68-.63,2.1-1.58S207.34,103.65,206.78,102.92Z"
       class="cls-16" />
    <path
       id="path148"
       d="M188.34,140.32c-2.83-.73-4.39-2.06-3.14-3.48.35-.4,4.27-6,4.27-6S190.52,137.17,188.34,140.32Z"
       class="cls-11" />
    <text
       id="text158"
       transform="translate(249.86,145.17)"
       class="cls-23">Family<tspan
   id="tspan152"
   y="0"
   x="16.59" /></text>
  </g>
</svg>
