<?xml version="1.0" encoding="UTF-8" standalone="no"?>
<svg
   xmlns:dc="http://purl.org/dc/elements/1.1/"
   xmlns:cc="http://creativecommons.org/ns#"
   xmlns:rdf="http://www.w3.org/1999/02/22-rdf-syntax-ns#"
   xmlns:svg="http://www.w3.org/2000/svg"
   xmlns="http://www.w3.org/2000/svg"
   xmlns:sodipodi="http://sodipodi.sourceforge.net/DTD/sodipodi-0.dtd"
   xmlns:inkscape="http://www.inkscape.org/namespaces/inkscape"
   inkscape:version="1.0beta2 (2b71d25, 2019-12-03)"
   sodipodi:docname="forms-guides.svg"
   id="svg1816"
   version="1.1"
   viewBox="0 0 421.86 256.4">
  <metadata
     id="metadata1820">
    <rdf:RDF>
      <cc:Work
         rdf:about="">
        <dc:format>image/svg+xml</dc:format>
        <dc:type
           rdf:resource="http://purl.org/dc/dcmitype/StillImage" />
        <dc:title>FORM</dc:title>
      </cc:Work>
    </rdf:RDF>
  </metadata>
  <sodipodi:namedview
     inkscape:current-layer="svg1816"
     inkscape:window-maximized="1"
     inkscape:window-y="23"
     inkscape:window-x="0"
     inkscape:cy="128.2"
     inkscape:cx="210.92999"
     inkscape:zoom="2.1333854"
     showgrid="false"
     id="namedview1818"
     inkscape:window-height="755"
     inkscape:window-width="1280"
     inkscape:pageshadow="2"
     inkscape:pageopacity="0"
     guidetolerance="10"
     gridtolerance="10"
     objecttolerance="10"
     borderopacity="1"
     inkscape:document-rotation="0"
     bordercolor="#666666"
     pagecolor="#ffffff" />
  <defs
     id="defs1571">
    <style
       id="style1569">.cls-1{fill:#fcd0d4;}.cls-2{font-size:30px;font-family:Andor-PersonalUse, Andor;}.cls-2,.cls-7{fill:#e8505b;}.cls-3{letter-spacing:-0.04em;}.cls-4{letter-spacing:0em;}.cls-5{fill:#d31849;}.cls-6{fill:#263238;}.cls-8{opacity:0.1;}.cls-9{fill:#fff;}.cls-10{fill:#186b8c;}.cls-11{fill:#e0e0e0;}.cls-12{fill:#ebebeb;}.cls-13{fill:#fafafa;}.cls-14{opacity:0.3;}.cls-15{fill:#ffbe9d;}.cls-16{fill:#3f331f;}.cls-17{fill:#2d2417;}.cls-18{opacity:0.5;}.cls-19{opacity:0.4;}.cls-20{fill:#0a2733;}.cls-21{fill:#455a64;}</style>
  </defs>
  <title
     id="title1573">FORM</title>
  <g
     id="Character">
    <path
       id="path1575"
       d="M66.51,195.58s-40.36-41.4-17.63-97.36C59.79,71.37,88.83,65.07,97.63,70.56c11.61,7.25,27-12.32,60.29-25.76,25-10.1,81.63,10.49,63.19,73.83-7.62,26.16,9.91,29.82,19.77,45,9.06,14-1.28,32.41-17.92,32.37Z"
       class="cls-1" />
    <text
       id="text1583"
       transform="translate(247.93,121.44)"
       class="cls-2"><tspan
         id="tspan1579"
         class="cls-3">F<tspan
   id="tspan1577"
   y="0"
   x="16.379999"
   class="cls-4">orms and</tspan></tspan><tspan
         id="tspan1581"
         y="36"
         x="32.009998">guides</tspan></text>
    <path
       id="path1585"
       d="M200,100.38a1,1,0,0,0-.23-.08,1.93,1.93,0,0,0-.72,0,2.6,2.6,0,0,0-1,.54,5.54,5.54,0,0,0-1.06,1.23,22.42,22.42,0,0,0-1.83,4.15c-.61,1.67-1.29,3.61-1.86,5.82h0a1.75,1.75,0,0,1-.38.48.73.73,0,0,1-.6.19,1.09,1.09,0,0,1-.56-.32,6.25,6.25,0,0,1-.44-.45,9.71,9.71,0,0,0-.92-.89,1.64,1.64,0,0,0-1.15-.47,1.59,1.59,0,0,0-1.07.7,2.69,2.69,0,0,0-.36,1.32,12.82,12.82,0,0,0,.38,2.89c.18,1,.37,2,.57,3,.09.52.19,1,.29,1.57l.15.8a1,1,0,0,1-.1.85.42.42,0,0,1-.44.15,1.22,1.22,0,0,1-.39-.21l-.67-.5a14.87,14.87,0,0,0-1.4-.94,5.27,5.27,0,0,0-1.57-.65,1.79,1.79,0,0,0-.83,0,1.23,1.23,0,0,0-.68.46,2.8,2.8,0,0,0-.44,1.65,9.11,9.11,0,0,0,.17,1.79,22,22,0,0,0,1,3.56,6.19,6.19,0,0,1,.29.92.68.68,0,0,1-.13.51l-.09.1c-.05,0-.05.05-.13.07a.38.38,0,0,1-.29-.06,5.08,5.08,0,0,1-.76-.61l-.71-.66a11.68,11.68,0,0,0-1.5-1.21,3.75,3.75,0,0,0-.87-.39,1.08,1.08,0,0,0-.88.11,1.24,1.24,0,0,0-.5.76,3.53,3.53,0,0,0-.12,1,7.9,7.9,0,0,0,.25,2,17.24,17.24,0,0,0,1.43,3.79,28.22,28.22,0,0,0,2.14,3.56c.38.58.85,1.11,1.29,1.66l1.34,1.64v0l-.07,0,2.1-.3c.69-.12,1.4-.18,2.07-.36a29.34,29.34,0,0,0,4-1.19,17.15,17.15,0,0,0,3.62-1.85,8.17,8.17,0,0,0,1.51-1.29,4,4,0,0,0,.57-.8,1.24,1.24,0,0,0,.14-.9,1.06,1.06,0,0,0-.58-.68,3.16,3.16,0,0,0-.9-.29,10.42,10.42,0,0,0-1.93-.11h-1a5.34,5.34,0,0,1-1-.07.36.36,0,0,1-.26-.15.27.27,0,0,1,0-.14.57.57,0,0,1,0-.13.67.67,0,0,1,.26-.46,4.75,4.75,0,0,1,.83-.49,22.72,22.72,0,0,0,3.14-2,9,9,0,0,0,1.33-1.21,2.76,2.76,0,0,0,.78-1.52,1.16,1.16,0,0,0-.2-.79,1.85,1.85,0,0,0-.61-.57,5.37,5.37,0,0,0-1.6-.57,13.43,13.43,0,0,0-1.67-.24l-.83-.08a1.36,1.36,0,0,1-.43-.11.41.41,0,0,1-.22-.41,1,1,0,0,1,.5-.69l.65-.49,1.27-1,2.46-1.86a13.31,13.31,0,0,0,2.22-1.89,2.58,2.58,0,0,0,.61-1.21,1.55,1.55,0,0,0-.31-1.24,1.15,1.15,0,0,0-.54-.32,2.68,2.68,0,0,0-.63-.11,10.87,10.87,0,0,0-1.28,0c-.21,0-.42,0-.63,0a1.08,1.08,0,0,1-.63-.14.74.74,0,0,1-.31-.54,1.78,1.78,0,0,1,0-.61h0c1.06-2,1.86-3.91,2.53-5.56a22.67,22.67,0,0,0,1.44-4.29,5.67,5.67,0,0,0,.06-1.62,2.54,2.54,0,0,0-.38-1.1,1.56,1.56,0,0,0-.51-.5,1.71,1.71,0,0,0-.22-.11,1,1,0,0,1,.22.1,1.36,1.36,0,0,1,.53.49,2.63,2.63,0,0,1,.41,1.12,5.73,5.73,0,0,1-.06,1.63,22.46,22.46,0,0,1-1.41,4.31c-.67,1.65-1.46,3.55-2.52,5.58v0a1.82,1.82,0,0,0,0,.57.67.67,0,0,0,.27.48,1.06,1.06,0,0,0,.57.11l.62,0a9.16,9.16,0,0,1,1.29,0,2.59,2.59,0,0,1,.67.1,1.35,1.35,0,0,1,.59.36,1.68,1.68,0,0,1,.34,1.34,2.72,2.72,0,0,1-.63,1.27,13.36,13.36,0,0,1-2.24,1.91l-2.46,1.87-1.27,1-.64.49a1.93,1.93,0,0,0-.3.26.71.71,0,0,0-.15.33.28.28,0,0,0,.15.27,1.13,1.13,0,0,0,.37.1l.83.07a16.4,16.4,0,0,1,1.69.25,5.6,5.6,0,0,1,1.65.58,2,2,0,0,1,.66.61,1.4,1.4,0,0,1,.22.89,2.89,2.89,0,0,1-.81,1.61,9.45,9.45,0,0,1-1.36,1.24,22.4,22.4,0,0,1-3.16,2,6.23,6.23,0,0,0-.8.47.48.48,0,0,0-.19.35.17.17,0,0,0,0,.1s0,.09,0,.08.09.06.16.07a4.08,4.08,0,0,0,.93.06h1a10.86,10.86,0,0,1,2,.12,3,3,0,0,1,.95.31,1.24,1.24,0,0,1,.67.78,1.51,1.51,0,0,1-.16,1,4,4,0,0,1-.59.83,8.46,8.46,0,0,1-1.54,1.32,17.3,17.3,0,0,1-3.66,1.87,29.22,29.22,0,0,1-4,1.2c-.69.18-1.39.24-2.09.36l-2.1.3h-.05l0,0v0l-1.35-1.64c-.44-.56-.91-1.08-1.29-1.67a29.77,29.77,0,0,1-2.15-3.58,17.32,17.32,0,0,1-1.45-3.84,8,8,0,0,1-.25-2,4.29,4.29,0,0,1,.12-1,1.48,1.48,0,0,1,.57-.86,1.26,1.26,0,0,1,1-.13,3.26,3.26,0,0,1,.91.41,11,11,0,0,1,1.53,1.23l.71.66a4.49,4.49,0,0,0,.73.59.34.34,0,0,0,.16.05l.07-.05.08-.07A.52.52,0,0,0,184,128a4.47,4.47,0,0,0-.28-.88,24.65,24.65,0,0,1-1-3.59,10.19,10.19,0,0,1-.17-1.82A3,3,0,0,1,183,120a1.42,1.42,0,0,1,.76-.51,2.1,2.1,0,0,1,.9,0,5.22,5.22,0,0,1,1.61.67,16,16,0,0,1,1.42,1l.67.51a1.08,1.08,0,0,0,.33.18.3.3,0,0,0,.3-.1.66.66,0,0,0,.11-.35,1.84,1.84,0,0,0,0-.39l-.15-.79c-.1-.53-.19-1.06-.29-1.57-.19-1-.38-2-.56-3a13.37,13.37,0,0,1-.38-2.92,2.83,2.83,0,0,1,.39-1.37,1.68,1.68,0,0,1,1.15-.76,1.3,1.3,0,0,1,.68.13,3.1,3.1,0,0,1,.57.37,9.89,9.89,0,0,1,.92.91c.15.15.29.3.44.44a1,1,0,0,0,.49.3.71.71,0,0,0,.52-.17,1.51,1.51,0,0,0,.36-.44h0a57.47,57.47,0,0,1,1.89-5.83,21.33,21.33,0,0,1,1.86-4.15,5.56,5.56,0,0,1,1.07-1.23,2.53,2.53,0,0,1,1.07-.53,1.55,1.55,0,0,1,.72,0A.73.73,0,0,1,200,100.38Z"
       class="cls-5" />
    <path
       id="path1587"
       d="M198.28,104.87l0,.11-.12.31c-.11.28-.26.68-.45,1.19L196,110.84l-5.49,14.42c-2.14,5.64-4.09,10.73-5.54,14.41-.72,1.84-1.31,3.32-1.73,4.34l-.48,1.18-.13.3,0,.1s0,0,0-.1l.11-.31.46-1.19,1.68-4.37,5.49-14.42c2.13-5.63,4.09-10.73,5.53-14.4.73-1.84,1.32-3.32,1.74-4.35.2-.5.37-.89.48-1.17l.13-.31A.69.69,0,0,1,198.28,104.87Z"
       class="cls-6" />
    <path
       id="path1589"
       d="M198.46,116.28a6.61,6.61,0,0,1-.83.49l-2,1.12c-.79.44-1.51.83-2.05,1.1a3.48,3.48,0,0,1-.88.38,8.57,8.57,0,0,1,.83-.49l2-1.14c.79-.44,1.52-.82,2-1.08A4.19,4.19,0,0,1,198.46,116.28Z"
       class="cls-6" />
    <path
       id="path1591"
       d="M192.41,119.18s-.83-1.48-1.75-3.35-1.65-3.41-1.6-3.43.83,1.48,1.75,3.35A36,36,0,0,1,192.41,119.18Z"
       class="cls-6" />
    <path
       id="path1593"
       d="M189.52,128a7.56,7.56,0,0,1-.72-.66c-.43-.43-1-1-1.61-1.75s-1.1-1.38-1.45-1.87a5.36,5.36,0,0,1-.54-.83,6.25,6.25,0,0,1,.63.75c.38.48.9,1.13,1.5,1.84s1.15,1.32,1.55,1.77A5.33,5.33,0,0,1,189.52,128Z"
       class="cls-6" />
    <path
       id="path1595"
       d="M195.57,126.56a5,5,0,0,1-.87.25c-.55.14-1.3.32-2.13.5l-2.14.45a4.34,4.34,0,0,1-.9.13,5.86,5.86,0,0,1,.87-.25c.54-.14,1.3-.31,2.13-.5l2.14-.45A4.26,4.26,0,0,1,195.57,126.56Z"
       class="cls-6" />
    <path
       id="path1597"
       d="M194,134.65a7.24,7.24,0,0,1-1.12.3c-.7.16-1.66.38-2.74.61s-2,.42-2.74.55a9.21,9.21,0,0,1-1.15.18,9,9,0,0,1,1.12-.3c.7-.16,1.67-.38,2.74-.6s2-.42,2.75-.56A8.94,8.94,0,0,1,194,134.65Z"
       class="cls-6" />
    <path
       id="path1599"
       d="M186.42,136.2s-.09-.07-.25-.23-.36-.37-.62-.66c-.52-.57-1.22-1.37-2-2.28s-1.37-1.78-1.81-2.41c-.22-.31-.39-.57-.5-.75a1.26,1.26,0,0,1-.17-.3,1.69,1.69,0,0,1,.22.26l.55.72c.47.61,1.11,1.45,1.84,2.37s1.42,1.72,1.91,2.31A8.45,8.45,0,0,1,186.42,136.2Z"
       class="cls-6" />
    <path
       id="path1601"
       d="M183.12,158.34c-5.74-4.63-6.57-12.54-5.85-19.55a7.59,7.59,0,0,1,.7-3.4,2.4,2.4,0,0,1,3-1c.84.47,1.15,1.51,1.58,2.38a6.77,6.77,0,0,0,2.57,2.81,2.63,2.63,0,0,0,2.39.39c1.05-.49,1.27-1.88,1.34-3.05.14-2.17.27-4.35.41-6.52a10.76,10.76,0,0,1,.59-3.44,3.62,3.62,0,0,1,2.44-2.29,2.19,2.19,0,0,1,2.61,1.65,10.19,10.19,0,0,1-.06,1.46,1.22,1.22,0,0,0,.64,1.2,1.41,1.41,0,0,0,1.31-.44,15.58,15.58,0,0,0,3.08-4,21.47,21.47,0,0,1,2.89-4.16,6.31,6.31,0,0,1,4.44-2.1,3.79,3.79,0,0,1,3.7,2.84c.31,1.67-.77,3.28-1.9,4.54a26,26,0,0,1-5.78,4.79,2.16,2.16,0,0,0-1,.92c-.31.76.37,1.58,1.12,1.89a13.5,13.5,0,0,0,2.71.49,2.62,2.62,0,0,1,2.14,1.52c.4,1.23-.69,2.41-1.72,3.16a22.63,22.63,0,0,1-6.87,3.36,7.36,7.36,0,0,0-2.53,1,2.17,2.17,0,0,0-.86,2.42,2.21,2.21,0,0,0,2.33,1.09,16.46,16.46,0,0,0,2.62-.8c1.65-.5,3.71-.25,4.64,1.21A3.69,3.69,0,0,1,206,150a8.52,8.52,0,0,1-2,2.76,22.4,22.4,0,0,1-10,6.07c-3.81,1-7.28,1.15-10.88-.45"
       class="cls-7" />
    <g
       id="g1605"
       class="cls-8">
      <path
         id="path1603"
         d="M183.12,158.34c-5.74-4.63-6.57-12.54-5.85-19.55a7.59,7.59,0,0,1,.7-3.4,2.4,2.4,0,0,1,3-1c.84.47,1.15,1.51,1.58,2.38a6.77,6.77,0,0,0,2.57,2.81,2.63,2.63,0,0,0,2.39.39c1.05-.49,1.27-1.88,1.34-3.05.14-2.17.27-4.35.41-6.52a10.76,10.76,0,0,1,.59-3.44,3.62,3.62,0,0,1,2.44-2.29,2.19,2.19,0,0,1,2.61,1.65,10.19,10.19,0,0,1-.06,1.46,1.22,1.22,0,0,0,.64,1.2,1.41,1.41,0,0,0,1.31-.44,15.58,15.58,0,0,0,3.08-4,21.47,21.47,0,0,1,2.89-4.16,6.31,6.31,0,0,1,4.44-2.1,3.79,3.79,0,0,1,3.7,2.84c.31,1.67-.77,3.28-1.9,4.54a26,26,0,0,1-5.78,4.79,2.16,2.16,0,0,0-1,.92c-.31.76.37,1.58,1.12,1.89a13.5,13.5,0,0,0,2.71.49,2.62,2.62,0,0,1,2.14,1.52c.4,1.23-.69,2.41-1.72,3.16a22.63,22.63,0,0,1-6.87,3.36,7.36,7.36,0,0,0-2.53,1,2.17,2.17,0,0,0-.86,2.42,2.21,2.21,0,0,0,2.33,1.09,16.46,16.46,0,0,0,2.62-.8c1.65-.5,3.71-.25,4.64,1.21A3.69,3.69,0,0,1,206,150a8.52,8.52,0,0,1-2,2.76,22.4,22.4,0,0,1-10,6.07c-3.81,1-7.28,1.15-10.88-.45" />
    </g>
    <path
       id="path1607"
       d="M184.52,157.78A40.53,40.53,0,0,1,187,149.5a83.6,83.6,0,0,1,4.79-9.56l1.4-2.45c.46-.8.92-1.59,1.43-2.35a48,48,0,0,1,3.18-4.17c1.09-1.28,2.18-2.46,3.2-3.55s2-2.11,3-3a37.86,37.86,0,0,1,4.79-3.85c.6-.42,1.08-.73,1.41-.93l.38-.23.13-.07-.12.08-.36.25c-.32.22-.8.53-1.39.95a41.38,41.38,0,0,0-4.73,3.9c-.93.88-1.9,1.89-2.92,3s-2.1,2.28-3.18,3.56a44.46,44.46,0,0,0-3.16,4.16c-.5.75-.95,1.54-1.42,2.34L192,140a87.77,87.77,0,0,0-4.8,9.53,42,42,0,0,0-2.49,8.24"
       class="cls-9" />
    <path
       id="path1609"
       d="M193.11,137.58a3.18,3.18,0,0,1-.08-.51c0-.33-.08-.8-.12-1.39-.09-1.17-.15-2.79-.21-4.58s-.15-3.41-.25-4.58c0-.58-.09-1.06-.13-1.38a2.18,2.18,0,0,1,0-.51,3,3,0,0,1,.11.5c.06.32.13.79.2,1.37.14,1.17.25,2.8.31,4.59s.11,3.36.15,4.59q0,.82.06,1.38A1.93,1.93,0,0,1,193.11,137.58Z"
       class="cls-9" />
    <path
       id="path1611"
       d="M208.3,135.8a2.41,2.41,0,0,1-.6,0l-1.64,0c-1.39.06-3.29.2-5.39.45s-4,.56-5.35.82l-1.61.32a4.45,4.45,0,0,1-.6.11,2.93,2.93,0,0,1,.58-.19c.37-.1.92-.24,1.6-.39,1.35-.3,3.25-.64,5.35-.89a51.56,51.56,0,0,1,5.41-.38c.7,0,1.26,0,1.65,0A4.13,4.13,0,0,1,208.3,135.8Z"
       class="cls-9" />
    <path
       id="path1613"
       d="M185.44,153.79s0-.06-.09-.19-.14-.33-.22-.56c-.19-.48-.45-1.2-.75-2.08-.6-1.77-1.36-4.24-2.16-7s-1.54-5.21-2.11-7l-.68-2.1-.18-.57a.65.65,0,0,1-.05-.21s0,.06.09.19l.22.56c.19.49.44,1.2.74,2.09.61,1.76,1.37,4.23,2.17,7s1.54,5.2,2.11,7c.28.86.5,1.58.68,2.1l.18.58A1.47,1.47,0,0,1,185.44,153.79Z"
       class="cls-9" />
    <path
       id="path1615"
       d="M205.8,148.74l-.2.07L205,149l-2.18.54c-1.84.47-4.38,1.13-7.18,1.87s-5.35,1.38-7.2,1.81c-.93.21-1.68.37-2.2.47l-.6.12c-.14,0-.21,0-.21,0l.2-.07.59-.15,2.18-.54c1.84-.47,4.38-1.13,7.18-1.87s5.35-1.38,7.2-1.81c.93-.21,1.68-.37,2.2-.47l.6-.12C205.73,148.74,205.8,148.73,205.8,148.74Z"
       class="cls-9" />
    <rect
       id="rect1617"
       height="109.81"
       width="80.14"
       y="67.11"
       x="104.31"
       class="cls-10" />
    <polygon
       id="polygon1619"
       points="181.28 170.39 166.44 170.39 110.99 170.39 110.99 71.55 181.28 71.55 181.28 158.1 181.28 170.39"
       class="cls-11" />
    <polygon
       id="polygon1621"
       points="180.17 168.56 165.47 168.56 110.51 168.56 110.51 70.24 180.17 70.24 180.17 156.33 180.17 168.56"
       class="cls-12" />
    <polygon
       id="polygon1623"
       points="172.69 160.91 164.66 167.44 109.21 167.44 109.21 70.49 179.51 70.49 179.51 155.38 172.69 160.91"
       class="cls-13" />
    <path
       id="path1625"
       d="M172.69,160.91l.43-.36,1.28-1.05,5.09-4.14v0c0-13.94,0-44.93,0-84.89l.08.08h-70.3l.09-.09c0,36.45,0,70.08,0,97l-.07-.07,55.45,0h0l6-4.89,1.51-1.22.51-.4-.5.41-1.5,1.24-6,4.91h0l-55.45,0h-.07v-.07c0-26.87,0-60.5,0-96.95v-.08h70.46v.07c0,40,0,71-.05,84.89h0l-5.1,4.12-1.29,1Z"
       class="cls-6" />
    <path
       id="path1627"
       d="M139.86,63.72h9.45a9.46,9.46,0,0,1,9.46,9.46v.4a0,0,0,0,1,0,0H130a0,0,0,0,1,0,0v0a9.86,9.86,0,0,1,9.86-9.86Z"
       class="cls-5" />
    <polygon
       id="polygon1629"
       points="137.04 63.72 135.99 58.4 152.56 58.4 151.64 63.72 137.04 63.72"
       class="cls-5" />
    <path
       id="path1631"
       d="M128.4,97.78H116.56V85.94H128.4Zm-11.51-.33h11.18V86.27H116.89Z"
       class="cls-10" />
    <path
       id="path1633"
       d="M170.25,88.8s-8.24.09-18.41.09-18.41,0-18.41-.09,8.24-.09,18.41-.09S170.25,88.75,170.25,88.8Z"
       class="cls-6" />
    <path
       id="path1635"
       d="M170.25,91.26s-8.24.09-18.41.09-18.41,0-18.41-.09,8.24-.09,18.41-.09S170.25,91.21,170.25,91.26Z"
       class="cls-6" />
    <path
       id="path1637"
       d="M170.25,93.72s-8.24.09-18.41.09-18.41,0-18.41-.09,8.24-.08,18.41-.08S170.25,93.67,170.25,93.72Z"
       class="cls-6" />
    <path
       id="path1639"
       d="M170.25,96.18s-8.24.09-18.41.09-18.41,0-18.41-.09,8.24-.08,18.41-.08S170.25,96.14,170.25,96.18Z"
       class="cls-6" />
    <path
       id="path1641"
       d="M128.4,116H116.56V104.19H128.4Zm-11.51-.33h11.18V104.52H116.89Z"
       class="cls-10" />
    <polygon
       id="polygon1643"
       points="118.92 110.36 120.49 108.67 123.11 110.77 129.11 104.94 130.54 106.64 122.99 114.08 118.92 110.36"
       class="cls-7" />
    <path
       id="path1645"
       d="M170.25,107.05s-8.24.09-18.41.09-18.41,0-18.41-.09,8.24-.08,18.41-.08S170.25,107,170.25,107.05Z"
       class="cls-6" />
    <path
       id="path1647"
       d="M170.25,109.51s-8.24.09-18.41.09-18.41,0-18.41-.09,8.24-.08,18.41-.08S170.25,109.47,170.25,109.51Z"
       class="cls-6" />
    <path
       id="path1649"
       d="M170.25,112s-8.24.09-18.41.09-18.41,0-18.41-.09,8.24-.08,18.41-.08S170.25,111.93,170.25,112Z"
       class="cls-6" />
    <path
       id="path1651"
       d="M170.25,114.43s-8.24.09-18.41.09-18.41,0-18.41-.09,8.24-.08,18.41-.08S170.25,114.39,170.25,114.43Z"
       class="cls-6" />
    <path
       id="path1653"
       d="M128.4,133.7H116.56V121.85H128.4Zm-11.51-.33h11.18V122.18H116.89Z"
       class="cls-10" />
    <polygon
       id="polygon1655"
       points="118.92 128.02 120.49 126.33 123.11 128.43 129.11 122.6 130.54 124.3 122.99 131.75 118.92 128.02"
       class="cls-7" />
    <path
       id="path1657"
       d="M170.25,124.71c0,.05-8.24.09-18.41.09s-18.41,0-18.41-.09,8.24-.08,18.41-.08S170.25,124.67,170.25,124.71Z"
       class="cls-6" />
    <path
       id="path1659"
       d="M170.25,127.18s-8.24.08-18.41.08-18.41,0-18.41-.08,8.24-.09,18.41-.09S170.25,127.13,170.25,127.18Z"
       class="cls-6" />
    <path
       id="path1661"
       d="M170.25,129.64s-8.24.08-18.41.08-18.41,0-18.41-.08,8.24-.09,18.41-.09S170.25,129.59,170.25,129.64Z"
       class="cls-6" />
    <path
       id="path1663"
       d="M170.25,132.1s-8.24.08-18.41.08-18.41,0-18.41-.08,8.24-.09,18.41-.09S170.25,132.05,170.25,132.1Z"
       class="cls-6" />
    <path
       id="path1665"
       d="M128.4,150.75H116.56V138.91H128.4Zm-11.51-.33h11.18V139.24H116.89Z"
       class="cls-10" />
    <polygon
       id="polygon1667"
       points="118.92 145.07 120.49 143.38 123.11 145.48 129.11 139.66 130.54 141.35 122.99 148.8 118.92 145.07"
       class="cls-7" />
    <path
       id="path1669"
       d="M170.25,141.77s-8.24.08-18.41.08-18.41,0-18.41-.08,8.24-.09,18.41-.09S170.25,141.72,170.25,141.77Z"
       class="cls-6" />
    <path
       id="path1671"
       d="M170.25,144.23c0,.05-8.24.08-18.41.08s-18.41,0-18.41-.08,8.24-.09,18.41-.09S170.25,144.18,170.25,144.23Z"
       class="cls-6" />
    <path
       id="path1673"
       d="M170.25,146.69c0,.05-8.24.09-18.41.09s-18.41,0-18.41-.09,8.24-.09,18.41-.09S170.25,146.64,170.25,146.69Z"
       class="cls-6" />
    <path
       id="path1675"
       d="M170.25,149.15s-8.24.09-18.41.09-18.41,0-18.41-.09,8.24-.09,18.41-.09S170.25,149.1,170.25,149.15Z"
       class="cls-6" />
    <polygon
       id="polygon1677"
       points="166.87 151.39 159.16 167.35 164.66 167.35 166.87 151.39"
       class="cls-11" />
    <polygon
       id="polygon1679"
       points="164.66 167.44 166.87 151.48 179.51 155.38 164.66 167.44"
       class="cls-13" />
    <path
       id="path1681"
       d="M164.66,167.44l4.25-3.5,10.54-8.62,0,.14L174.6,154l-7.76-2.4.11-.07c-.66,4.64-1.23,8.61-1.63,11.43s-.6,4.16-.66,4.52a.17.17,0,0,0,0-.07l0-.22c0-.21.06-.5.11-.87.11-.77.25-1.89.44-3.29.38-2.84.91-6.85,1.54-11.52v-.09l.09,0,7.76,2.39,4.88,1.51.15,0-.12.1c-4.26,3.44-8,6.45-10.67,8.6l-3.11,2.5-.83.67-.22.17S164.66,167.45,164.66,167.44Z"
       class="cls-6" />
    <g
       id="g1685"
       class="cls-14">
      <polyline
         id="polyline1683"
         points="151.41 58.4 150.5 63.72 151.64 63.72 152.56 58.4 151.11 58.4" />
    </g>
    <path
       id="path1687"
       d="M102.89,114.51h0a3,3,0,0,0,3.2-2.85l.12-3.25a2.92,2.92,0,0,0,2.63-2.66c.17-2.43.09-8,.09-8h0a8.44,8.44,0,0,0-8.54.55l.15,8.54v4.6C100.55,113,101.35,114.39,102.89,114.51Z"
       class="cls-15" />
    <path
       id="path1689"
       d="M106.42,102.79a1.24,1.24,0,0,0-1.66-.36,1.4,1.4,0,0,0-.47,1.76,1.83,1.83,0,0,0,1.19.9.94.94,0,0,1,.73,1,3.14,3.14,0,0,1-.85,1.69,4.43,4.43,0,0,1-2.81,1.33,3,3,0,0,1-2.82-.94,3.86,3.86,0,0,1-.49-2.18c0-1.79-.07-3.58-.11-5.37a7.81,7.81,0,0,1,.13-1.93,2.57,2.57,0,0,1,1-1.59,8,8,0,0,1,2-.64,16.32,16.32,0,0,0,2.34-1.23,2.91,2.91,0,0,1,2.54-.25c.57.29,1,.85,1.5,1.17.78.44,1.85.34,2.23,1.5a2,2,0,0,1,0,1.23,2.86,2.86,0,0,1-3.88,1.53,3.66,3.66,0,0,1,0,1.69c-.09.27-.12.68-.54.69"
       class="cls-16" />
    <path
       id="path1691"
       d="M99.72,97.79a8.38,8.38,0,0,0,.78-2.44A2.76,2.76,0,0,0,99.73,93a2.31,2.31,0,0,0-1.59-.57,2.72,2.72,0,0,0-2.44,1.94,2.88,2.88,0,0,0,1,3,3.17,3.17,0,0,0,3.14.41"
       class="cls-16" />
    <path
       id="path1693"
       d="M100.2,96.91a1,1,0,0,1-.36.78c-.36.36-.8.39-.79.34s.35-.15.67-.46S100.15,96.89,100.2,96.91Z"
       class="cls-7" />
    <path
       id="path1695"
       d="M99.4,97.5a2.49,2.49,0,0,1-.66.48,1.94,1.94,0,0,1-.87.25,1.19,1.19,0,0,1-1-.46,1.31,1.31,0,0,1-.18-1.09,2.06,2.06,0,0,1,.41-.81,2.94,2.94,0,0,1,.57-.58s-.19.25-.47.66a2.15,2.15,0,0,0-.36.76,1.23,1.23,0,0,0,.17,1,1,1,0,0,0,.87.4,2,2,0,0,0,.82-.2C99.13,97.66,99.38,97.47,99.4,97.5Z"
       class="cls-17" />
    <path
       id="path1697"
       d="M94.08,120.63s-1.24,9.06,0,10.21a2.59,2.59,0,0,0,2.43.77l2.35-2,.47-9Z"
       class="cls-15" />
    <polygon
       id="polygon1699"
       points="119.68 95.19 121.25 93.5 123.87 95.6 129.87 89.78 131.3 91.47 123.75 98.92 119.68 95.19"
       class="cls-7" />
    <path
       id="path1701"
       d="M127.06,95.65l-2.28,1.46c-.1-.9-.79-1.79-.75-1.34s0,2.8,0,2.8L120,107.13a4.07,4.07,0,0,1-2.51,2.41l-3.8,1.13,1.49,5,5.27-1.75a4.56,4.56,0,0,0,2.89-2.9L127,100a17.92,17.92,0,0,0,.59-2.18A4.2,4.2,0,0,0,127.06,95.65Z"
       class="cls-15" />
    <path
       id="path1703"
       d="M108.38,189.23l0-2.54-4.76.08.05,3.71h.29c1.31.06,6.68.18,7.55-.1S108.38,189.23,108.38,189.23Z"
       class="cls-7" />
    <g
       id="g1707"
       class="cls-18">
      <path
         id="path1705"
         d="M105.34,190.42a1.64,1.64,0,0,0-1.74-1.34l0,1.33Z"
         class="cls-9" />
    </g>
    <g
       id="g1711"
       class="cls-19">
      <path
         id="path1709"
         d="M110.36,189.71s1.43.39,1.25.62-5.6.32-8,.15v-.11l6.33,0S110.09,189.73,110.36,189.71Z"
         class="cls-9" />
    </g>
    <path
       id="path1713"
       d="M103.55,190.37h.31l.87,0c.73,0,1.74,0,2.85,0s2.13,0,2.85-.09l.87-.05.23,0h-.23l-.87,0c-.73,0-1.73.06-2.85.07s-2.12,0-2.85,0h-1.18Z"
       class="cls-6" />
    <path
       id="path1715"
       d="M110,190.4a2.38,2.38,0,0,1,.16-.41,2.33,2.33,0,0,1,.29-.34.63.63,0,0,0-.34.31A.65.65,0,0,0,110,190.4Z"
       class="cls-6" />
    <path
       id="path1717"
       d="M108.54,189.71s.08-.07.15-.18.11-.21.09-.22a.93.93,0,0,0-.14.19A.6.6,0,0,0,108.54,189.71Z"
       class="cls-6" />
    <path
       id="path1719"
       d="M108.15,189.52s.09,0,.17-.12.14-.14.12-.15-.08,0-.16.11S108.14,189.5,108.15,189.52Z"
       class="cls-6" />
    <path
       id="path1721"
       d="M107.9,189.07s.11,0,.25,0,.25,0,.25,0-.11,0-.25,0A.67.67,0,0,0,107.9,189.07Z"
       class="cls-6" />
    <path
       id="path1723"
       d="M107.81,188.76a.61.61,0,0,0,.28.07.48.48,0,0,0,.29,0,1.58,1.58,0,0,0-.29,0C107.94,188.77,107.82,188.74,107.81,188.76Z"
       class="cls-6" />
    <path
       id="path1725"
       d="M108.69,189.3a1.06,1.06,0,0,0,.31,0,1.49,1.49,0,0,0,.32-.08.77.77,0,0,0,.19-.08.16.16,0,0,0,.07-.09.1.1,0,0,0,0-.12.55.55,0,0,0-.69.17.49.49,0,0,0-.1.21.45.45,0,0,0,0,.08.77.77,0,0,1,.14-.26.52.52,0,0,1,.26-.18.5.5,0,0,1,.36,0s0,.09,0,.13l-.17.07a1.77,1.77,0,0,1-.32.09C108.81,189.29,108.69,189.29,108.69,189.3Z"
       class="cls-6" />
    <path
       id="path1727"
       d="M108.77,189.31s0-.07,0-.21a.51.51,0,0,0-.09-.22.34.34,0,0,0-.26-.16c-.07,0-.1.1-.09.15a.39.39,0,0,0,0,.13,1,1,0,0,0,.15.19.64.64,0,0,0,.18.12l-.15-.15a1.4,1.4,0,0,1-.13-.18c0-.07-.07-.18,0-.2s.16.07.21.13a.52.52,0,0,1,.09.2A1.07,1.07,0,0,1,108.77,189.31Z"
       class="cls-6" />
    <path
       id="path1729"
       d="M103.62,189.07a2.47,2.47,0,0,1,.36,0,1.53,1.53,0,0,1,.77.3,1.59,1.59,0,0,1,.49.67c.07.2.08.34.09.34s0,0,0-.1a1.09,1.09,0,0,0-.06-.25,1.43,1.43,0,0,0-.49-.7,1.45,1.45,0,0,0-.8-.3,1,1,0,0,0-.26,0Z"
       class="cls-6" />
    <path
       id="path1731"
       d="M104.09,187.08a7.29,7.29,0,0,0,0,1c0,.54,0,1,0,1a7.29,7.29,0,0,0,0-1C104.12,187.52,104.1,187.08,104.09,187.08Z"
       class="cls-6" />
    <path
       id="path1733"
       d="M105.93,189.94a2.58,2.58,0,0,0,.7.06,2.31,2.31,0,0,0,.69-.07s-.31,0-.69,0Z"
       class="cls-6" />
    <path
       id="path1735"
       d="M105,190s0,.06.06.13,0,.14.07.13,0-.07,0-.15S105,189.94,105,190Z"
       class="cls-6" />
    <path
       id="path1737"
       d="M104.64,189.52s0,.06.07.11.1.08.11.07,0-.06-.07-.11S104.65,189.51,104.64,189.52Z"
       class="cls-6" />
    <path
       id="path1739"
       d="M104.14,189.33s.06,0,.13,0,.12.06.14,0,0-.08-.12-.1S104.13,189.32,104.14,189.33Z"
       class="cls-6" />
    <path
       id="path1741"
       d="M103.78,189.24s0,0,.06.06h.08s0,0-.06-.06S103.78,189.23,103.78,189.24Z"
       class="cls-6" />
    <path
       id="path1743"
       d="M91.61,188.42l1.61-2-3.65-3.05-2.39,2.85.21.2c1,.9,5,4.49,5.8,4.84S91.61,188.42,91.61,188.42Z"
       class="cls-7" />
    <g
       id="g1747"
       class="cls-18">
      <path
         id="path1745"
         d="M88.53,187.33a1.64,1.64,0,0,0,.18-1.17,1.56,1.56,0,0,0-.63-1l-.85,1Z"
         class="cls-9" />
    </g>
    <g
       id="g1751"
       class="cls-19">
      <path
         id="path1749"
         d="M92.8,190.08s.82,1.22.54,1.28-4.45-3.41-6.16-5.1l.07-.08,4.83,4.1S92.58,189.91,92.8,190.08Z"
         class="cls-9" />
    </g>
    <path
       id="path1753"
       d="M87.2,186.13l.06.06.17.16.64.58c.54.49,1.3,1.15,2.16,1.87s1.64,1.34,2.22,1.79l.68.53.19.14.07,0-.06-.05-.18-.15-.68-.54c-.57-.46-1.35-1.09-2.21-1.81s-1.62-1.37-2.17-1.85l-.65-.57-.18-.15Z"
       class="cls-6" />
    <path
       id="path1755"
       d="M92,190.33s.16-.13.39-.21a2.41,2.41,0,0,1,.44-.07.71.71,0,0,0-.46,0A.73.73,0,0,0,92,190.33Z"
       class="cls-6" />
    <path
       id="path1757"
       d="M91.41,188.89a.63.63,0,0,0,.23,0c.13,0,.22-.08.22-.1a.63.63,0,0,0-.23,0C91.5,188.83,91.41,188.87,91.41,188.89Z"
       class="cls-6" />
    <path
       id="path1759"
       d="M91.25,188.48s.09,0,.2,0,.2,0,.2,0-.09,0-.2,0A.44.44,0,0,0,91.25,188.48Z"
       class="cls-6" />
    <path
       id="path1761"
       d="M91.35,188s.06.1.17.19.19.15.21.14-.07-.1-.18-.19S91.36,188,91.35,188Z"
       class="cls-6" />
    <path
       id="path1763"
       d="M91.49,187.69s0,.12.16.24a.48.48,0,0,0,.24.15s-.09-.09-.2-.19S91.5,187.68,91.49,187.69Z"
       class="cls-6" />
    <path
       id="path1765"
       d="M91.8,188.67a1,1,0,0,0,.24.2l.29.15a1,1,0,0,0,.2.06.22.22,0,0,0,.11,0,.14.14,0,0,0,0-.13.58.58,0,0,0-.64-.32.83.83,0,0,0-.21.1s-.06,0-.06.06a1.2,1.2,0,0,1,.28-.12.58.58,0,0,1,.31,0,.53.53,0,0,1,.26.25c0,.06,0,.09-.1.08a.61.61,0,0,1-.18-.05,1.57,1.57,0,0,1-.29-.14Z"
       class="cls-6" />
    <path
       id="path1767"
       d="M91.85,188.73s.09,0,.17-.14a.44.44,0,0,0,.07-.22.29.29,0,0,0-.09-.28.12.12,0,0,0-.16,0,.48.48,0,0,0,0,.14.66.66,0,0,0,0,.24c0,.13,0,.21.06.2s0-.08,0-.2a.93.93,0,0,1,0-.23c0-.07.06-.18.13-.14s.07.15.07.23a.39.39,0,0,1-.06.2A.5.5,0,0,1,91.85,188.73Z"
       class="cls-6" />
    <path
       id="path1769"
       d="M88.11,185.19s.11.08.26.24a1.44,1.44,0,0,1,.38.73,1.57,1.57,0,0,1-.06.83c-.08.2-.16.31-.15.32l.06-.08a1.44,1.44,0,0,0,.13-.23,1.51,1.51,0,0,0,.08-.85,1.45,1.45,0,0,0-.41-.75,1.05,1.05,0,0,0-.21-.16Z"
       class="cls-6" />
    <path
       id="path1771"
       d="M89.75,184s-.3.31-.66.72a8.65,8.65,0,0,0-.61.76,8,8,0,0,0,.66-.72A8.65,8.65,0,0,0,89.75,184Z"
       class="cls-6" />
    <path
       id="path1773"
       d="M89.29,187.36a2.31,2.31,0,0,0,.48.5,3.28,3.28,0,0,0,.57.4s-.24-.2-.53-.45S89.3,187.35,89.29,187.36Z"
       class="cls-6" />
    <path
       id="path1775"
       d="M88.57,186.76s0,.07,0,.14,0,.14,0,.15.07,0,.09-.13S88.59,186.76,88.57,186.76Z"
       class="cls-6" />
    <path
       id="path1777"
       d="M88.58,186.2s0,.06,0,.13,0,.12,0,.12,0-.06,0-.13S88.6,186.2,88.58,186.2Z"
       class="cls-6" />
    <path
       id="path1779"
       d="M88.32,185.73s0,.05.08.11,0,.13.07.13,0-.08,0-.16S88.33,185.71,88.32,185.73Z"
       class="cls-6" />
    <path
       id="path1781"
       d="M88.11,185.42s0,.05,0,.08,0,.07.06.06,0-.05,0-.08A.11.11,0,0,0,88.11,185.42Z"
       class="cls-6" />
    <path
       id="path1783"
       d="M101.5,135.32s-1.58,6.69-1.13,8,3.34,2.09,3.34,2.09l-.09,18.34-16,19.82,5.92,4.84s17.36-19.86,18.89-23.45-1-30-1-30Z"
       class="cls-6" />
    <path
       id="path1785"
       d="M109.69,132.59l.79,55.69-8.16,0L98.23,143h0c-.87-.82-2.09-2.24-1.92-5.39l.2-3.67Z"
       class="cls-20" />
    <path
       id="path1787"
       d="M101.09,166.87s0,0,0-.09l.15-.23.61-.85,2.21-3.07v.05c-.18-1.94-.39-4.28-.63-6.81-.29-3.31-.53-6.31-.67-8.49-.08-1.08-.12-2-.15-2.57l0-.71a.73.73,0,0,1,0-.24.75.75,0,0,1,0,.24l.06.7.2,2.57c.17,2.18.43,5.17.72,8.49.23,2.53.45,4.87.6,6.81v.05l-2.27,3-.63.84-.18.22Z"
       class="cls-21" />
    <path
       id="path1789"
       d="M103.59,143.86a10.74,10.74,0,0,1-2.16-.32,10.61,10.61,0,0,1-2.1-.58,20.29,20.29,0,0,1,2.14.41A17.88,17.88,0,0,1,103.59,143.86Z"
       class="cls-21" />
    <path
       id="path1791"
       d="M109.18,162.87a8.69,8.69,0,0,0-2.2-.57,8.07,8.07,0,0,0-2.27.22,1.93,1.93,0,0,1,.64-.25,5,5,0,0,1,1.64-.14,4.72,4.72,0,0,1,1.6.4A2,2,0,0,1,109.18,162.87Z"
       class="cls-21" />
    <path
       id="path1793"
       d="M112.06,165.45s-2.26,3.11-5.13,6.88-5.22,6.81-5.26,6.78,2.26-3.11,5.13-6.88S112,165.43,112.06,165.45Z"
       class="cls-21" />
    <path
       id="path1795"
       d="M111,136.73a1.25,1.25,0,0,1-.46.6,2.28,2.28,0,0,1-3.32-.35,1.28,1.28,0,0,1-.32-.69,7,7,0,0,0,.41.61,2.28,2.28,0,0,0,3.16.34A7.25,7.25,0,0,0,111,136.73Z"
       class="cls-21" />
    <path
       id="path1797"
       d="M99.81,108.07a7.12,7.12,0,0,1-.39-9.92"
       class="cls-17" />
    <path
       id="path1799"
       d="M95.23,113.27s-1.78,2-2.14,9.66c0,0,5,.95,5.14.68S95.23,113.27,95.23,113.27Z"
       class="cls-7" />
    <g
       id="g1803"
       class="cls-14">
      <path
         id="path1801"
         d="M95.23,113.27s-1.78,2-2.14,9.66c0,0,5,.95,5.14.68S95.23,113.27,95.23,113.27Z" />
    </g>
    <path
       id="path1805"
       d="M96,135.57h15.5l-.25-2.42s-1.77-9.21-1.76-9.33l.28-.59a5.83,5.83,0,0,0,.07-4.87h0l7.58-2.6-1.85-6.26c-3.45.58-8.65,1.23-8.65,1.23l-.77.07-5.49.29c-2.25.27-4.86.45-5.82,2.85-.51,1.29,0,3.22.81,5.21l2,6.11c.79,3.36-.48,3.2-1.17,6.58C96.4,132.35,96,135.1,96,135.57Z"
       class="cls-7" />
    <g
       id="g1809"
       class="cls-14">
      <path
         id="path1807"
         d="M96,135.57h15.5l-.25-2.42s-1.77-9.21-1.76-9.33l.28-.59a5.83,5.83,0,0,0,.07-4.87h0l7.58-2.6-1.85-6.26c-3.45.58-8.65,1.23-8.65,1.23l-.77.07-5.49.29c-2.25.27-4.86.45-5.82,2.85-.51,1.29,0,3.22.81,5.21l2,6.11c.79,3.36-.48,3.2-1.17,6.58C96.4,132.35,96,135.1,96,135.57Z" />
    </g>
    <path
       id="path1811"
       d="M117.39,115.86s-.11.07-.33.15l-.94.32c-.79.27-1.9.62-3.11,1s-2.3.78-3.08,1.1l-.91.38a1.39,1.39,0,0,1-.34.14l.31-.2c.21-.11.51-.26.9-.43a28.64,28.64,0,0,1,3.07-1.15c1.21-.39,2.32-.73,3.12-1l1-.27A1.73,1.73,0,0,1,117.39,115.86Z"
       class="cls-6" />
    <path
       id="path1813"
       d="M97.58,125a1,1,0,0,1-.13-.3l-.33-.85c-.27-.71-.66-1.7-1.06-2.79s-.73-2.11-.93-2.85c-.11-.37-.19-.67-.23-.88s-.07-.33-.05-.33.16.45.39,1.18.59,1.72,1,2.82.76,2.09,1,2.81q.18.56.27.87A1.08,1.08,0,0,1,97.58,125Z"
       class="cls-6" />
  </g>
</svg>
