<?xml version="1.0" encoding="UTF-8" standalone="no"?>
<svg
   xmlns:dc="http://purl.org/dc/elements/1.1/"
   xmlns:cc="http://creativecommons.org/ns#"
   xmlns:rdf="http://www.w3.org/1999/02/22-rdf-syntax-ns#"
   xmlns:svg="http://www.w3.org/2000/svg"
   xmlns="http://www.w3.org/2000/svg"
   xmlns:sodipodi="http://sodipodi.sourceforge.net/DTD/sodipodi-0.dtd"
   xmlns:inkscape="http://www.inkscape.org/namespaces/inkscape"
   sodipodi:docname="forms-guides.svg"
   inkscape:version="1.0beta2 (2b71d25, 2019-12-03)"
   id="svg705"
   version="1.1"
   viewBox="0 0 150 63.696915"
   height="63.696915mm"
   width="150mm">
  <defs
     id="defs699">
    <style
       id="style1569">.cls-1{fill:#fcd0d4;}.cls-2{font-size:30px;font-family:Andor-PersonalUse, Andor;}.cls-2,.cls-7{fill:#e8505b;}.cls-3{letter-spacing:-0.04em;}.cls-4{letter-spacing:0em;}.cls-5{fill:#d31849;}.cls-6{fill:#263238;}.cls-8{opacity:0.1;}.cls-9{fill:#fff;}.cls-10{fill:#186b8c;}.cls-11{fill:#e0e0e0;}.cls-12{fill:#ebebeb;}.cls-13{fill:#fafafa;}.cls-14{opacity:0.3;}.cls-15{fill:#ffbe9d;}.cls-16{fill:#3f331f;}.cls-17{fill:#2d2417;}.cls-18{opacity:0.5;}.cls-19{opacity:0.4;}.cls-20{fill:#0a2733;}.cls-21{fill:#455a64;}</style>
  </defs>
  <sodipodi:namedview
     inkscape:window-maximized="0"
     inkscape:window-y="23"
     inkscape:window-x="0"
     inkscape:window-height="755"
     inkscape:window-width="1280"
     showgrid="false"
     inkscape:document-rotation="0"
     inkscape:current-layer="Character"
     inkscape:document-units="mm"
     inkscape:cy="505.39228"
     inkscape:cx="335.19129"
     inkscape:zoom="0.35"
     inkscape:pageshadow="2"
     inkscape:pageopacity="0.0"
     borderopacity="1.0"
     bordercolor="#666666"
     pagecolor="#ffffff"
     id="base" />
  <metadata
     id="metadata702">
    <rdf:RDF>
      <cc:Work
         rdf:about="">
        <dc:format>image/svg+xml</dc:format>
        <dc:type
           rdf:resource="http://purl.org/dc/dcmitype/StillImage" />
        <dc:title></dc:title>
      </cc:Work>
    </rdf:RDF>
  </metadata>
  <g
     transform="translate(-17.147305,-14.448293)"
     id="layer1"
     inkscape:groupmode="layer"
     inkscape:label="Capa 1">
    <g
       transform="matrix(0.41458092,0,0,0.41458092,-0.23910929,-3.1126785)"
       id="Character">
      <path
         inkscape:connector-curvature="0"
         id="path1575"
         d="m 66.51,195.58 c 0,0 -40.36,-41.4 -17.63,-97.36 10.91,-26.85 39.95,-33.15 48.75,-27.66 11.61,7.25 27,-12.32 60.29,-25.76 25,-10.1 81.63,10.49 63.19,73.83 -7.62,26.16 9.91,29.82 19.77,45 9.06,14 -1.28,32.41 -17.92,32.37 z"
         class="cls-1" />
      <text
         id="text1583"
         transform="translate(247.93,121.44)"
         class="cls-2"><tspan
           id="tspan1579"
           class="cls-3">F<tspan
   id="tspan1577"
   y="0"
   x="16.379999"
   class="cls-4">orms and</tspan></tspan><tspan
           dy="0 0 0"
           id="tspan1581"
           y="36"
           x="32.009998">Guides</tspan></text>
      <path
         inkscape:connector-curvature="0"
         id="path1585"
         d="m 200,100.38 a 1,1 0 0 0 -0.23,-0.08 1.93,1.93 0 0 0 -0.72,0 2.6,2.6 0 0 0 -1,0.54 5.54,5.54 0 0 0 -1.06,1.23 22.42,22.42 0 0 0 -1.83,4.15 c -0.61,1.67 -1.29,3.61 -1.86,5.82 v 0 a 1.75,1.75 0 0 1 -0.38,0.48 0.73,0.73 0 0 1 -0.6,0.19 1.09,1.09 0 0 1 -0.56,-0.32 6.25,6.25 0 0 1 -0.44,-0.45 9.71,9.71 0 0 0 -0.92,-0.89 1.64,1.64 0 0 0 -1.15,-0.47 1.59,1.59 0 0 0 -1.07,0.7 2.69,2.69 0 0 0 -0.36,1.32 12.82,12.82 0 0 0 0.38,2.89 c 0.18,1 0.37,2 0.57,3 0.09,0.52 0.19,1 0.29,1.57 l 0.15,0.8 a 1,1 0 0 1 -0.1,0.85 0.42,0.42 0 0 1 -0.44,0.15 1.22,1.22 0 0 1 -0.39,-0.21 l -0.67,-0.5 a 14.87,14.87 0 0 0 -1.4,-0.94 5.27,5.27 0 0 0 -1.57,-0.65 1.79,1.79 0 0 0 -0.83,0 1.23,1.23 0 0 0 -0.68,0.46 2.8,2.8 0 0 0 -0.44,1.65 9.11,9.11 0 0 0 0.17,1.79 22,22 0 0 0 1,3.56 6.19,6.19 0 0 1 0.29,0.92 0.68,0.68 0 0 1 -0.13,0.51 l -0.09,0.1 c -0.05,0 -0.05,0.05 -0.13,0.07 a 0.38,0.38 0 0 1 -0.29,-0.06 5.08,5.08 0 0 1 -0.76,-0.61 l -0.71,-0.66 a 11.68,11.68 0 0 0 -1.5,-1.21 3.75,3.75 0 0 0 -0.87,-0.39 1.08,1.08 0 0 0 -0.88,0.11 1.24,1.24 0 0 0 -0.5,0.76 3.53,3.53 0 0 0 -0.12,1 7.9,7.9 0 0 0 0.25,2 17.24,17.24 0 0 0 1.43,3.79 28.22,28.22 0 0 0 2.14,3.56 c 0.38,0.58 0.85,1.11 1.29,1.66 l 1.34,1.64 v 0 h -0.07 l 2.1,-0.3 c 0.69,-0.12 1.4,-0.18 2.07,-0.36 a 29.34,29.34 0 0 0 4,-1.19 17.15,17.15 0 0 0 3.62,-1.85 8.17,8.17 0 0 0 1.51,-1.29 4,4 0 0 0 0.57,-0.8 1.24,1.24 0 0 0 0.14,-0.9 1.06,1.06 0 0 0 -0.58,-0.68 3.16,3.16 0 0 0 -0.9,-0.29 10.42,10.42 0 0 0 -1.93,-0.11 h -1 a 5.34,5.34 0 0 1 -1,-0.07 0.36,0.36 0 0 1 -0.26,-0.15 0.27,0.27 0 0 1 0,-0.14 0.57,0.57 0 0 1 0,-0.13 0.67,0.67 0 0 1 0.26,-0.46 4.75,4.75 0 0 1 0.83,-0.49 22.72,22.72 0 0 0 3.14,-2 9,9 0 0 0 1.33,-1.21 2.76,2.76 0 0 0 0.78,-1.52 1.16,1.16 0 0 0 -0.2,-0.79 1.85,1.85 0 0 0 -0.61,-0.57 5.37,5.37 0 0 0 -1.6,-0.57 13.43,13.43 0 0 0 -1.67,-0.24 l -0.83,-0.08 a 1.36,1.36 0 0 1 -0.43,-0.11 0.41,0.41 0 0 1 -0.22,-0.41 1,1 0 0 1 0.5,-0.69 l 0.65,-0.49 1.27,-1 2.46,-1.86 a 13.31,13.31 0 0 0 2.22,-1.89 2.58,2.58 0 0 0 0.61,-1.21 1.55,1.55 0 0 0 -0.31,-1.24 1.15,1.15 0 0 0 -0.54,-0.32 2.68,2.68 0 0 0 -0.63,-0.11 10.87,10.87 0 0 0 -1.28,0 c -0.21,0 -0.42,0 -0.63,0 a 1.08,1.08 0 0 1 -0.63,-0.14 0.74,0.74 0 0 1 -0.31,-0.54 1.78,1.78 0 0 1 0,-0.61 v 0 c 1.06,-2 1.86,-3.91 2.53,-5.56 a 22.67,22.67 0 0 0 1.44,-4.29 5.67,5.67 0 0 0 0.06,-1.62 2.54,2.54 0 0 0 -0.38,-1.1 1.56,1.56 0 0 0 -0.51,-0.5 1.71,1.71 0 0 0 -0.22,-0.11 1,1 0 0 1 0.22,0.1 1.36,1.36 0 0 1 0.53,0.49 2.63,2.63 0 0 1 0.41,1.12 5.73,5.73 0 0 1 -0.06,1.63 22.46,22.46 0 0 1 -1.41,4.31 c -0.67,1.65 -1.46,3.55 -2.52,5.58 v 0 a 1.82,1.82 0 0 0 0,0.57 0.67,0.67 0 0 0 0.27,0.48 1.06,1.06 0 0 0 0.57,0.11 h 0.62 a 9.16,9.16 0 0 1 1.29,0 2.59,2.59 0 0 1 0.67,0.1 1.35,1.35 0 0 1 0.59,0.36 1.68,1.68 0 0 1 0.34,1.34 2.72,2.72 0 0 1 -0.63,1.27 13.36,13.36 0 0 1 -2.24,1.91 l -2.46,1.87 -1.27,1 -0.64,0.49 a 1.93,1.93 0 0 0 -0.3,0.26 0.71,0.71 0 0 0 -0.15,0.33 0.28,0.28 0 0 0 0.15,0.27 1.13,1.13 0 0 0 0.37,0.1 l 0.83,0.07 a 16.4,16.4 0 0 1 1.69,0.25 5.6,5.6 0 0 1 1.65,0.58 2,2 0 0 1 0.66,0.61 1.4,1.4 0 0 1 0.22,0.89 2.89,2.89 0 0 1 -0.81,1.61 9.45,9.45 0 0 1 -1.36,1.24 22.4,22.4 0 0 1 -3.16,2 6.23,6.23 0 0 0 -0.8,0.47 0.48,0.48 0 0 0 -0.19,0.35 0.17,0.17 0 0 0 0,0.1 c 0,0 0,0.09 0,0.08 0,-0.01 0.09,0.06 0.16,0.07 a 4.08,4.08 0 0 0 0.93,0.06 h 1 a 10.86,10.86 0 0 1 2,0.12 3,3 0 0 1 0.95,0.31 1.24,1.24 0 0 1 0.67,0.78 1.51,1.51 0 0 1 -0.16,1 4,4 0 0 1 -0.59,0.83 8.46,8.46 0 0 1 -1.54,1.32 17.3,17.3 0 0 1 -3.66,1.87 29.22,29.22 0 0 1 -4,1.2 c -0.69,0.18 -1.39,0.24 -2.09,0.36 l -2.1,0.3 h -0.05 v 0 0 l -1.35,-1.64 c -0.44,-0.56 -0.91,-1.08 -1.29,-1.67 a 29.77,29.77 0 0 1 -2.15,-3.58 17.32,17.32 0 0 1 -1.45,-3.84 8,8 0 0 1 -0.25,-2 4.29,4.29 0 0 1 0.12,-1 1.48,1.48 0 0 1 0.57,-0.86 1.26,1.26 0 0 1 1,-0.13 3.26,3.26 0 0 1 0.91,0.41 11,11 0 0 1 1.53,1.23 l 0.71,0.66 a 4.49,4.49 0 0 0 0.73,0.59 0.34,0.34 0 0 0 0.16,0.05 l 0.07,-0.05 0.08,-0.07 A 0.52,0.52 0 0 0 184,128 a 4.47,4.47 0 0 0 -0.28,-0.88 24.65,24.65 0 0 1 -1,-3.59 10.19,10.19 0 0 1 -0.17,-1.82 3,3 0 0 1 0.45,-1.71 1.42,1.42 0 0 1 0.76,-0.51 2.1,2.1 0 0 1 0.9,0 5.22,5.22 0 0 1 1.61,0.67 16,16 0 0 1 1.42,1 l 0.67,0.51 a 1.08,1.08 0 0 0 0.33,0.18 0.3,0.3 0 0 0 0.3,-0.1 0.66,0.66 0 0 0 0.11,-0.35 1.84,1.84 0 0 0 0,-0.39 l -0.15,-0.79 c -0.1,-0.53 -0.19,-1.06 -0.29,-1.57 -0.19,-1 -0.38,-2 -0.56,-3 a 13.37,13.37 0 0 1 -0.38,-2.92 2.83,2.83 0 0 1 0.39,-1.37 1.68,1.68 0 0 1 1.15,-0.76 1.3,1.3 0 0 1 0.68,0.13 3.1,3.1 0 0 1 0.57,0.37 9.89,9.89 0 0 1 0.92,0.91 c 0.15,0.15 0.29,0.3 0.44,0.44 a 1,1 0 0 0 0.49,0.3 0.71,0.71 0 0 0 0.52,-0.17 1.51,1.51 0 0 0 0.36,-0.44 v 0 a 57.47,57.47 0 0 1 1.89,-5.83 21.33,21.33 0 0 1 1.86,-4.15 5.56,5.56 0 0 1 1.07,-1.23 2.53,2.53 0 0 1 1.07,-0.53 1.55,1.55 0 0 1 0.72,0 0.73,0.73 0 0 1 0.15,-0.02 z"
         class="cls-5" />
      <path
         inkscape:connector-curvature="0"
         id="path1587"
         d="m 198.28,104.87 v 0.11 l -0.12,0.31 c -0.11,0.28 -0.26,0.68 -0.45,1.19 l -1.71,4.36 -5.49,14.42 c -2.14,5.64 -4.09,10.73 -5.54,14.41 -0.72,1.84 -1.31,3.32 -1.73,4.34 l -0.48,1.18 -0.13,0.3 v 0.1 c 0,0 0,0 0,-0.1 l 0.11,-0.31 0.46,-1.19 1.68,-4.37 5.49,-14.42 c 2.13,-5.63 4.09,-10.73 5.53,-14.4 0.73,-1.84 1.32,-3.32 1.74,-4.35 0.2,-0.5 0.37,-0.89 0.48,-1.17 l 0.13,-0.31 a 0.69,0.69 0 0 1 0.03,-0.1 z"
         class="cls-6" />
      <path
         inkscape:connector-curvature="0"
         id="path1589"
         d="m 198.46,116.28 a 6.61,6.61 0 0 1 -0.83,0.49 l -2,1.12 c -0.79,0.44 -1.51,0.83 -2.05,1.1 a 3.48,3.48 0 0 1 -0.88,0.38 8.57,8.57 0 0 1 0.83,-0.49 l 2,-1.14 c 0.79,-0.44 1.52,-0.82 2,-1.08 a 4.19,4.19 0 0 1 0.93,-0.38 z"
         class="cls-6" />
      <path
         inkscape:connector-curvature="0"
         id="path1591"
         d="m 192.41,119.18 c 0,0 -0.83,-1.48 -1.75,-3.35 -0.92,-1.87 -1.65,-3.41 -1.6,-3.43 0.05,-0.02 0.83,1.48 1.75,3.35 a 36,36 0 0 1 1.6,3.43 z"
         class="cls-6" />
      <path
         inkscape:connector-curvature="0"
         id="path1593"
         d="m 189.52,128 a 7.56,7.56 0 0 1 -0.72,-0.66 c -0.43,-0.43 -1,-1 -1.61,-1.75 -0.61,-0.75 -1.1,-1.38 -1.45,-1.87 a 5.36,5.36 0 0 1 -0.54,-0.83 6.25,6.25 0 0 1 0.63,0.75 c 0.38,0.48 0.9,1.13 1.5,1.84 0.6,0.71 1.15,1.32 1.55,1.77 a 5.33,5.33 0 0 1 0.64,0.75 z"
         class="cls-6" />
      <path
         inkscape:connector-curvature="0"
         id="path1595"
         d="m 195.57,126.56 a 5,5 0 0 1 -0.87,0.25 c -0.55,0.14 -1.3,0.32 -2.13,0.5 l -2.14,0.45 a 4.34,4.34 0 0 1 -0.9,0.13 5.86,5.86 0 0 1 0.87,-0.25 c 0.54,-0.14 1.3,-0.31 2.13,-0.5 l 2.14,-0.45 a 4.26,4.26 0 0 1 0.9,-0.13 z"
         class="cls-6" />
      <path
         inkscape:connector-curvature="0"
         id="path1597"
         d="m 194,134.65 a 7.24,7.24 0 0 1 -1.12,0.3 c -0.7,0.16 -1.66,0.38 -2.74,0.61 -1.08,0.23 -2,0.42 -2.74,0.55 a 9.21,9.21 0 0 1 -1.15,0.18 9,9 0 0 1 1.12,-0.3 c 0.7,-0.16 1.67,-0.38 2.74,-0.6 1.07,-0.22 2,-0.42 2.75,-0.56 a 8.94,8.94 0 0 1 1.14,-0.18 z"
         class="cls-6" />
      <path
         inkscape:connector-curvature="0"
         id="path1599"
         d="m 186.42,136.2 c 0,0 -0.09,-0.07 -0.25,-0.23 -0.16,-0.16 -0.36,-0.37 -0.62,-0.66 -0.52,-0.57 -1.22,-1.37 -2,-2.28 -0.78,-0.91 -1.37,-1.78 -1.81,-2.41 -0.22,-0.31 -0.39,-0.57 -0.5,-0.75 a 1.26,1.26 0 0 1 -0.17,-0.3 1.69,1.69 0 0 1 0.22,0.26 l 0.55,0.72 c 0.47,0.61 1.11,1.45 1.84,2.37 0.73,0.92 1.42,1.72 1.91,2.31 a 8.45,8.45 0 0 1 0.83,0.97 z"
         class="cls-6" />
      <path
         inkscape:connector-curvature="0"
         id="path1601"
         d="m 183.12,158.34 c -5.74,-4.63 -6.57,-12.54 -5.85,-19.55 a 7.59,7.59 0 0 1 0.7,-3.4 2.4,2.4 0 0 1 3,-1 c 0.84,0.47 1.15,1.51 1.58,2.38 a 6.77,6.77 0 0 0 2.57,2.81 2.63,2.63 0 0 0 2.39,0.39 c 1.05,-0.49 1.27,-1.88 1.34,-3.05 0.14,-2.17 0.27,-4.35 0.41,-6.52 a 10.76,10.76 0 0 1 0.59,-3.44 3.62,3.62 0 0 1 2.44,-2.29 2.19,2.19 0 0 1 2.61,1.65 10.19,10.19 0 0 1 -0.06,1.46 1.22,1.22 0 0 0 0.64,1.2 1.41,1.41 0 0 0 1.31,-0.44 15.58,15.58 0 0 0 3.08,-4 21.47,21.47 0 0 1 2.89,-4.16 6.31,6.31 0 0 1 4.44,-2.1 3.79,3.79 0 0 1 3.7,2.84 c 0.31,1.67 -0.77,3.28 -1.9,4.54 a 26,26 0 0 1 -5.78,4.79 2.16,2.16 0 0 0 -1,0.92 c -0.31,0.76 0.37,1.58 1.12,1.89 a 13.5,13.5 0 0 0 2.71,0.49 2.62,2.62 0 0 1 2.14,1.52 c 0.4,1.23 -0.69,2.41 -1.72,3.16 a 22.63,22.63 0 0 1 -6.87,3.36 7.36,7.36 0 0 0 -2.53,1 2.17,2.17 0 0 0 -0.86,2.42 2.21,2.21 0 0 0 2.33,1.09 16.46,16.46 0 0 0 2.62,-0.8 c 1.65,-0.5 3.71,-0.25 4.64,1.21 a 3.69,3.69 0 0 1 0.2,3.29 8.52,8.52 0 0 1 -2,2.76 22.4,22.4 0 0 1 -10,6.07 c -3.81,1 -7.28,1.15 -10.88,-0.45"
         class="cls-7" />
      <g
         id="g1605"
         class="cls-8">
        <path
           inkscape:connector-curvature="0"
           id="path1603"
           d="m 183.12,158.34 c -5.74,-4.63 -6.57,-12.54 -5.85,-19.55 a 7.59,7.59 0 0 1 0.7,-3.4 2.4,2.4 0 0 1 3,-1 c 0.84,0.47 1.15,1.51 1.58,2.38 a 6.77,6.77 0 0 0 2.57,2.81 2.63,2.63 0 0 0 2.39,0.39 c 1.05,-0.49 1.27,-1.88 1.34,-3.05 0.14,-2.17 0.27,-4.35 0.41,-6.52 a 10.76,10.76 0 0 1 0.59,-3.44 3.62,3.62 0 0 1 2.44,-2.29 2.19,2.19 0 0 1 2.61,1.65 10.19,10.19 0 0 1 -0.06,1.46 1.22,1.22 0 0 0 0.64,1.2 1.41,1.41 0 0 0 1.31,-0.44 15.58,15.58 0 0 0 3.08,-4 21.47,21.47 0 0 1 2.89,-4.16 6.31,6.31 0 0 1 4.44,-2.1 3.79,3.79 0 0 1 3.7,2.84 c 0.31,1.67 -0.77,3.28 -1.9,4.54 a 26,26 0 0 1 -5.78,4.79 2.16,2.16 0 0 0 -1,0.92 c -0.31,0.76 0.37,1.58 1.12,1.89 a 13.5,13.5 0 0 0 2.71,0.49 2.62,2.62 0 0 1 2.14,1.52 c 0.4,1.23 -0.69,2.41 -1.72,3.16 a 22.63,22.63 0 0 1 -6.87,3.36 7.36,7.36 0 0 0 -2.53,1 2.17,2.17 0 0 0 -0.86,2.42 2.21,2.21 0 0 0 2.33,1.09 16.46,16.46 0 0 0 2.62,-0.8 c 1.65,-0.5 3.71,-0.25 4.64,1.21 a 3.69,3.69 0 0 1 0.2,3.29 8.52,8.52 0 0 1 -2,2.76 22.4,22.4 0 0 1 -10,6.07 c -3.81,1 -7.28,1.15 -10.88,-0.45" />
      </g>
      <path
         inkscape:connector-curvature="0"
         id="path1607"
         d="m 184.52,157.78 a 40.53,40.53 0 0 1 2.48,-8.28 83.6,83.6 0 0 1 4.79,-9.56 l 1.4,-2.45 c 0.46,-0.8 0.92,-1.59 1.43,-2.35 a 48,48 0 0 1 3.18,-4.17 c 1.09,-1.28 2.18,-2.46 3.2,-3.55 1.02,-1.09 2,-2.11 3,-3 a 37.86,37.86 0 0 1 4.79,-3.85 c 0.6,-0.42 1.08,-0.73 1.41,-0.93 l 0.38,-0.23 0.13,-0.07 -0.12,0.08 -0.36,0.25 c -0.32,0.22 -0.8,0.53 -1.39,0.95 a 41.38,41.38 0 0 0 -4.73,3.9 c -0.93,0.88 -1.9,1.89 -2.92,3 -1.02,1.11 -2.1,2.28 -3.18,3.56 a 44.46,44.46 0 0 0 -3.16,4.16 c -0.5,0.75 -0.95,1.54 -1.42,2.34 L 192,140 a 87.77,87.77 0 0 0 -4.8,9.53 42,42 0 0 0 -2.49,8.24"
         class="cls-9" />
      <path
         inkscape:connector-curvature="0"
         id="path1609"
         d="m 193.11,137.58 a 3.18,3.18 0 0 1 -0.08,-0.51 c 0,-0.33 -0.08,-0.8 -0.12,-1.39 -0.09,-1.17 -0.15,-2.79 -0.21,-4.58 -0.06,-1.79 -0.15,-3.41 -0.25,-4.58 0,-0.58 -0.09,-1.06 -0.13,-1.38 a 2.18,2.18 0 0 1 0,-0.51 3,3 0 0 1 0.11,0.5 c 0.06,0.32 0.13,0.79 0.2,1.37 0.14,1.17 0.25,2.8 0.31,4.59 0.06,1.79 0.11,3.36 0.15,4.59 q 0,0.82 0.06,1.38 a 1.93,1.93 0 0 1 -0.04,0.52 z"
         class="cls-9" />
      <path
         inkscape:connector-curvature="0"
         id="path1611"
         d="m 208.3,135.8 a 2.41,2.41 0 0 1 -0.6,0 h -1.64 c -1.39,0.06 -3.29,0.2 -5.39,0.45 -2.1,0.25 -4,0.56 -5.35,0.82 l -1.61,0.32 a 4.45,4.45 0 0 1 -0.6,0.11 2.93,2.93 0 0 1 0.58,-0.19 c 0.37,-0.1 0.92,-0.24 1.6,-0.39 1.35,-0.3 3.25,-0.64 5.35,-0.89 a 51.56,51.56 0 0 1 5.41,-0.38 c 0.7,0 1.26,0 1.65,0 a 4.13,4.13 0 0 1 0.6,0.15 z"
         class="cls-9" />
      <path
         inkscape:connector-curvature="0"
         id="path1613"
         d="m 185.44,153.79 c 0,0 0,-0.06 -0.09,-0.19 -0.09,-0.13 -0.14,-0.33 -0.22,-0.56 -0.19,-0.48 -0.45,-1.2 -0.75,-2.08 -0.6,-1.77 -1.36,-4.24 -2.16,-7 -0.8,-2.76 -1.54,-5.21 -2.11,-7 l -0.68,-2.1 -0.18,-0.57 a 0.65,0.65 0 0 1 -0.05,-0.21 c 0,0 0,0.06 0.09,0.19 l 0.22,0.56 c 0.19,0.49 0.44,1.2 0.74,2.09 0.61,1.76 1.37,4.23 2.17,7 0.8,2.77 1.54,5.2 2.11,7 0.28,0.86 0.5,1.58 0.68,2.1 l 0.18,0.58 a 1.47,1.47 0 0 1 0.05,0.19 z"
         class="cls-9" />
      <path
         inkscape:connector-curvature="0"
         id="path1615"
         d="m 205.8,148.74 -0.2,0.07 -0.6,0.19 -2.18,0.54 c -1.84,0.47 -4.38,1.13 -7.18,1.87 -2.8,0.74 -5.35,1.38 -7.2,1.81 -0.93,0.21 -1.68,0.37 -2.2,0.47 l -0.6,0.12 c -0.14,0 -0.21,0 -0.21,0 l 0.2,-0.07 0.59,-0.15 2.18,-0.54 c 1.84,-0.47 4.38,-1.13 7.18,-1.87 2.8,-0.74 5.35,-1.38 7.2,-1.81 0.93,-0.21 1.68,-0.37 2.2,-0.47 l 0.6,-0.12 c 0.15,-0.04 0.22,-0.05 0.22,-0.04 z"
         class="cls-9" />
      <rect
         id="rect1617"
         height="109.81"
         width="80.139999"
         y="67.110001"
         x="104.31"
         class="cls-10" />
      <polygon
         id="polygon1619"
         points="181.28,170.39 166.44,170.39 110.99,170.39 110.99,71.55 181.28,71.55 181.28,158.1 "
         class="cls-11" />
      <polygon
         id="polygon1621"
         points="180.17,168.56 165.47,168.56 110.51,168.56 110.51,70.24 180.17,70.24 180.17,156.33 "
         class="cls-12" />
      <polygon
         id="polygon1623"
         points="172.69,160.91 164.66,167.44 109.21,167.44 109.21,70.49 179.51,70.49 179.51,155.38 "
         class="cls-13" />
      <path
         inkscape:connector-curvature="0"
         id="path1625"
         d="m 172.69,160.91 0.43,-0.36 1.28,-1.05 5.09,-4.14 v 0 c 0,-13.94 0,-44.93 0,-84.89 l 0.08,0.08 h -70.3 l 0.09,-0.09 c 0,36.45 0,70.08 0,97 l -0.07,-0.07 h 55.45 v 0 l 6,-4.89 1.51,-1.22 0.51,-0.4 -0.5,0.41 -1.5,1.24 -6,4.91 v 0 h -55.45 -0.07 v -0.07 c 0,-26.87 0,-60.5 0,-96.95 v -0.08 h 70.46 v 0.07 c 0,40 0,71 -0.05,84.89 v 0 l -5.1,4.12 -1.29,1 z"
         class="cls-6" />
      <path
         inkscape:connector-curvature="0"
         id="path1627"
         d="m 139.86,63.72 h 9.45 a 9.46,9.46 0 0 1 9.46,9.46 v 0.4 H 130 v 0 a 9.86,9.86 0 0 1 9.86,-9.86 z"
         class="cls-5" />
      <polygon
         id="polygon1629"
         points="152.56,58.4 151.64,63.72 137.04,63.72 135.99,58.4 "
         class="cls-5" />
      <path
         inkscape:connector-curvature="0"
         id="path1631"
         d="M 128.4,97.78 H 116.56 V 85.94 h 11.84 z m -11.51,-0.33 h 11.18 V 86.27 h -11.18 z"
         class="cls-10" />
      <path
         inkscape:connector-curvature="0"
         id="path1633"
         d="m 170.25,88.8 c 0,0 -8.24,0.09 -18.41,0.09 -10.17,0 -18.41,0 -18.41,-0.09 0,-0.09 8.24,-0.09 18.41,-0.09 10.17,0 18.41,0.04 18.41,0.09 z"
         class="cls-6" />
      <path
         inkscape:connector-curvature="0"
         id="path1635"
         d="m 170.25,91.26 c 0,0 -8.24,0.09 -18.41,0.09 -10.17,0 -18.41,0 -18.41,-0.09 0,-0.09 8.24,-0.09 18.41,-0.09 10.17,0 18.41,0.04 18.41,0.09 z"
         class="cls-6" />
      <path
         inkscape:connector-curvature="0"
         id="path1637"
         d="m 170.25,93.72 c 0,0 -8.24,0.09 -18.41,0.09 -10.17,0 -18.41,0 -18.41,-0.09 0,-0.09 8.24,-0.08 18.41,-0.08 10.17,0 18.41,0.03 18.41,0.08 z"
         class="cls-6" />
      <path
         inkscape:connector-curvature="0"
         id="path1639"
         d="m 170.25,96.18 c 0,0 -8.24,0.09 -18.41,0.09 -10.17,0 -18.41,0 -18.41,-0.09 0,-0.09 8.24,-0.08 18.41,-0.08 10.17,0 18.41,0.04 18.41,0.08 z"
         class="cls-6" />
      <path
         inkscape:connector-curvature="0"
         id="path1641"
         d="m 128.4,116 h -11.84 v -11.81 h 11.84 z m -11.51,-0.33 h 11.18 v -11.15 h -11.18 z"
         class="cls-10" />
      <polygon
         id="polygon1643"
         points="118.92,110.36 120.49,108.67 123.11,110.77 129.11,104.94 130.54,106.64 122.99,114.08 "
         class="cls-7" />
      <path
         inkscape:connector-curvature="0"
         id="path1645"
         d="m 170.25,107.05 c 0,0 -8.24,0.09 -18.41,0.09 -10.17,0 -18.41,0 -18.41,-0.09 0,-0.09 8.24,-0.08 18.41,-0.08 10.17,0 18.41,0.03 18.41,0.08 z"
         class="cls-6" />
      <path
         inkscape:connector-curvature="0"
         id="path1647"
         d="m 170.25,109.51 c 0,0 -8.24,0.09 -18.41,0.09 -10.17,0 -18.41,0 -18.41,-0.09 0,-0.09 8.24,-0.08 18.41,-0.08 10.17,0 18.41,0.04 18.41,0.08 z"
         class="cls-6" />
      <path
         inkscape:connector-curvature="0"
         id="path1649"
         d="m 170.25,112 c 0,0 -8.24,0.09 -18.41,0.09 -10.17,0 -18.41,0 -18.41,-0.09 0,-0.09 8.24,-0.08 18.41,-0.08 10.17,0 18.41,0.01 18.41,0.08 z"
         class="cls-6" />
      <path
         inkscape:connector-curvature="0"
         id="path1651"
         d="m 170.25,114.43 c 0,0 -8.24,0.09 -18.41,0.09 -10.17,0 -18.41,0 -18.41,-0.09 0,-0.09 8.24,-0.08 18.41,-0.08 10.17,0 18.41,0.04 18.41,0.08 z"
         class="cls-6" />
      <path
         inkscape:connector-curvature="0"
         id="path1653"
         d="m 128.4,133.7 h -11.84 v -11.85 h 11.84 z m -11.51,-0.33 h 11.18 v -11.19 h -11.18 z"
         class="cls-10" />
      <polygon
         id="polygon1655"
         points="118.92,128.02 120.49,126.33 123.11,128.43 129.11,122.6 130.54,124.3 122.99,131.75 "
         class="cls-7" />
      <path
         inkscape:connector-curvature="0"
         id="path1657"
         d="m 170.25,124.71 c 0,0.05 -8.24,0.09 -18.41,0.09 -10.17,0 -18.41,0 -18.41,-0.09 0,-0.09 8.24,-0.08 18.41,-0.08 10.17,0 18.41,0.04 18.41,0.08 z"
         class="cls-6" />
      <path
         inkscape:connector-curvature="0"
         id="path1659"
         d="m 170.25,127.18 c 0,0 -8.24,0.08 -18.41,0.08 -10.17,0 -18.41,0 -18.41,-0.08 0,-0.08 8.24,-0.09 18.41,-0.09 10.17,0 18.41,0.04 18.41,0.09 z"
         class="cls-6" />
      <path
         inkscape:connector-curvature="0"
         id="path1661"
         d="m 170.25,129.64 c 0,0 -8.24,0.08 -18.41,0.08 -10.17,0 -18.41,0 -18.41,-0.08 0,-0.08 8.24,-0.09 18.41,-0.09 10.17,0 18.41,0.04 18.41,0.09 z"
         class="cls-6" />
      <path
         inkscape:connector-curvature="0"
         id="path1663"
         d="m 170.25,132.1 c 0,0 -8.24,0.08 -18.41,0.08 -10.17,0 -18.41,0 -18.41,-0.08 0,-0.08 8.24,-0.09 18.41,-0.09 10.17,0 18.41,0.04 18.41,0.09 z"
         class="cls-6" />
      <path
         inkscape:connector-curvature="0"
         id="path1665"
         d="m 128.4,150.75 h -11.84 v -11.84 h 11.84 z m -11.51,-0.33 h 11.18 v -11.18 h -11.18 z"
         class="cls-10" />
      <polygon
         id="polygon1667"
         points="118.92,145.07 120.49,143.38 123.11,145.48 129.11,139.66 130.54,141.35 122.99,148.8 "
         class="cls-7" />
      <path
         inkscape:connector-curvature="0"
         id="path1669"
         d="m 170.25,141.77 c 0,0 -8.24,0.08 -18.41,0.08 -10.17,0 -18.41,0 -18.41,-0.08 0,-0.08 8.24,-0.09 18.41,-0.09 10.17,0 18.41,0.04 18.41,0.09 z"
         class="cls-6" />
      <path
         inkscape:connector-curvature="0"
         id="path1671"
         d="m 170.25,144.23 c 0,0.05 -8.24,0.08 -18.41,0.08 -10.17,0 -18.41,0 -18.41,-0.08 0,-0.08 8.24,-0.09 18.41,-0.09 10.17,0 18.41,0.04 18.41,0.09 z"
         class="cls-6" />
      <path
         inkscape:connector-curvature="0"
         id="path1673"
         d="m 170.25,146.69 c 0,0.05 -8.24,0.09 -18.41,0.09 -10.17,0 -18.41,0 -18.41,-0.09 0,-0.09 8.24,-0.09 18.41,-0.09 10.17,0 18.41,0.04 18.41,0.09 z"
         class="cls-6" />
      <path
         inkscape:connector-curvature="0"
         id="path1675"
         d="m 170.25,149.15 c 0,0 -8.24,0.09 -18.41,0.09 -10.17,0 -18.41,0 -18.41,-0.09 0,-0.09 8.24,-0.09 18.41,-0.09 10.17,0 18.41,0.04 18.41,0.09 z"
         class="cls-6" />
      <polygon
         id="polygon1677"
         points="166.87,151.39 159.16,167.35 164.66,167.35 "
         class="cls-11" />
      <polygon
         id="polygon1679"
         points="164.66,167.44 166.87,151.48 179.51,155.38 "
         class="cls-13" />
      <path
         inkscape:connector-curvature="0"
         id="path1681"
         d="m 164.66,167.44 4.25,-3.5 10.54,-8.62 v 0.14 l -4.85,-1.46 -7.76,-2.4 0.11,-0.07 c -0.66,4.64 -1.23,8.61 -1.63,11.43 -0.4,2.82 -0.6,4.16 -0.66,4.52 a 0.17,0.17 0 0 0 0,-0.07 v -0.22 c 0,-0.21 0.06,-0.5 0.11,-0.87 0.11,-0.77 0.25,-1.89 0.44,-3.29 0.38,-2.84 0.91,-6.85 1.54,-11.52 v -0.09 h 0.09 l 7.76,2.39 4.88,1.51 h 0.15 l -0.12,0.1 c -4.26,3.44 -8,6.45 -10.67,8.6 l -3.11,2.5 -0.83,0.67 -0.22,0.17 c 0,0 -0.02,0.09 -0.02,0.08 z"
         class="cls-6" />
      <g
         id="g1685"
         class="cls-14">
        <polyline
           id="polyline1683"
           points="151.41 58.4 150.5 63.72 151.64 63.72 152.56 58.4 151.11 58.4" />
      </g>
      <path
         inkscape:connector-curvature="0"
         id="path1687"
         d="m 102.89,114.51 v 0 a 3,3 0 0 0 3.2,-2.85 l 0.12,-3.25 a 2.92,2.92 0 0 0 2.63,-2.66 c 0.17,-2.43 0.09,-8 0.09,-8 v 0 a 8.44,8.44 0 0 0 -8.54,0.55 l 0.15,8.54 v 4.6 c 0.01,1.56 0.81,2.95 2.35,3.07 z"
         class="cls-15" />
      <path
         inkscape:connector-curvature="0"
         id="path1689"
         d="m 106.42,102.79 a 1.24,1.24 0 0 0 -1.66,-0.36 1.4,1.4 0 0 0 -0.47,1.76 1.83,1.83 0 0 0 1.19,0.9 0.94,0.94 0 0 1 0.73,1 3.14,3.14 0 0 1 -0.85,1.69 4.43,4.43 0 0 1 -2.81,1.33 3,3 0 0 1 -2.82,-0.94 3.86,3.86 0 0 1 -0.49,-2.18 c 0,-1.79 -0.07,-3.58 -0.11,-5.37 a 7.81,7.81 0 0 1 0.13,-1.93 2.57,2.57 0 0 1 1,-1.59 8,8 0 0 1 2,-0.64 16.32,16.32 0 0 0 2.34,-1.23 2.91,2.91 0 0 1 2.54,-0.25 c 0.57,0.29 1,0.85 1.5,1.17 0.78,0.44 1.85,0.34 2.23,1.5 a 2,2 0 0 1 0,1.23 2.86,2.86 0 0 1 -3.88,1.53 3.66,3.66 0 0 1 0,1.69 c -0.09,0.27 -0.12,0.68 -0.54,0.69"
         class="cls-16" />
      <path
         inkscape:connector-curvature="0"
         id="path1691"
         d="m 99.72,97.79 a 8.38,8.38 0 0 0 0.78,-2.44 2.76,2.76 0 0 0 -0.77,-2.35 2.31,2.31 0 0 0 -1.59,-0.57 2.72,2.72 0 0 0 -2.44,1.94 2.88,2.88 0 0 0 1,3 3.17,3.17 0 0 0 3.14,0.41"
         class="cls-16" />
      <path
         inkscape:connector-curvature="0"
         id="path1693"
         d="m 100.2,96.91 a 1,1 0 0 1 -0.36,0.78 c -0.36,0.36 -0.8,0.39 -0.79,0.34 0.01,-0.05 0.35,-0.15 0.67,-0.46 0.32,-0.31 0.43,-0.68 0.48,-0.66 z"
         class="cls-7" />
      <path
         inkscape:connector-curvature="0"
         id="path1695"
         d="m 99.4,97.5 a 2.49,2.49 0 0 1 -0.66,0.48 1.94,1.94 0 0 1 -0.87,0.25 1.19,1.19 0 0 1 -1,-0.46 1.31,1.31 0 0 1 -0.18,-1.09 2.06,2.06 0 0 1 0.41,-0.81 2.94,2.94 0 0 1 0.57,-0.58 c 0,0 -0.19,0.25 -0.47,0.66 a 2.15,2.15 0 0 0 -0.36,0.76 1.23,1.23 0 0 0 0.17,1 1,1 0 0 0 0.87,0.4 2,2 0 0 0 0.82,-0.2 c 0.43,-0.25 0.68,-0.44 0.7,-0.41 z"
         class="cls-17" />
      <path
         inkscape:connector-curvature="0"
         id="path1697"
         d="m 94.08,120.63 c 0,0 -1.24,9.06 0,10.21 a 2.59,2.59 0 0 0 2.43,0.77 l 2.35,-2 0.47,-9 z"
         class="cls-15" />
      <polygon
         id="polygon1699"
         points="119.68,95.19 121.25,93.5 123.87,95.6 129.87,89.78 131.3,91.47 123.75,98.92 "
         class="cls-7" />
      <path
         inkscape:connector-curvature="0"
         id="path1701"
         d="m 127.06,95.65 -2.28,1.46 c -0.1,-0.9 -0.79,-1.79 -0.75,-1.34 0.04,0.45 0,2.8 0,2.8 l -4.03,8.56 a 4.07,4.07 0 0 1 -2.51,2.41 l -3.8,1.13 1.49,5 5.27,-1.75 a 4.56,4.56 0 0 0 2.89,-2.9 L 127,100 a 17.92,17.92 0 0 0 0.59,-2.18 4.2,4.2 0 0 0 -0.53,-2.17 z"
         class="cls-15" />
      <path
         inkscape:connector-curvature="0"
         id="path1703"
         d="m 108.38,189.23 v -2.54 l -4.76,0.08 0.05,3.71 h 0.29 c 1.31,0.06 6.68,0.18 7.55,-0.1 0.87,-0.28 -3.13,-1.15 -3.13,-1.15 z"
         class="cls-7" />
      <g
         id="g1707"
         class="cls-18">
        <path
           inkscape:connector-curvature="0"
           id="path1705"
           d="m 105.34,190.42 a 1.64,1.64 0 0 0 -1.74,-1.34 v 1.33 z"
           class="cls-9" />
      </g>
      <g
         id="g1711"
         class="cls-19">
        <path
           inkscape:connector-curvature="0"
           id="path1709"
           d="m 110.36,189.71 c 0,0 1.43,0.39 1.25,0.62 -0.18,0.23 -5.6,0.32 -8,0.15 v -0.11 h 6.33 c 0,0 0.15,-0.64 0.42,-0.66 z"
           class="cls-9" />
      </g>
      <path
         inkscape:connector-curvature="0"
         id="path1713"
         d="m 103.55,190.37 h 0.31 0.87 c 0.73,0 1.74,0 2.85,0 1.11,0 2.13,0 2.85,-0.09 l 0.87,-0.05 h 0.23 -0.23 -0.87 c -0.73,0 -1.73,0.06 -2.85,0.07 -1.12,0.01 -2.12,0 -2.85,0 h -1.18 z"
         class="cls-6" />
      <path
         inkscape:connector-curvature="0"
         id="path1715"
         d="m 110,190.4 a 2.38,2.38 0 0 1 0.16,-0.41 2.33,2.33 0 0 1 0.29,-0.34 0.63,0.63 0 0 0 -0.34,0.31 0.65,0.65 0 0 0 -0.11,0.44 z"
         class="cls-6" />
      <path
         inkscape:connector-curvature="0"
         id="path1717"
         d="m 108.54,189.71 c 0,0 0.08,-0.07 0.15,-0.18 0.07,-0.11 0.11,-0.21 0.09,-0.22 a 0.93,0.93 0 0 0 -0.14,0.19 0.6,0.6 0 0 0 -0.1,0.21 z"
         class="cls-6" />
      <path
         inkscape:connector-curvature="0"
         id="path1719"
         d="m 108.15,189.52 c 0,0 0.09,0 0.17,-0.12 0.08,-0.12 0.14,-0.14 0.12,-0.15 -0.02,-0.01 -0.08,0 -0.16,0.11 -0.08,0.11 -0.14,0.14 -0.13,0.16 z"
         class="cls-6" />
      <path
         inkscape:connector-curvature="0"
         id="path1721"
         d="m 107.9,189.07 c 0,0 0.11,0 0.25,0 0.14,0 0.25,0 0.25,0 0,0 -0.11,0 -0.25,0 a 0.67,0.67 0 0 0 -0.25,0 z"
         class="cls-6" />
      <path
         inkscape:connector-curvature="0"
         id="path1723"
         d="m 107.81,188.76 a 0.61,0.61 0 0 0 0.28,0.07 0.48,0.48 0 0 0 0.29,0 1.58,1.58 0 0 0 -0.29,0 c -0.15,-0.06 -0.27,-0.09 -0.28,-0.07 z"
         class="cls-6" />
      <path
         inkscape:connector-curvature="0"
         id="path1725"
         d="m 108.69,189.3 a 1.06,1.06 0 0 0 0.31,0 1.49,1.49 0 0 0 0.32,-0.08 0.77,0.77 0 0 0 0.19,-0.08 0.16,0.16 0 0 0 0.07,-0.09 0.1,0.1 0 0 0 0,-0.12 0.55,0.55 0 0 0 -0.69,0.17 0.49,0.49 0 0 0 -0.1,0.21 0.45,0.45 0 0 0 0,0.08 0.77,0.77 0 0 1 0.14,-0.26 0.52,0.52 0 0 1 0.26,-0.18 0.5,0.5 0 0 1 0.36,0 c 0,0 0,0.09 0,0.13 l -0.17,0.07 a 1.77,1.77 0 0 1 -0.32,0.09 c -0.25,0.05 -0.37,0.05 -0.37,0.06 z"
         class="cls-6" />
      <path
         inkscape:connector-curvature="0"
         id="path1727"
         d="m 108.77,189.31 c 0,0 0,-0.07 0,-0.21 a 0.51,0.51 0 0 0 -0.09,-0.22 0.34,0.34 0 0 0 -0.26,-0.16 c -0.07,0 -0.1,0.1 -0.09,0.15 a 0.39,0.39 0 0 0 0,0.13 1,1 0 0 0 0.15,0.19 0.64,0.64 0 0 0 0.18,0.12 l -0.15,-0.15 a 1.4,1.4 0 0 1 -0.13,-0.18 c 0,-0.07 -0.07,-0.18 0,-0.2 0.07,-0.02 0.16,0.07 0.21,0.13 a 0.52,0.52 0 0 1 0.09,0.2 1.07,1.07 0 0 1 0.09,0.2 z"
         class="cls-6" />
      <path
         inkscape:connector-curvature="0"
         id="path1729"
         d="m 103.62,189.07 a 2.47,2.47 0 0 1 0.36,0 1.53,1.53 0 0 1 0.77,0.3 1.59,1.59 0 0 1 0.49,0.67 c 0.07,0.2 0.08,0.34 0.09,0.34 0.01,0 0,0 0,-0.1 a 1.09,1.09 0 0 0 -0.06,-0.25 1.43,1.43 0 0 0 -0.49,-0.7 1.45,1.45 0 0 0 -0.8,-0.3 1,1 0 0 0 -0.26,0 z"
         class="cls-6" />
      <path
         inkscape:connector-curvature="0"
         id="path1731"
         d="m 104.09,187.08 a 7.29,7.29 0 0 0 0,1 c 0,0.54 0,1 0,1 a 7.29,7.29 0 0 0 0,-1 c 0.03,-0.56 0.01,-1 0,-1 z"
         class="cls-6" />
      <path
         inkscape:connector-curvature="0"
         id="path1733"
         d="m 105.93,189.94 a 2.58,2.58 0 0 0 0.7,0.06 2.31,2.31 0 0 0 0.69,-0.07 c 0,0 -0.31,0 -0.69,0 z"
         class="cls-6" />
      <path
         inkscape:connector-curvature="0"
         id="path1735"
         d="m 105,190 c 0,0 0,0.06 0.06,0.13 0.06,0.07 0,0.14 0.07,0.13 0.07,-0.01 0,-0.07 0,-0.15 0,-0.08 -0.13,-0.17 -0.13,-0.11 z"
         class="cls-6" />
      <path
         inkscape:connector-curvature="0"
         id="path1737"
         d="m 104.64,189.52 c 0,0 0,0.06 0.07,0.11 0.07,0.05 0.1,0.08 0.11,0.07 0.01,-0.01 0,-0.06 -0.07,-0.11 -0.07,-0.05 -0.1,-0.08 -0.11,-0.07 z"
         class="cls-6" />
      <path
         inkscape:connector-curvature="0"
         id="path1739"
         d="m 104.14,189.33 c 0,0 0.06,0 0.13,0 0.07,0 0.12,0.06 0.14,0 0.02,-0.06 0,-0.08 -0.12,-0.1 -0.12,-0.02 -0.16,0.09 -0.15,0.1 z"
         class="cls-6" />
      <path
         inkscape:connector-curvature="0"
         id="path1741"
         d="m 103.78,189.24 c 0,0 0,0 0.06,0.06 h 0.08 c 0,0 0,0 -0.06,-0.06 -0.06,-0.06 -0.08,-0.01 -0.08,0 z"
         class="cls-6" />
      <path
         inkscape:connector-curvature="0"
         id="path1743"
         d="m 91.61,188.42 1.61,-2 -3.65,-3.05 -2.39,2.85 0.21,0.2 c 1,0.9 5,4.49 5.8,4.84 0.8,0.35 -1.58,-2.84 -1.58,-2.84 z"
         class="cls-7" />
      <g
         id="g1747"
         class="cls-18">
        <path
           inkscape:connector-curvature="0"
           id="path1745"
           d="m 88.53,187.33 a 1.64,1.64 0 0 0 0.18,-1.17 1.56,1.56 0 0 0 -0.63,-1 l -0.85,1 z"
           class="cls-9" />
      </g>
      <g
         id="g1751"
         class="cls-19">
        <path
           inkscape:connector-curvature="0"
           id="path1749"
           d="m 92.8,190.08 c 0,0 0.82,1.22 0.54,1.28 -0.28,0.06 -4.45,-3.41 -6.16,-5.1 l 0.07,-0.08 4.83,4.1 c 0,0 0.5,-0.37 0.72,-0.2 z"
           class="cls-9" />
      </g>
      <path
         inkscape:connector-curvature="0"
         id="path1753"
         d="m 87.2,186.13 0.06,0.06 0.17,0.16 0.64,0.58 c 0.54,0.49 1.3,1.15 2.16,1.87 0.86,0.72 1.64,1.34 2.22,1.79 l 0.68,0.53 0.19,0.14 h 0.07 l -0.06,-0.05 -0.18,-0.15 -0.68,-0.54 c -0.57,-0.46 -1.35,-1.09 -2.21,-1.81 -0.86,-0.72 -1.62,-1.37 -2.17,-1.85 l -0.65,-0.57 -0.18,-0.15 z"
         class="cls-6" />
      <path
         inkscape:connector-curvature="0"
         id="path1755"
         d="m 92,190.33 c 0,0 0.16,-0.13 0.39,-0.21 a 2.41,2.41 0 0 1 0.44,-0.07 0.71,0.71 0 0 0 -0.46,0 0.73,0.73 0 0 0 -0.37,0.28 z"
         class="cls-6" />
      <path
         inkscape:connector-curvature="0"
         id="path1757"
         d="m 91.41,188.89 a 0.63,0.63 0 0 0 0.23,0 c 0.13,0 0.22,-0.08 0.22,-0.1 a 0.63,0.63 0 0 0 -0.23,0 c -0.13,0.04 -0.22,0.08 -0.22,0.1 z"
         class="cls-6" />
      <path
         inkscape:connector-curvature="0"
         id="path1759"
         d="m 91.25,188.48 c 0,0 0.09,0 0.2,0 0.11,0 0.2,0 0.2,0 0,0 -0.09,0 -0.2,0 a 0.44,0.44 0 0 0 -0.2,0 z"
         class="cls-6" />
      <path
         inkscape:connector-curvature="0"
         id="path1761"
         d="m 91.35,188 c 0,0 0.06,0.1 0.17,0.19 0.11,0.09 0.19,0.15 0.21,0.14 0.02,-0.01 -0.07,-0.1 -0.18,-0.19 -0.11,-0.09 -0.19,-0.14 -0.2,-0.14 z"
         class="cls-6" />
      <path
         inkscape:connector-curvature="0"
         id="path1763"
         d="m 91.49,187.69 c 0,0 0,0.12 0.16,0.24 a 0.48,0.48 0 0 0 0.24,0.15 c 0,0 -0.09,-0.09 -0.2,-0.19 -0.11,-0.1 -0.19,-0.21 -0.2,-0.2 z"
         class="cls-6" />
      <path
         inkscape:connector-curvature="0"
         id="path1765"
         d="m 91.8,188.67 a 1,1 0 0 0 0.24,0.2 l 0.29,0.15 a 1,1 0 0 0 0.2,0.06 0.22,0.22 0 0 0 0.11,0 0.14,0.14 0 0 0 0,-0.13 0.58,0.58 0 0 0 -0.64,-0.32 0.83,0.83 0 0 0 -0.21,0.1 c 0,0 -0.06,0 -0.06,0.06 a 1.2,1.2 0 0 1 0.28,-0.12 0.58,0.58 0 0 1 0.31,0 0.53,0.53 0 0 1 0.26,0.25 c 0,0.06 0,0.09 -0.1,0.08 a 0.61,0.61 0 0 1 -0.18,-0.05 1.57,1.57 0 0 1 -0.29,-0.14 z"
         class="cls-6" />
      <path
         inkscape:connector-curvature="0"
         id="path1767"
         d="m 91.85,188.73 c 0,0 0.09,0 0.17,-0.14 a 0.44,0.44 0 0 0 0.07,-0.22 0.29,0.29 0 0 0 -0.09,-0.28 0.12,0.12 0 0 0 -0.16,0 0.48,0.48 0 0 0 0,0.14 0.66,0.66 0 0 0 0,0.24 c 0,0.13 0,0.21 0.06,0.2 0.06,-0.01 0,-0.08 0,-0.2 a 0.93,0.93 0 0 1 0,-0.23 c 0,-0.07 0.06,-0.18 0.13,-0.14 0.07,0.04 0.07,0.15 0.07,0.23 a 0.39,0.39 0 0 1 -0.06,0.2 0.5,0.5 0 0 1 -0.19,0.2 z"
         class="cls-6" />
      <path
         inkscape:connector-curvature="0"
         id="path1769"
         d="m 88.11,185.19 c 0,0 0.11,0.08 0.26,0.24 a 1.44,1.44 0 0 1 0.38,0.73 1.57,1.57 0 0 1 -0.06,0.83 c -0.08,0.2 -0.16,0.31 -0.15,0.32 l 0.06,-0.08 a 1.44,1.44 0 0 0 0.13,-0.23 1.51,1.51 0 0 0 0.08,-0.85 1.45,1.45 0 0 0 -0.41,-0.75 1.05,1.05 0 0 0 -0.21,-0.16 z"
         class="cls-6" />
      <path
         inkscape:connector-curvature="0"
         id="path1771"
         d="m 89.75,184 c 0,0 -0.3,0.31 -0.66,0.72 a 8.65,8.65 0 0 0 -0.61,0.76 8,8 0 0 0 0.66,-0.72 8.65,8.65 0 0 0 0.61,-0.76 z"
         class="cls-6" />
      <path
         inkscape:connector-curvature="0"
         id="path1773"
         d="m 89.29,187.36 a 2.31,2.31 0 0 0 0.48,0.5 3.28,3.28 0 0 0 0.57,0.4 c 0,0 -0.24,-0.2 -0.53,-0.45 -0.29,-0.25 -0.51,-0.46 -0.52,-0.45 z"
         class="cls-6" />
      <path
         inkscape:connector-curvature="0"
         id="path1775"
         d="m 88.57,186.76 c 0,0 0,0.07 0,0.14 0,0.07 0,0.14 0,0.15 0,0.01 0.07,0 0.09,-0.13 0.02,-0.13 -0.07,-0.16 -0.09,-0.16 z"
         class="cls-6" />
      <path
         inkscape:connector-curvature="0"
         id="path1777"
         d="m 88.58,186.2 c 0,0 0,0.06 0,0.13 0,0.07 0,0.12 0,0.12 0,0 0,-0.06 0,-0.13 0,-0.07 0.02,-0.12 0,-0.12 z"
         class="cls-6" />
      <path
         inkscape:connector-curvature="0"
         id="path1779"
         d="m 88.32,185.73 c 0,0 0,0.05 0.08,0.11 0.08,0.06 0,0.13 0.07,0.13 0.07,0 0,-0.08 0,-0.16 0,-0.08 -0.14,-0.1 -0.15,-0.08 z"
         class="cls-6" />
      <path
         inkscape:connector-curvature="0"
         id="path1781"
         d="m 88.11,185.42 c 0,0 0,0.05 0,0.08 0,0.03 0,0.07 0.06,0.06 0.06,-0.01 0,-0.05 0,-0.08 a 0.11,0.11 0 0 0 -0.06,-0.06 z"
         class="cls-6" />
      <path
         inkscape:connector-curvature="0"
         id="path1783"
         d="m 101.5,135.32 c 0,0 -1.58,6.69 -1.13,8 0.45,1.31 3.34,2.09 3.34,2.09 l -0.09,18.34 -16,19.82 5.92,4.84 c 0,0 17.36,-19.86 18.89,-23.45 1.53,-3.59 -1,-30 -1,-30 z"
         class="cls-6" />
      <path
         inkscape:connector-curvature="0"
         id="path1785"
         d="m 109.69,132.59 0.79,55.69 h -8.16 L 98.23,143 v 0 c -0.87,-0.82 -2.09,-2.24 -1.92,-5.39 l 0.2,-3.67 z"
         class="cls-20" />
      <path
         inkscape:connector-curvature="0"
         id="path1787"
         d="m 101.09,166.87 c 0,0 0,0 0,-0.09 l 0.15,-0.23 0.61,-0.85 2.21,-3.07 v 0.05 c -0.18,-1.94 -0.39,-4.28 -0.63,-6.81 -0.29,-3.31 -0.53,-6.31 -0.67,-8.49 -0.08,-1.08 -0.12,-2 -0.15,-2.57 v -0.71 a 0.73,0.73 0 0 1 0,-0.24 0.75,0.75 0 0 1 0,0.24 l 0.06,0.7 0.2,2.57 c 0.17,2.18 0.43,5.17 0.72,8.49 0.23,2.53 0.45,4.87 0.6,6.81 v 0.05 l -2.27,3 -0.63,0.84 -0.18,0.22 z"
         class="cls-21" />
      <path
         inkscape:connector-curvature="0"
         id="path1789"
         d="m 103.59,143.86 a 10.74,10.74 0 0 1 -2.16,-0.32 10.61,10.61 0 0 1 -2.1,-0.58 20.29,20.29 0 0 1 2.14,0.41 17.88,17.88 0 0 1 2.12,0.49 z"
         class="cls-21" />
      <path
         inkscape:connector-curvature="0"
         id="path1791"
         d="m 109.18,162.87 a 8.69,8.69 0 0 0 -2.2,-0.57 8.07,8.07 0 0 0 -2.27,0.22 1.93,1.93 0 0 1 0.64,-0.25 5,5 0 0 1 1.64,-0.14 4.72,4.72 0 0 1 1.6,0.4 2,2 0 0 1 0.59,0.34 z"
         class="cls-21" />
      <path
         inkscape:connector-curvature="0"
         id="path1793"
         d="m 112.06,165.45 c 0,0 -2.26,3.11 -5.13,6.88 -2.87,3.77 -5.22,6.81 -5.26,6.78 -0.04,-0.03 2.26,-3.11 5.13,-6.88 2.87,-3.77 5.2,-6.8 5.26,-6.78 z"
         class="cls-21" />
      <path
         inkscape:connector-curvature="0"
         id="path1795"
         d="m 111,136.73 a 1.25,1.25 0 0 1 -0.46,0.6 2.28,2.28 0 0 1 -3.32,-0.35 1.28,1.28 0 0 1 -0.32,-0.69 7,7 0 0 0 0.41,0.61 2.28,2.28 0 0 0 3.16,0.34 7.25,7.25 0 0 0 0.53,-0.51 z"
         class="cls-21" />
      <path
         inkscape:connector-curvature="0"
         id="path1797"
         d="M 99.81,108.07 A 7.12,7.12 0 0 1 99.42,98.15"
         class="cls-17" />
      <path
         inkscape:connector-curvature="0"
         id="path1799"
         d="m 95.23,113.27 c 0,0 -1.78,2 -2.14,9.66 0,0 5,0.95 5.14,0.68 0.14,-0.27 -3,-10.34 -3,-10.34 z"
         class="cls-7" />
      <g
         id="g1803"
         class="cls-14">
        <path
           inkscape:connector-curvature="0"
           id="path1801"
           d="m 95.23,113.27 c 0,0 -1.78,2 -2.14,9.66 0,0 5,0.95 5.14,0.68 0.14,-0.27 -3,-10.34 -3,-10.34 z" />
      </g>
      <path
         inkscape:connector-curvature="0"
         id="path1805"
         d="m 96,135.57 h 15.5 l -0.25,-2.42 c 0,0 -1.77,-9.21 -1.76,-9.33 l 0.28,-0.59 a 5.83,5.83 0 0 0 0.07,-4.87 v 0 l 7.58,-2.6 -1.85,-6.26 c -3.45,0.58 -8.65,1.23 -8.65,1.23 l -0.77,0.07 -5.49,0.29 c -2.25,0.27 -4.86,0.45 -5.82,2.85 -0.51,1.29 0,3.22 0.81,5.21 l 2,6.11 c 0.79,3.36 -0.48,3.2 -1.17,6.58 -0.08,0.51 -0.48,3.26 -0.48,3.73 z"
         class="cls-7" />
      <g
         id="g1809"
         class="cls-14">
        <path
           inkscape:connector-curvature="0"
           id="path1807"
           d="m 96,135.57 h 15.5 l -0.25,-2.42 c 0,0 -1.77,-9.21 -1.76,-9.33 l 0.28,-0.59 a 5.83,5.83 0 0 0 0.07,-4.87 v 0 l 7.58,-2.6 -1.85,-6.26 c -3.45,0.58 -8.65,1.23 -8.65,1.23 l -0.77,0.07 -5.49,0.29 c -2.25,0.27 -4.86,0.45 -5.82,2.85 -0.51,1.29 0,3.22 0.81,5.21 l 2,6.11 c 0.79,3.36 -0.48,3.2 -1.17,6.58 -0.08,0.51 -0.48,3.26 -0.48,3.73 z" />
      </g>
      <path
         inkscape:connector-curvature="0"
         id="path1811"
         d="m 117.39,115.86 c 0,0 -0.11,0.07 -0.33,0.15 l -0.94,0.32 c -0.79,0.27 -1.9,0.62 -3.11,1 -1.21,0.38 -2.3,0.78 -3.08,1.1 l -0.91,0.38 a 1.39,1.39 0 0 1 -0.34,0.14 l 0.31,-0.2 c 0.21,-0.11 0.51,-0.26 0.9,-0.43 a 28.64,28.64 0 0 1 3.07,-1.15 c 1.21,-0.39 2.32,-0.73 3.12,-1 l 1,-0.27 a 1.73,1.73 0 0 1 0.31,-0.04 z"
         class="cls-6" />
      <path
         inkscape:connector-curvature="0"
         id="path1813"
         d="m 97.58,125 a 1,1 0 0 1 -0.13,-0.3 l -0.33,-0.85 c -0.27,-0.71 -0.66,-1.7 -1.06,-2.79 -0.4,-1.09 -0.73,-2.11 -0.93,-2.85 -0.11,-0.37 -0.19,-0.67 -0.23,-0.88 -0.04,-0.21 -0.07,-0.33 -0.05,-0.33 0.02,0 0.16,0.45 0.39,1.18 0.23,0.73 0.59,1.72 1,2.82 0.41,1.1 0.76,2.09 1,2.81 q 0.18,0.56 0.27,0.87 a 1.08,1.08 0 0 1 0.07,0.32 z"
         class="cls-6" />
    </g>
  </g>
</svg>
