<?xml version="1.0" encoding="UTF-8" standalone="no"?>
<svg
   xmlns:dc="http://purl.org/dc/elements/1.1/"
   xmlns:cc="http://creativecommons.org/ns#"
   xmlns:rdf="http://www.w3.org/1999/02/22-rdf-syntax-ns#"
   xmlns:svg="http://www.w3.org/2000/svg"
   xmlns="http://www.w3.org/2000/svg"
   xmlns:sodipodi="http://sodipodi.sourceforge.net/DTD/sodipodi-0.dtd"
   xmlns:inkscape="http://www.inkscape.org/namespaces/inkscape"
   sodipodi:docname="messages.svg"
   inkscape:version="1.0beta2 (2b71d25, 2019-12-03)"
   id="svg2230"
   version="1.1"
   viewBox="0 0 150 59.194263"
   height="59.194263mm"
   width="150mm">
  <defs
     id="defs2224">
    <style
       id="style2232">.cls-1{font-size:30px;font-family:Andor-PersonalUse, Andor;}.cls-1,.cls-6{fill:#286066;}.cls-2{fill:#ecf2f9;}.cls-3{fill:#194147;}.cls-4{fill:#eae9e8;}.cls-5{fill:#e4c9aa;}.cls-7{fill:#204f51;}.cls-8{fill:#cec9c4;}.cls-9{opacity:0.5;}.cls-10{fill:#d0def9;}.cls-11{fill:#b8cdef;}.cls-12{opacity:0.22;}.cls-13{fill:#1f2531;}.cls-14{fill:#dba585;}.cls-15{fill:#bd8a6d;}.cls-16{fill:#243141;}.cls-17{fill:#414142;}.cls-18{fill:#c1b4ae;}.cls-19{fill:#cabeb8;}.cls-20{fill:#f3e4dc;}.cls-21{fill:#c99a7d;}.cls-22{fill:#4c4331;}.cls-23{fill:#997761;}</style>
  </defs>
  <sodipodi:namedview
     inkscape:window-maximized="0"
     inkscape:window-y="23"
     inkscape:window-x="0"
     inkscape:window-height="755"
     inkscape:window-width="1280"
     showgrid="false"
     inkscape:document-rotation="0"
     inkscape:current-layer="layer1"
     inkscape:document-units="mm"
     inkscape:cy="143.73042"
     inkscape:cx="269.53368"
     inkscape:zoom="1"
     inkscape:pageshadow="2"
     inkscape:pageopacity="0.0"
     borderopacity="1.0"
     bordercolor="#666666"
     pagecolor="#ffffff"
     id="base" />
  <metadata
     id="metadata2227">
    <rdf:RDF>
      <cc:Work
         rdf:about="">
        <dc:format>image/svg+xml</dc:format>
        <dc:type
           rdf:resource="http://purl.org/dc/dcmitype/StillImage" />
        <dc:title></dc:title>
      </cc:Work>
    </rdf:RDF>
  </metadata>
  <g
     transform="translate(-57.802548,-19.121327)"
     id="layer1"
     inkscape:groupmode="layer"
     inkscape:label="Capa 1">
    <g
       transform="matrix(0.45622986,0,0,0.45622986,44.047306,-2.8385957)"
       id="Character">
      <text
         class="cls-1"
         transform="translate(215.45,137.67)"
         id="text2238">Messages</text>
      <path
         inkscape:connector-curvature="0"
         class="cls-2"
         d="m 37.25,177.78 c 0,0 -17,-32.48 1.61,-67.66 C 55.4,78.91 81.49,103.73 96.27,72 c 20.16,-43.3 120.77,-26.39 108,40.24 -5.22,27.28 18.42,32.32 18.13,52.74 a 13.14,13.14 0 0 1 -13.17,12.9 z"
         id="path2240" />
      <path
         inkscape:connector-curvature="0"
         class="cls-3"
         d="M 81.64,114.15 129.33,85.6 a 8.29,8.29 0 0 1 8.54,0 l 47.7,28.55 v 46.54 L 81.64,155.48 Z"
         id="path2242" />
      <rect
         class="cls-4"
         x="90.580002"
         y="93.529999"
         width="86.040001"
         height="74.360001"
         id="rect2244" />
      <circle
         class="cls-5"
         cx="94.089996"
         cy="96.779999"
         r="0.88"
         id="circle2246" />
      <path
         inkscape:connector-curvature="0"
         class="cls-5"
         d="m 172.17,96.78 a 0.89,0.89 0 1 1 1.77,0 0.89,0.89 0 0 1 -1.77,0 z"
         id="path2248" />
      <rect
         class="cls-5"
         x="94.089996"
         y="96.68"
         width="78.970001"
         height="0.19"
         id="rect2250" />
      <rect
         class="cls-5"
         x="94"
         y="96.419998"
         width="0.19"
         height="78.970001"
         id="rect2252" />
      <rect
         class="cls-5"
         x="172.99001"
         y="96.419998"
         width="0.19"
         height="78.970001"
         id="rect2254" />
      <polygon
         class="cls-6"
         points="185.57,176.25 81.64,176.25 81.64,114.02 133.6,145.13 185.57,114.02 "
         id="polygon2256" />
      <path
         inkscape:connector-curvature="0"
         class="cls-7"
         d="m 81.64,176.25 47.6,-34.13 a 7.48,7.48 0 0 1 8.72,0 l 47.61,34.13 z"
         id="path2258" />
      <path
         inkscape:connector-curvature="0"
         class="cls-8"
         d="M 149.47,103.83 H 118.1 a 0.83,0.83 0 0 1 -0.83,-0.82 v 0 a 0.83,0.83 0 0 1 0.83,-0.83 h 31.37 a 0.83,0.83 0 0 1 0.83,0.83 v 0 a 0.83,0.83 0 0 1 -0.83,0.82 z"
         id="path2260" />
      <path
         inkscape:connector-curvature="0"
         class="cls-8"
         d="M 157.55,107.16 H 110 a 0.83,0.83 0 0 1 -0.83,-0.83 v 0 A 0.83,0.83 0 0 1 110,105.5 h 47.53 a 0.83,0.83 0 0 1 0.83,0.83 v 0 a 0.84,0.84 0 0 1 -0.81,0.83 z"
         id="path2262" />
      <path
         inkscape:connector-curvature="0"
         class="cls-8"
         d="M 151.38,113.09 H 117 a 0.59,0.59 0 0 1 -0.6,-0.59 v 0 a 0.6,0.6 0 0 1 0.6,-0.6 h 34.39 a 0.6,0.6 0 0 1 0.6,0.6 v 0 a 0.59,0.59 0 0 1 -0.61,0.59 z"
         id="path2264" />
      <path
         inkscape:connector-curvature="0"
         class="cls-8"
         d="m 120.45,116.22 h -9.7 a 0.6,0.6 0 0 1 -0.6,-0.59 v 0 a 0.6,0.6 0 0 1 0.6,-0.6 h 9.7 a 0.6,0.6 0 0 1 0.6,0.6 v 0 a 0.6,0.6 0 0 1 -0.6,0.59 z"
         id="path2266" />
      <path
         inkscape:connector-curvature="0"
         class="cls-8"
         d="m 135.07,116.22 h -11.71 a 0.6,0.6 0 0 1 -0.6,-0.59 v 0 a 0.6,0.6 0 0 1 0.6,-0.6 h 11.71 a 0.6,0.6 0 0 1 0.6,0.6 v 0 a 0.6,0.6 0 0 1 -0.6,0.59 z"
         id="path2268" />
      <path
         inkscape:connector-curvature="0"
         class="cls-8"
         d="m 157.63,116.22 h -20.26 a 0.6,0.6 0 0 1 -0.59,-0.59 v 0 a 0.6,0.6 0 0 1 0.59,-0.6 h 20.26 a 0.6,0.6 0 0 1 0.6,0.6 v 0 a 0.6,0.6 0 0 1 -0.6,0.59 z"
         id="path2270" />
      <path
         inkscape:connector-curvature="0"
         class="cls-8"
         d="m 135.15,119.86 h -18.84 a 0.6,0.6 0 0 1 -0.6,-0.6 v 0 a 0.6,0.6 0 0 1 0.6,-0.6 h 18.84 a 0.6,0.6 0 0 1 0.6,0.6 v 0 a 0.6,0.6 0 0 1 -0.6,0.6 z"
         id="path2272" />
      <path
         inkscape:connector-curvature="0"
         class="cls-8"
         d="m 152.07,119.86 h -14.84 a 0.6,0.6 0 0 1 -0.6,-0.6 v 0 a 0.6,0.6 0 0 1 0.6,-0.6 h 14.84 a 0.59,0.59 0 0 1 0.59,0.6 v 0 a 0.59,0.59 0 0 1 -0.59,0.6 z"
         id="path2274" />
      <path
         inkscape:connector-curvature="0"
         class="cls-8"
         d="m 152,125 h -34.42 a 0.6,0.6 0 0 1 -0.6,-0.6 v 0 a 0.6,0.6 0 0 1 0.6,-0.6 H 152 a 0.6,0.6 0 0 1 0.6,0.6 v 0 A 0.6,0.6 0 0 1 152,125 Z"
         id="path2276" />
      <path
         inkscape:connector-curvature="0"
         class="cls-8"
         d="m 121,128.17 h -9.7 a 0.6,0.6 0 0 1 -0.6,-0.6 v 0 a 0.6,0.6 0 0 1 0.6,-0.6 h 9.7 a 0.6,0.6 0 0 1 0.6,0.6 v 0 a 0.6,0.6 0 0 1 -0.6,0.6 z"
         id="path2278" />
      <path
         inkscape:connector-curvature="0"
         class="cls-8"
         d="m 135.65,128.17 h -11.71 a 0.6,0.6 0 0 1 -0.6,-0.6 v 0 a 0.6,0.6 0 0 1 0.6,-0.6 h 11.71 a 0.6,0.6 0 0 1 0.6,0.6 v 0 a 0.6,0.6 0 0 1 -0.6,0.6 z"
         id="path2280" />
      <path
         inkscape:connector-curvature="0"
         class="cls-8"
         d="M 158.21,128.17 H 138 a 0.6,0.6 0 0 1 -0.6,-0.6 v 0 a 0.6,0.6 0 0 1 0.6,-0.6 h 20.25 a 0.6,0.6 0 0 1 0.6,0.6 v 0 a 0.6,0.6 0 0 1 -0.64,0.6 z"
         id="path2282" />
      <path
         inkscape:connector-curvature="0"
         class="cls-8"
         d="m 135.73,131.8 h -18.84 a 0.6,0.6 0 0 1 -0.6,-0.59 v 0 a 0.6,0.6 0 0 1 0.6,-0.6 h 18.84 a 0.6,0.6 0 0 1 0.6,0.6 v 0 a 0.6,0.6 0 0 1 -0.6,0.59 z"
         id="path2284" />
      <path
         inkscape:connector-curvature="0"
         class="cls-8"
         d="m 152.65,131.8 h -14.84 a 0.6,0.6 0 0 1 -0.6,-0.59 v 0 a 0.6,0.6 0 0 1 0.6,-0.6 h 14.84 a 0.6,0.6 0 0 1 0.6,0.6 v 0 a 0.6,0.6 0 0 1 -0.6,0.59 z"
         id="path2286" />
      <g
         class="cls-9"
         id="g2292">
        <polygon
           class="cls-10"
           points="60.04,135.03 49.48,138.97 47.12,132.65 53.58,133.84 57.68,128.71 "
           id="polygon2288" />
        <path
           inkscape:connector-curvature="0"
           class="cls-11"
           d="m 47.12,132.65 10.56,-3.94 -3.41,4.95 a 1.16,1.16 0 0 1 -1.22,0.46 z"
           id="path2290" />
      </g>
      <g
         class="cls-12"
         id="g2298">
        <polygon
           class="cls-6"
           points="194.39,97.09 173.66,91.56 176.97,79.15 185.68,88.12 197.7,84.68 "
           id="polygon2294" />
        <path
           inkscape:connector-curvature="0"
           class="cls-3"
           d="m 177,79.15 20.73,5.53 -10.79,3.92 a 2.16,2.16 0 0 1 -2.39,-0.63 z"
           id="path2296" />
      </g>
      <path
         inkscape:connector-curvature="0"
         class="cls-13"
         d="m 61.24,99.68 c 0,0 -0.54,5.36 0.45,6.7 0,0 -2.63,-0.57 -3.23,-1.47 -0.6,-0.9 2.78,-5.23 2.78,-5.23 z"
         id="path2300" />
      <path
         inkscape:connector-curvature="0"
         class="cls-14"
         d="m 77.62,116.8 1.1,-0.73 a 2.57,2.57 0 0 1 1.19,0 3.06,3.06 0 0 1 1.33,0.49 0.48,0.48 0 0 1 0.1,0.4 1,1 0 0 1 -0.2,0.44 0.56,0.56 0 0 1 -0.13,0.54 0.51,0.51 0 0 1 -0.21,0.52 0.41,0.41 0 0 1 -0.15,0.43 3.82,3.82 0 0 0 -0.68,0 8.63,8.63 0 0 1 -2.16,-0.3 c 0,0 -1.07,-0.2 -0.19,-1.79 z"
         id="path2302" />
      <path
         inkscape:connector-curvature="0"
         class="cls-15"
         d="m 79.24,117.24 a 2.91,2.91 0 0 1 -0.44,0.6 c -0.15,0.1 0.73,1 0.73,1 0,0 0.3,-1.23 -0.29,-1.6 z"
         id="path2304" />
      <path
         inkscape:connector-curvature="0"
         class="cls-14"
         d="m 77.05,116.89 a 3.78,3.78 0 0 0 1,-0.23 c 0.37,-0.18 -0.07,1.86 -0.07,1.86 a 3.8,3.8 0 0 0 -1.48,-0.64 c -0.61,-0.02 0.55,-0.99 0.55,-0.99 z"
         id="path2306" />
      <path
         inkscape:connector-curvature="0"
         class="cls-16"
         d="m 52.25,171.08 a 33.87,33.87 0 0 0 2.52,3.32 c 0,0 1.31,0.68 1.35,1.22 0.08,1 0.13,1.63 -1.59,1.67 -1.72,0.04 -2.79,0 -3.1,-1 a 8.13,8.13 0 0 0 -0.86,-1.86 l -0.13,2.71 h -0.39 c 0,0 -0.17,-2.71 -0.2,-3.1 -0.03,-0.39 -0.27,-1.88 0.54,-2.54 a 2.31,2.31 0 0 1 1.86,-0.42 z"
         id="path2308" />
      <path
         inkscape:connector-curvature="0"
         class="cls-16"
         d="m 55,174.54 a 4.33,4.33 0 0 1 -2,0 c -1.11,-0.27 -2.17,-2.92 -2.49,-3.14 l -0.28,-1.06 h 2.15 a 3.93,3.93 0 0 0 0.36,1.46 25.41,25.41 0 0 0 2.26,2.74 z"
         id="path2310" />
      <path
         inkscape:connector-curvature="0"
         class="cls-16"
         d="m 64.4,170.06 a 7.15,7.15 0 0 0 0.81,1.36 c 0.39,0.5 1.59,2.58 2.13,2.73 0.54,0.15 2.17,0.44 2.32,1.35 0.15,0.91 0.22,1.58 -1.41,1.65 -1.63,0.07 -2.68,0.17 -3.45,-1 a 8.47,8.47 0 0 0 -2,-2 v 3 h -0.63 a 26.9,26.9 0 0 0 -0.46,-3.31 3.75,3.75 0 0 1 0.89,-3.82 c 1.49,-1.19 1.8,0.04 1.8,0.04 z"
         id="path2312" />
      <path
         inkscape:connector-curvature="0"
         class="cls-16"
         d="m 67.34,174.15 c 0,0 -1.46,0.36 -2,0 -0.54,-0.36 -2.45,-3.56 -3.08,-3.75 0,0 0.61,-1.23 2.15,-0.34 -0.01,0 2.51,3.56 2.93,4.09 z"
         id="path2314" />
      <path
         inkscape:connector-curvature="0"
         class="cls-17"
         d="m 51.42,125.64 a 15.27,15.27 0 0 0 -2.6,5.81 c -0.55,3.16 0.33,13.76 0.31,15.32 -0.02,1.56 -1.38,6.41 -1.09,9.35 0.29,2.94 1.81,15.21 1.81,15.21 l 3.55,-0.07 c 0,0 -0.71,-13.23 -0.53,-14.47 0.18,-1.24 0.76,-6.48 0.83,-7 0.07,-0.52 4,-13.94 4,-16.21 0,-2.27 -1.34,-11.66 -6.28,-7.94 z"
         id="path2316" />
      <path
         inkscape:connector-curvature="0"
         class="cls-17"
         d="m 61.71,126.68 c 0,0 3.36,12.83 3.76,14.61 0.4,1.78 1.19,4.1 1.16,4.42 -0.03,0.32 -0.42,5.81 -0.42,5.81 l -1,18.65 h -3.5 c 0,0 -1.14,-11.87 -1.32,-14.26 -0.18,-2.39 1.3,-6.1 0.94,-7.11 -0.36,-1.01 -5.84,-12.74 -5.84,-12.74 0,0 -4.15,-13.06 6.22,-9.38 z"
         id="path2318" />
      <path
         inkscape:connector-curvature="0"
         class="cls-18"
         d="m 60.67,107.47 a 4.11,4.11 0 0 1 2.33,1.21 15.57,15.57 0 0 1 2.23,3.41 c 0.27,0.58 4,6 4.19,6.08 0.19,0.08 1.82,-0.31 3.13,-0.41 a 28.66,28.66 0 0 0 5.32,-1.27 l 0.47,2.41 c 0,0 -7.84,2.53 -9.65,2.09 -2.21,-0.55 -7.3,-7.09 -7.3,-7.09 0,0 -3.77,-4.45 -0.72,-6.43 z"
         id="path2320" />
      <path
         inkscape:connector-curvature="0"
         class="cls-18"
         d="m 58.32,106.53 a 18,18 0 0 0 2.35,0.94 c 0.6,0.12 2.95,3.17 3.36,4.28 0.41,1.11 0,2.78 -0.85,4.74 -0.85,1.96 0,2.62 -0.43,4.58 a 54.7,54.7 0 0 0 -0.32,8.38 c 0.07,1.09 -11.2,3.15 -13.45,1.16 0,0 1.53,-5 3.33,-6.9 0.39,-0.41 0.35,-3.13 0.08,-3.81 -0.27,-0.68 -3.26,-5.73 -3.26,-5.73 0,0 -0.22,-5.17 1.09,-6.17 1.13,-0.89 4.23,-1.2 4.79,-1.39 a 9.3,9.3 0 0 1 3.31,-0.08 z"
         id="path2322" />
      <path
         inkscape:connector-curvature="0"
         class="cls-19"
         d="m 58.88,110.41 1,-1.24 -0.88,-3.26 a 21.9,21.9 0 0 0 -0.12,4.5 z"
         id="path2324" />
      <path
         inkscape:connector-curvature="0"
         class="cls-14"
         d="m 52.24,107.47 a 3,3 0 0 0 -3.45,1.79 c -1.26,2.42 -0.95,3.72 -1.24,4.81 -0.29,1.09 -1.45,8.37 -1.52,8.69 -0.07,0.32 -1.18,4 -1,5.15 0.18,1.15 1.19,9.75 1.14,10 -0.05,0.25 2,-0.28 2,-0.28 0,0 -0.08,-8.79 0,-9.52 0.08,-0.73 0.15,-4.53 0.69,-5.51 0.54,-0.98 1.89,-7 2.18,-7.59 0.29,-0.59 3.05,-6.75 1.2,-7.54 z"
         id="path2326" />
      <path
         inkscape:connector-curvature="0"
         class="cls-14"
         d="m 59.15,104.52 a 39.65,39.65 0 0 0 -0.27,4.23 c 0,0 -1.81,1.82 -3.87,-2.11 a 5.44,5.44 0 0 0 0.21,-3.83 c -0.65,-2.21 3.93,1.71 3.93,1.71 z"
         id="path2328" />
      <polygon
         class="cls-14"
         points="58.88,108.75 58.88,110.41 56.93,108.69 "
         id="polygon2330" />
      <polygon
         class="cls-19"
         points="55.1,106.44 54.01,106.92 58.88,110.41 58.01,109.34 "
         id="polygon2332" />
      <polygon
         class="cls-20"
         points="59.93,109.17 61.27,109.54 59.02,105.91 "
         id="polygon2334" />
      <polygon
         class="cls-20"
         points="53.96,106.85 55.17,106.23 58.01,109.34 56.79,111.29 "
         id="polygon2336" />
      <path
         inkscape:connector-curvature="0"
         class="cls-19"
         d="m 64.22,117.22 a 14.93,14.93 0 0 0 0,-4.66 c 0,0 -0.26,1.42 -0.88,3.63 z"
         id="path2338" />
      <path
         inkscape:connector-curvature="0"
         class="cls-19"
         d="m 50.69,116.83 c 0,0 1.2,-4 1.27,-4.2 a 33.75,33.75 0 0 1 -0.54,5.47 z"
         id="path2340" />
      <path
         inkscape:connector-curvature="0"
         class="cls-21"
         d="m 81.1,116.53 c 0,0 -1.43,-0.14 -1.48,0.09 a 0.36,0.36 0 0 0 0.07,0.34 l -0.61,0.21 a 0.38,0.38 0 0 0 0.17,0.62 c 0,0 -0.34,0.31 0.17,0.49 0,0 -0.13,0.3 0.09,0.43 a 4.52,4.52 0 0 0 1.14,0.17 c 0,0 0.2,-0.07 0.15,-0.43 a 0.49,0.49 0 0 0 0.21,-0.52 0.55,0.55 0 0 0 0.13,-0.54 c 0,0 0.43,-0.44 0.1,-0.84 z"
         id="path2342" />
      <path
         inkscape:connector-curvature="0"
         class="cls-14"
         d="m 78.76,116.07 a 4.63,4.63 0 0 1 1.15,1 c 0.08,0.11 0.13,0.23 0,0.34 -0.13,0.11 -0.32,0.14 -0.69,-0.07 a 3.56,3.56 0 0 0 -1,-0.31 c 0,0 -0.22,-0.32 0.54,-0.96 z"
         id="path2344" />
      <path
         inkscape:connector-curvature="0"
         class="cls-14"
         d="m 57.68,93.64 c 0,0 3.21,-0.08 3.8,3.71 0.59,3.79 -0.78,7.14 -1.31,7.67 -0.53,0.53 -3.74,0.13 -4.5,-1.84 -0.76,-1.97 -1.86,-3.41 -1.67,-5.11 0.19,-1.7 -0.26,-4.49 3.68,-4.43 z"
         id="path2346" />
      <path
         inkscape:connector-curvature="0"
         class="cls-22"
         d="m 61.61,98.79 c 0,0 0.86,-4.73 -3.39,-5.58 -4.25,-0.85 -5.75,2.06 -6.16,3.79 -0.41,1.73 0.08,6.62 0.08,6.62 a 21.75,21.75 0 0 0 4.53,3.13 c 0,0 -1.42,-5.19 -0.89,-8.92 a 18,18 0 0 0 5.76,0 c 0,0 0.07,0.76 0.07,0.96 z"
         id="path2348" />
      <path
         inkscape:connector-curvature="0"
         class="cls-23"
         d="m 59.08,105.23 a 5.44,5.44 0 0 1 -2.63,-1 6.28,6.28 0 0 0 2.55,1.84 c 0,0 0.09,-0.67 0.08,-0.84 z"
         id="path2350" />
      <path
         inkscape:connector-curvature="0"
         class="cls-14"
         d="m 45.7,140.7 a 1.81,1.81 0 0 1 -0.21,-0.5 c 0,0 0,-0.33 0,-0.56 0,-0.07 0,-0.14 0,-0.18 a 3.15,3.15 0 0 1 -0.15,-1 21.33,21.33 0 0 1 0.63,-2.3 h 1.09 l 1,-0.11 a 20.6,20.6 0 0 1 1.26,2.79 0.2,0.2 0 0 1 0,0.11 3.56,3.56 0 0 1 -0.2,0.79 c 0,0.07 -0.16,0.72 -0.34,0.82 a 0.66,0.66 0 0 1 -0.64,0 1.64,1.64 0 0 1 -0.86,0.13 1,1 0 0 1 -0.87,0 c 0,0 -0.49,0.22 -0.71,0.01 z"
         id="path2352" />
      <path
         inkscape:connector-curvature="0"
         class="cls-18"
         d="m 52.24,107.47 a 3,3 0 0 0 -3.45,1.79 11,11 0 0 0 -1.42,4.63 c -0.16,1.12 -1.69,7.74 -1.77,8.06 -0.08,0.32 -0.57,4.45 -0.61,6 0,1.15 0.24,8.66 0.19,9 -0.05,0.34 3.48,-0.51 3.48,-0.51 0,0 -0.39,-6.93 -0.32,-7.65 a 40.52,40.52 0 0 1 0.58,-5.41 c 0.42,-1.25 2.06,-7.54 2.35,-8.16 0.29,-0.62 2.82,-6.96 0.97,-7.75 z"
         id="path2354" />
    </g>
  </g>
</svg>
