<svg xmlns="http://www.w3.org/2000/svg" viewBox="0 0 400.42 247.21"><defs><style>.cls-1{font-size:30px;font-family:Andor-PersonalUse, Andor;}.cls-1,.cls-6{fill:#286066;}.cls-2{fill:#ecf2f9;}.cls-3{fill:#194147;}.cls-4{fill:#eae9e8;}.cls-5{fill:#e4c9aa;}.cls-7{fill:#204f51;}.cls-8{fill:#cec9c4;}.cls-9{opacity:0.5;}.cls-10{fill:#d0def9;}.cls-11{fill:#b8cdef;}.cls-12{opacity:0.22;}.cls-13{fill:#1f2531;}.cls-14{fill:#dba585;}.cls-15{fill:#bd8a6d;}.cls-16{fill:#243141;}.cls-17{fill:#414142;}.cls-18{fill:#c1b4ae;}.cls-19{fill:#cabeb8;}.cls-20{fill:#f3e4dc;}.cls-21{fill:#c99a7d;}.cls-22{fill:#4c4331;}.cls-23{fill:#997761;}</style></defs><title>FORM</title><g id="Character"><text class="cls-1" transform="translate(215.45 137.67)">Messages</text><path class="cls-2" d="M37.25,177.78s-17-32.48,1.61-67.66C55.4,78.91,81.49,103.73,96.27,72c20.16-43.3,120.77-26.39,108,40.24-5.22,27.28,18.42,32.32,18.13,52.74a13.14,13.14,0,0,1-13.17,12.9Z"/><path class="cls-3" d="M81.64,114.15,129.33,85.6a8.29,8.29,0,0,1,8.54,0l47.7,28.55v46.54L81.64,155.48Z"/><rect class="cls-4" x="90.58" y="93.53" width="86.04" height="74.36"/><circle class="cls-5" cx="94.09" cy="96.78" r="0.88"/><path class="cls-5" d="M172.17,96.78a.89.89,0,1,1,1.77,0,.89.89,0,0,1-1.77,0Z"/><rect class="cls-5" x="94.09" y="96.68" width="78.97" height="0.19"/><rect class="cls-5" x="94" y="96.42" width="0.19" height="78.97"/><rect class="cls-5" x="172.99" y="96.42" width="0.19" height="78.97"/><polygon class="cls-6" points="185.57 114.02 185.57 176.25 81.64 176.25 81.64 114.02 133.6 145.13 185.57 114.02"/><path class="cls-7" d="M81.64,176.25l47.6-34.13a7.48,7.48,0,0,1,8.72,0l47.61,34.13Z"/><path class="cls-8" d="M149.47,103.83H118.1a.83.83,0,0,1-.83-.82h0a.83.83,0,0,1,.83-.83h31.37a.83.83,0,0,1,.83.83h0A.83.83,0,0,1,149.47,103.83Z"/><path class="cls-8" d="M157.55,107.16H110a.83.83,0,0,1-.83-.83h0a.83.83,0,0,1,.83-.83h47.53a.83.83,0,0,1,.83.83h0A.84.84,0,0,1,157.55,107.16Z"/><path class="cls-8" d="M151.38,113.09H117a.59.59,0,0,1-.6-.59h0a.6.6,0,0,1,.6-.6h34.39a.6.6,0,0,1,.6.6h0A.59.59,0,0,1,151.38,113.09Z"/><path class="cls-8" d="M120.45,116.22h-9.7a.6.6,0,0,1-.6-.59h0a.6.6,0,0,1,.6-.6h9.7a.6.6,0,0,1,.6.6h0A.6.6,0,0,1,120.45,116.22Z"/><path class="cls-8" d="M135.07,116.22H123.36a.6.6,0,0,1-.6-.59h0a.6.6,0,0,1,.6-.6h11.71a.6.6,0,0,1,.6.6h0A.6.6,0,0,1,135.07,116.22Z"/><path class="cls-8" d="M157.63,116.22H137.37a.6.6,0,0,1-.59-.59h0a.6.6,0,0,1,.59-.6h20.26a.6.6,0,0,1,.6.6h0A.6.6,0,0,1,157.63,116.22Z"/><path class="cls-8" d="M135.15,119.86H116.31a.6.6,0,0,1-.6-.6h0a.6.6,0,0,1,.6-.6h18.84a.6.6,0,0,1,.6.6h0A.6.6,0,0,1,135.15,119.86Z"/><path class="cls-8" d="M152.07,119.86H137.23a.6.6,0,0,1-.6-.6h0a.6.6,0,0,1,.6-.6h14.84a.59.59,0,0,1,.59.6h0A.59.59,0,0,1,152.07,119.86Z"/><path class="cls-8" d="M152,125H117.58a.6.6,0,0,1-.6-.6h0a.6.6,0,0,1,.6-.6H152a.6.6,0,0,1,.6.6h0A.6.6,0,0,1,152,125Z"/><path class="cls-8" d="M121,128.17h-9.7a.6.6,0,0,1-.6-.6h0a.6.6,0,0,1,.6-.6H121a.6.6,0,0,1,.6.6h0A.6.6,0,0,1,121,128.17Z"/><path class="cls-8" d="M135.65,128.17H123.94a.6.6,0,0,1-.6-.6h0a.6.6,0,0,1,.6-.6h11.71a.6.6,0,0,1,.6.6h0A.6.6,0,0,1,135.65,128.17Z"/><path class="cls-8" d="M158.21,128.17H138a.6.6,0,0,1-.6-.6h0a.6.6,0,0,1,.6-.6h20.25a.6.6,0,0,1,.6.6h0A.6.6,0,0,1,158.21,128.17Z"/><path class="cls-8" d="M135.73,131.8H116.89a.6.6,0,0,1-.6-.59h0a.6.6,0,0,1,.6-.6h18.84a.6.6,0,0,1,.6.6h0A.6.6,0,0,1,135.73,131.8Z"/><path class="cls-8" d="M152.65,131.8H137.81a.6.6,0,0,1-.6-.59h0a.6.6,0,0,1,.6-.6h14.84a.6.6,0,0,1,.6.6h0A.6.6,0,0,1,152.65,131.8Z"/><g class="cls-9"><polygon class="cls-10" points="57.68 128.71 60.04 135.03 49.48 138.97 47.12 132.65 53.58 133.84 57.68 128.71"/><path class="cls-11" d="M47.12,132.65l10.56-3.94-3.41,4.95a1.16,1.16,0,0,1-1.22.46Z"/></g><g class="cls-12"><polygon class="cls-6" points="197.7 84.68 194.39 97.09 173.66 91.56 176.97 79.15 185.68 88.12 197.7 84.68"/><path class="cls-3" d="M177,79.15l20.73,5.53L186.94,88.6a2.16,2.16,0,0,1-2.39-.63Z"/></g><path class="cls-13" d="M61.24,99.68s-.54,5.36.45,6.7c0,0-2.63-.57-3.23-1.47S61.24,99.68,61.24,99.68Z"/><path class="cls-14" d="M77.62,116.8l1.1-.73a2.57,2.57,0,0,1,1.19,0,3.06,3.06,0,0,1,1.33.49.48.48,0,0,1,.1.4,1,1,0,0,1-.2.44.56.56,0,0,1-.13.54.51.51,0,0,1-.21.52.41.41,0,0,1-.15.43,3.82,3.82,0,0,0-.68,0,8.63,8.63,0,0,1-2.16-.3S76.74,118.39,77.62,116.8Z"/><path class="cls-15" d="M79.24,117.24a2.91,2.91,0,0,1-.44.6c-.15.1.73,1,.73,1S79.83,117.61,79.24,117.24Z"/><path class="cls-14" d="M77.05,116.89a3.78,3.78,0,0,0,1-.23c.37-.18-.07,1.86-.07,1.86a3.8,3.8,0,0,0-1.48-.64C75.89,117.86,77.05,116.89,77.05,116.89Z"/><path class="cls-16" d="M52.25,171.08a33.87,33.87,0,0,0,2.52,3.32s1.31.68,1.35,1.22c.08,1,.13,1.63-1.59,1.67s-2.79,0-3.1-1a8.13,8.13,0,0,0-.86-1.86l-.13,2.71h-.39s-.17-2.71-.2-3.1-.27-1.88.54-2.54A2.31,2.31,0,0,1,52.25,171.08Z"/><path class="cls-16" d="M55,174.54a4.33,4.33,0,0,1-2,0c-1.11-.27-2.17-2.92-2.49-3.14l-.28-1.06h2.15a3.93,3.93,0,0,0,.36,1.46A25.41,25.41,0,0,0,55,174.54Z"/><path class="cls-16" d="M64.4,170.06a7.15,7.15,0,0,0,.81,1.36c.39.5,1.59,2.58,2.13,2.73s2.17.44,2.32,1.35.22,1.58-1.41,1.65-2.68.17-3.45-1a8.47,8.47,0,0,0-2-2v3h-.63a26.9,26.9,0,0,0-.46-3.31,3.75,3.75,0,0,1,.89-3.82C64.09,168.83,64.4,170.06,64.4,170.06Z"/><path class="cls-16" d="M67.34,174.15s-1.46.36-2,0-2.45-3.56-3.08-3.75c0,0,.61-1.23,2.15-.34C64.4,170.06,66.92,173.62,67.34,174.15Z"/><path class="cls-17" d="M51.42,125.64a15.27,15.27,0,0,0-2.6,5.81c-.55,3.16.33,13.76.31,15.32s-1.38,6.41-1.09,9.35,1.81,15.21,1.81,15.21l3.55-.07s-.71-13.23-.53-14.47.76-6.48.83-7,4-13.94,4-16.21S56.36,121.92,51.42,125.64Z"/><path class="cls-17" d="M61.71,126.68s3.36,12.83,3.76,14.61,1.19,4.1,1.16,4.42-.42,5.81-.42,5.81l-1,18.65H61.71s-1.14-11.87-1.32-14.26,1.3-6.1.94-7.11-5.84-12.74-5.84-12.74S51.34,123,61.71,126.68Z"/><path class="cls-18" d="M60.67,107.47A4.11,4.11,0,0,1,63,108.68a15.57,15.57,0,0,1,2.23,3.41c.27.58,4,6,4.19,6.08s1.82-.31,3.13-.41a28.66,28.66,0,0,0,5.32-1.27l.47,2.41s-7.84,2.53-9.65,2.09c-2.21-.55-7.3-7.09-7.3-7.09S57.62,109.45,60.67,107.47Z"/><path class="cls-18" d="M58.32,106.53a18,18,0,0,0,2.35.94c.6.12,2.95,3.17,3.36,4.28s0,2.78-.85,4.74,0,2.62-.43,4.58a54.7,54.7,0,0,0-.32,8.38c.07,1.09-11.2,3.15-13.45,1.16,0,0,1.53-5,3.33-6.9.39-.41.35-3.13.08-3.81s-3.26-5.73-3.26-5.73S48.91,109,50.22,108c1.13-.89,4.23-1.2,4.79-1.39A9.3,9.3,0,0,1,58.32,106.53Z"/><path class="cls-19" d="M58.88,110.41l1-1.24L59,105.91A21.9,21.9,0,0,0,58.88,110.41Z"/><path class="cls-14" d="M52.24,107.47a3,3,0,0,0-3.45,1.79c-1.26,2.42-.95,3.72-1.24,4.81s-1.45,8.37-1.52,8.69-1.18,4-1,5.15,1.19,9.75,1.14,10,2-.28,2-.28-.08-8.79,0-9.52.15-4.53.69-5.51,1.89-7,2.18-7.59S54.09,108.26,52.24,107.47Z"/><path class="cls-14" d="M59.15,104.52a39.65,39.65,0,0,0-.27,4.23s-1.81,1.82-3.87-2.11a5.44,5.44,0,0,0,.21-3.83C54.57,100.6,59.15,104.52,59.15,104.52Z"/><polygon class="cls-14" points="58.88 108.75 58.88 110.41 56.93 108.69 58.88 108.75"/><polygon class="cls-19" points="58.88 110.41 58.01 109.34 55.1 106.44 54.01 106.92 58.88 110.41"/><polygon class="cls-20" points="59.93 109.17 61.27 109.54 59.02 105.91 59.93 109.17"/><polygon class="cls-20" points="58.01 109.34 56.79 111.29 53.96 106.85 55.17 106.23 58.01 109.34"/><path class="cls-19" d="M64.22,117.22a14.93,14.93,0,0,0,0-4.66s-.26,1.42-.88,3.63Z"/><path class="cls-19" d="M50.69,116.83s1.2-4,1.27-4.2a33.75,33.75,0,0,1-.54,5.47Z"/><path class="cls-21" d="M81.1,116.53s-1.43-.14-1.48.09a.36.36,0,0,0,.07.34l-.61.21a.38.38,0,0,0,.17.62s-.34.31.17.49c0,0-.13.3.09.43a4.52,4.52,0,0,0,1.14.17s.2-.07.15-.43a.49.49,0,0,0,.21-.52.55.55,0,0,0,.13-.54s.43-.44.1-.84Z"/><path class="cls-14" d="M78.76,116.07a4.63,4.63,0,0,1,1.15,1c.08.11.13.23,0,.34s-.32.14-.69-.07a3.56,3.56,0,0,0-1-.31S78,116.71,78.76,116.07Z"/><path class="cls-14" d="M57.68,93.64s3.21-.08,3.8,3.71-.78,7.14-1.31,7.67-3.74.13-4.5-1.84S53.81,99.77,54,98.07,53.74,93.58,57.68,93.64Z"/><path class="cls-22" d="M61.61,98.79s.86-4.73-3.39-5.58S52.47,95.27,52.06,97s.08,6.62.08,6.62a21.75,21.75,0,0,0,4.53,3.13s-1.42-5.19-.89-8.92a18,18,0,0,0,5.76,0S61.61,98.59,61.61,98.79Z"/><path class="cls-23" d="M59.08,105.23a5.44,5.44,0,0,1-2.63-1A6.28,6.28,0,0,0,59,106.07S59.09,105.4,59.08,105.23Z"/><path class="cls-14" d="M45.7,140.7a1.81,1.81,0,0,1-.21-.5s0-.33,0-.56c0-.07,0-.14,0-.18a3.15,3.15,0,0,1-.15-1,21.33,21.33,0,0,1,.63-2.3l1.09,0,1-.11a20.6,20.6,0,0,1,1.26,2.79.2.2,0,0,1,0,.11,3.56,3.56,0,0,1-.2.79c0,.07-.16.72-.34.82a.66.66,0,0,1-.64,0,1.64,1.64,0,0,1-.86.13,1,1,0,0,1-.87,0S45.92,140.91,45.7,140.7Z"/><path class="cls-18" d="M52.24,107.47a3,3,0,0,0-3.45,1.79,11,11,0,0,0-1.42,4.63c-.16,1.12-1.69,7.74-1.77,8.06s-.57,4.45-.61,6c0,1.15.24,8.66.19,9s3.48-.51,3.48-.51-.39-6.93-.32-7.65a40.52,40.52,0,0,1,.58-5.41c.42-1.25,2.06-7.54,2.35-8.16S54.09,108.26,52.24,107.47Z"/></g></svg>